<?xml version="1.0" encoding="UTF-8" standalone="no"?>
<!DOCTYPE svg PUBLIC "-//W3C//DTD SVG 1.1//EN"
 "http://www.w3.org/Graphics/SVG/1.1/DTD/svg11.dtd">
<!-- Generated by graphviz version 2.43.0 (0)
 -->
<!-- Title: snakemake_dag Pages: 1 -->
<svg width="1196pt" height="764pt"
 viewBox="0.00 0.00 1196.00 764.00" xmlns="http://www.w3.org/2000/svg" xmlns:xlink="http://www.w3.org/1999/xlink">
<g id="graph0" class="graph" transform="scale(1 1) rotate(0) translate(4 760)">
<title>snakemake_dag</title>
<polygon fill="white" stroke="transparent" points="-4,4 -4,-760 1192,-760 1192,4 -4,4"/>
<!-- 0 -->
<g id="node1" class="node">
<title>0</title>
<path fill="none" stroke="#d85656" stroke-width="2" d="M637.5,-36C637.5,-36 578.5,-36 578.5,-36 572.5,-36 566.5,-30 566.5,-24 566.5,-24 566.5,-12 566.5,-12 566.5,-6 572.5,0 578.5,0 578.5,0 637.5,0 637.5,0 643.5,0 649.5,-6 649.5,-12 649.5,-12 649.5,-24 649.5,-24 649.5,-30 643.5,-36 637.5,-36"/>
<text text-anchor="middle" x="608" y="-15.5" font-family="sans" font-size="10.00">complete_run</text>
</g>
<!-- 1 -->
<g id="node2" class="node">
<title>1</title>
<path fill="none" stroke="#ced856" stroke-width="2" d="M634,-108C634,-108 582,-108 582,-108 576,-108 570,-102 570,-96 570,-96 570,-84 570,-84 570,-78 576,-72 582,-72 582,-72 634,-72 634,-72 640,-72 646,-78 646,-84 646,-84 646,-96 646,-96 646,-102 640,-108 634,-108"/>
<text text-anchor="middle" x="608" y="-87.5" font-family="sans" font-size="10.00">write_config</text>
</g>
<!-- 1&#45;&gt;0 -->
<g id="edge1" class="edge">
<title>1&#45;&gt;0</title>
<path fill="none" stroke="grey" stroke-width="2" d="M608,-71.7C608,-63.98 608,-54.71 608,-46.11"/>
<polygon fill="grey" stroke="grey" stroke-width="2" points="611.5,-46.1 608,-36.1 604.5,-46.1 611.5,-46.1"/>
</g>
<!-- 2 -->
<g id="node3" class="node">
<title>2</title>
<path fill="none" stroke="#56d86b" stroke-width="2" d="M644,-180C644,-180 572,-180 572,-180 566,-180 560,-174 560,-168 560,-168 560,-156 560,-156 560,-150 566,-144 572,-144 572,-144 644,-144 644,-144 650,-144 656,-150 656,-156 656,-156 656,-168 656,-168 656,-174 650,-180 644,-180"/>
<text text-anchor="middle" x="608" y="-159.5" font-family="sans" font-size="10.00">move_final_files</text>
</g>
<!-- 2&#45;&gt;1 -->
<g id="edge2" class="edge">
<title>2&#45;&gt;1</title>
<path fill="none" stroke="grey" stroke-width="2" d="M608,-143.7C608,-135.98 608,-126.71 608,-118.11"/>
<polygon fill="grey" stroke="grey" stroke-width="2" points="611.5,-118.1 608,-108.1 604.5,-118.1 611.5,-118.1"/>
</g>
<!-- 3 -->
<g id="node4" class="node">
<title>3</title>
<path fill="none" stroke="#d87556" stroke-width="2" d="M829,-324C829,-324 697,-324 697,-324 691,-324 685,-318 685,-312 685,-312 685,-300 685,-300 685,-294 691,-288 697,-288 697,-288 829,-288 829,-288 835,-288 841,-294 841,-300 841,-300 841,-312 841,-312 841,-318 835,-324 829,-324"/>
<text text-anchor="middle" x="763" y="-303.5" font-family="sans" font-size="10.00">alignment_summary_figures</text>
</g>
<!-- 3&#45;&gt;2 -->
<g id="edge3" class="edge">
<title>3&#45;&gt;2</title>
<path fill="none" stroke="grey" stroke-width="2" d="M744.3,-287.87C716.84,-262.71 665.47,-215.65 634.24,-187.04"/>
<polygon fill="grey" stroke="grey" stroke-width="2" points="636.5,-184.36 626.76,-180.19 631.77,-189.53 636.5,-184.36"/>
</g>
<!-- 4 -->
<g id="node5" class="node">
<title>4</title>
<path fill="none" stroke="#afd856" stroke-width="2" d="M662,-396C662,-396 582,-396 582,-396 576,-396 570,-390 570,-384 570,-384 570,-372 570,-372 570,-366 576,-360 582,-360 582,-360 662,-360 662,-360 668,-360 674,-366 674,-372 674,-372 674,-384 674,-384 674,-390 668,-396 662,-396"/>
<text text-anchor="middle" x="622" y="-375.5" font-family="sans" font-size="10.00">aggregate_counts</text>
</g>
<!-- 4&#45;&gt;2 -->
<g id="edge6" class="edge">
<title>4&#45;&gt;2</title>
<path fill="none" stroke="grey" stroke-width="2" d="M569.93,-376.1C530.81,-372.33 479.57,-360.18 453,-324 412.78,-269.23 500.13,-214.05 559.33,-184.65"/>
<polygon fill="grey" stroke="grey" stroke-width="2" points="561.1,-187.68 568.56,-180.16 558.04,-181.39 561.1,-187.68"/>
</g>
<!-- 4&#45;&gt;3 -->
<g id="edge8" class="edge">
<title>4&#45;&gt;3</title>
<path fill="none" stroke="grey" stroke-width="2" d="M656.49,-359.88C675.44,-350.47 699.13,-338.71 719.36,-328.67"/>
<polygon fill="grey" stroke="grey" stroke-width="2" points="720.97,-331.77 728.37,-324.19 717.86,-325.5 720.97,-331.77"/>
</g>
<!-- 26 -->
<g id="node27" class="node">
<title>26</title>
<path fill="none" stroke="#68d856" stroke-width="2" d="M654.5,-324C654.5,-324 589.5,-324 589.5,-324 583.5,-324 577.5,-318 577.5,-312 577.5,-312 577.5,-300 577.5,-300 577.5,-294 583.5,-288 589.5,-288 589.5,-288 654.5,-288 654.5,-288 660.5,-288 666.5,-294 666.5,-300 666.5,-300 666.5,-312 666.5,-312 666.5,-318 660.5,-324 654.5,-324"/>
<text text-anchor="middle" x="622" y="-309" font-family="sans" font-size="10.00">VST_normalize</text>
<text text-anchor="middle" x="622" y="-298" font-family="sans" font-size="10.00">th: 200</text>
</g>
<!-- 4&#45;&gt;26 -->
<g id="edge40" class="edge">
<title>4&#45;&gt;26</title>
<path fill="none" stroke="grey" stroke-width="2" d="M622,-359.7C622,-351.98 622,-342.71 622,-334.11"/>
<polygon fill="grey" stroke="grey" stroke-width="2" points="625.5,-334.1 622,-324.1 618.5,-334.1 625.5,-334.1"/>
</g>
<!-- 5 -->
<g id="node6" class="node">
<title>5</title>
<path fill="none" stroke="#569ad8" stroke-width="2" d="M686.5,-468C686.5,-468 557.5,-468 557.5,-468 551.5,-468 545.5,-462 545.5,-456 545.5,-456 545.5,-444 545.5,-444 545.5,-438 551.5,-432 557.5,-432 557.5,-432 686.5,-432 686.5,-432 692.5,-432 698.5,-438 698.5,-444 698.5,-444 698.5,-456 698.5,-456 698.5,-462 692.5,-468 686.5,-468"/>
<text text-anchor="middle" x="622" y="-447.5" font-family="sans" font-size="10.00">transpose_and_filter_counts</text>
</g>
<!-- 5&#45;&gt;4 -->
<g id="edge10" class="edge">
<title>5&#45;&gt;4</title>
<path fill="none" stroke="grey" stroke-width="2" d="M622,-431.7C622,-423.98 622,-414.71 622,-406.11"/>
<polygon fill="grey" stroke="grey" stroke-width="2" points="625.5,-406.1 622,-396.1 618.5,-406.1 625.5,-406.1"/>
</g>
<!-- 6 -->
<g id="node7" class="node">
<title>6</title>
<path fill="none" stroke="#567bd8" stroke-width="2" d="M674,-540C674,-540 570,-540 570,-540 564,-540 558,-534 558,-528 558,-528 558,-516 558,-516 558,-510 564,-504 570,-504 570,-504 674,-504 674,-504 680,-504 686,-510 686,-516 686,-516 686,-528 686,-528 686,-534 680,-540 674,-540"/>
<text text-anchor="middle" x="622" y="-519.5" font-family="sans" font-size="10.00">aggregate_tmp_counts</text>
</g>
<!-- 6&#45;&gt;5 -->
<g id="edge11" class="edge">
<title>6&#45;&gt;5</title>
<path fill="none" stroke="grey" stroke-width="2" d="M622,-503.7C622,-495.98 622,-486.71 622,-478.11"/>
<polygon fill="grey" stroke="grey" stroke-width="2" points="625.5,-478.1 622,-468.1 618.5,-478.1 625.5,-478.1"/>
</g>
<!-- 7 -->
<g id="node8" class="node">
<title>7</title>
<path fill="none" stroke="#56c1d8" stroke-width="2" stroke-dasharray="5,2" d="M881.5,-684C881.5,-684 820.5,-684 820.5,-684 814.5,-684 808.5,-678 808.5,-672 808.5,-672 808.5,-660 808.5,-660 808.5,-654 814.5,-648 820.5,-648 820.5,-648 881.5,-648 881.5,-648 887.5,-648 893.5,-654 893.5,-660 893.5,-660 893.5,-672 893.5,-672 893.5,-678 887.5,-684 881.5,-684"/>
<text text-anchor="middle" x="851" y="-663.5" font-family="sans" font-size="10.00">kallisto_quant</text>
</g>
<!-- 7&#45;&gt;6 -->
<g id="edge12" class="edge">
<title>7&#45;&gt;6</title>
<path fill="none" stroke="grey" stroke-width="2" d="M808.24,-649.37C776.71,-637.49 736.84,-621.6 722,-612 702.47,-599.37 701.29,-591.56 684,-576 673.18,-566.26 661.05,-555.8 650.41,-546.76"/>
<polygon fill="grey" stroke="grey" stroke-width="2" points="652.51,-543.95 642.61,-540.17 647.99,-549.3 652.51,-543.95"/>
</g>
<!-- 24 -->
<g id="node25" class="node">
<title>24</title>
<path fill="none" stroke="#56d8a9" stroke-width="2" d="M925.5,-612C925.5,-612 776.5,-612 776.5,-612 770.5,-612 764.5,-606 764.5,-600 764.5,-600 764.5,-588 764.5,-588 764.5,-582 770.5,-576 776.5,-576 776.5,-576 925.5,-576 925.5,-576 931.5,-576 937.5,-582 937.5,-588 937.5,-588 937.5,-600 937.5,-600 937.5,-606 931.5,-612 925.5,-612"/>
<text text-anchor="middle" x="851" y="-591.5" font-family="sans" font-size="10.00">create_tmp_and_summary_files</text>
</g>
<!-- 7&#45;&gt;24 -->
<g id="edge37" class="edge">
<title>7&#45;&gt;24</title>
<path fill="none" stroke="grey" stroke-width="2" d="M851,-647.7C851,-639.98 851,-630.71 851,-622.11"/>
<polygon fill="grey" stroke="grey" stroke-width="2" points="854.5,-622.1 851,-612.1 847.5,-622.1 854.5,-622.1"/>
</g>
<!-- 8 -->
<g id="node9" class="node">
<title>8</title>
<path fill="none" stroke="#56d8d0" stroke-width="2" stroke-dasharray="5,2" d="M624,-756C624,-756 564,-756 564,-756 558,-756 552,-750 552,-744 552,-744 552,-732 552,-732 552,-726 558,-720 564,-720 564,-720 624,-720 624,-720 630,-720 636,-726 636,-732 636,-732 636,-744 636,-744 636,-750 630,-756 624,-756"/>
<text text-anchor="middle" x="594" y="-735.5" font-family="sans" font-size="10.00">kallisto_index</text>
</g>
<!-- 8&#45;&gt;7 -->
<g id="edge21" class="edge">
<title>8&#45;&gt;7</title>
<path fill="none" stroke="grey" stroke-width="2" d="M636.21,-722.59C639.17,-721.68 642.13,-720.81 645,-720 710.01,-701.66 730.14,-703.03 798.29,-684.35"/>
<polygon fill="grey" stroke="grey" stroke-width="2" points="799.55,-687.63 808.24,-681.58 797.66,-680.89 799.55,-687.63"/>
</g>
<!-- 10 -->
<g id="node11" class="node">
<title>10</title>
<path fill="none" stroke="#56c1d8" stroke-width="2" stroke-dasharray="5,2" d="M675.5,-684C675.5,-684 614.5,-684 614.5,-684 608.5,-684 602.5,-678 602.5,-672 602.5,-672 602.5,-660 602.5,-660 602.5,-654 608.5,-648 614.5,-648 614.5,-648 675.5,-648 675.5,-648 681.5,-648 687.5,-654 687.5,-660 687.5,-660 687.5,-672 687.5,-672 687.5,-678 681.5,-684 675.5,-684"/>
<text text-anchor="middle" x="645" y="-663.5" font-family="sans" font-size="10.00">kallisto_quant</text>
</g>
<!-- 8&#45;&gt;10 -->
<g id="edge23" class="edge">
<title>8&#45;&gt;10</title>
<path fill="none" stroke="grey" stroke-width="2" d="M606.61,-719.7C612.6,-711.47 619.88,-701.48 626.48,-692.42"/>
<polygon fill="grey" stroke="grey" stroke-width="2" points="629.48,-694.25 632.54,-684.1 623.82,-690.13 629.48,-694.25"/>
</g>
<!-- 12 -->
<g id="node13" class="node">
<title>12</title>
<path fill="none" stroke="#56c1d8" stroke-width="2" d="M778.5,-684C778.5,-684 717.5,-684 717.5,-684 711.5,-684 705.5,-678 705.5,-672 705.5,-672 705.5,-660 705.5,-660 705.5,-654 711.5,-648 717.5,-648 717.5,-648 778.5,-648 778.5,-648 784.5,-648 790.5,-654 790.5,-660 790.5,-660 790.5,-672 790.5,-672 790.5,-678 784.5,-684 778.5,-684"/>
<text text-anchor="middle" x="748" y="-663.5" font-family="sans" font-size="10.00">kallisto_quant</text>
</g>
<!-- 8&#45;&gt;12 -->
<g id="edge25" class="edge">
<title>8&#45;&gt;12</title>
<path fill="none" stroke="grey" stroke-width="2" d="M631.67,-719.88C652.63,-710.35 678.9,-698.41 701.18,-688.28"/>
<polygon fill="grey" stroke="grey" stroke-width="2" points="702.79,-691.39 710.45,-684.07 699.9,-685.02 702.79,-691.39"/>
</g>
<!-- 14 -->
<g id="node15" class="node">
<title>14</title>
<path fill="none" stroke="#56c1d8" stroke-width="2" stroke-dasharray="5,2" d="M984.5,-684C984.5,-684 923.5,-684 923.5,-684 917.5,-684 911.5,-678 911.5,-672 911.5,-672 911.5,-660 911.5,-660 911.5,-654 917.5,-648 923.5,-648 923.5,-648 984.5,-648 984.5,-648 990.5,-648 996.5,-654 996.5,-660 996.5,-660 996.5,-672 996.5,-672 996.5,-678 990.5,-684 984.5,-684"/>
<text text-anchor="middle" x="954" y="-663.5" font-family="sans" font-size="10.00">kallisto_quant</text>
</g>
<!-- 8&#45;&gt;14 -->
<g id="edge27" class="edge">
<title>8&#45;&gt;14</title>
<path fill="none" stroke="grey" stroke-width="2" d="M636.13,-722.3C639.11,-721.46 642.09,-720.68 645,-720 754.53,-694.33 788.37,-709.5 901.24,-684.18"/>
<polygon fill="grey" stroke="grey" stroke-width="2" points="902.35,-687.51 911.31,-681.86 900.78,-680.69 902.35,-687.51"/>
</g>
<!-- 16 -->
<g id="node17" class="node">
<title>16</title>
<path fill="none" stroke="#56c1d8" stroke-width="2" d="M263.5,-684C263.5,-684 202.5,-684 202.5,-684 196.5,-684 190.5,-678 190.5,-672 190.5,-672 190.5,-660 190.5,-660 190.5,-654 196.5,-648 202.5,-648 202.5,-648 263.5,-648 263.5,-648 269.5,-648 275.5,-654 275.5,-660 275.5,-660 275.5,-672 275.5,-672 275.5,-678 269.5,-684 263.5,-684"/>
<text text-anchor="middle" x="233" y="-663.5" font-family="sans" font-size="10.00">kallisto_quant</text>
</g>
<!-- 8&#45;&gt;16 -->
<g id="edge29" class="edge">
<title>8&#45;&gt;16</title>
<path fill="none" stroke="grey" stroke-width="2" d="M551.87,-722.29C548.89,-721.46 545.91,-720.68 543,-720 432.94,-694.24 399.01,-709.59 285.46,-684.11"/>
<polygon fill="grey" stroke="grey" stroke-width="2" points="286.22,-680.69 275.69,-681.86 284.65,-687.52 286.22,-680.69"/>
</g>
<!-- 18 -->
<g id="node19" class="node">
<title>18</title>
<path fill="none" stroke="#56c1d8" stroke-width="2" stroke-dasharray="5,2" d="M366.5,-684C366.5,-684 305.5,-684 305.5,-684 299.5,-684 293.5,-678 293.5,-672 293.5,-672 293.5,-660 293.5,-660 293.5,-654 299.5,-648 305.5,-648 305.5,-648 366.5,-648 366.5,-648 372.5,-648 378.5,-654 378.5,-660 378.5,-660 378.5,-672 378.5,-672 378.5,-678 372.5,-684 366.5,-684"/>
<text text-anchor="middle" x="336" y="-663.5" font-family="sans" font-size="10.00">kallisto_quant</text>
</g>
<!-- 8&#45;&gt;18 -->
<g id="edge31" class="edge">
<title>8&#45;&gt;18</title>
<path fill="none" stroke="grey" stroke-width="2" d="M551.79,-722.59C548.83,-721.68 545.87,-720.81 543,-720 477.58,-701.59 457.3,-703.09 388.76,-684.36"/>
<polygon fill="grey" stroke="grey" stroke-width="2" points="389.33,-680.89 378.76,-681.58 387.46,-687.63 389.33,-680.89"/>
</g>
<!-- 20 -->
<g id="node21" class="node">
<title>20</title>
<path fill="none" stroke="#56c1d8" stroke-width="2" stroke-dasharray="5,2" d="M469.5,-684C469.5,-684 408.5,-684 408.5,-684 402.5,-684 396.5,-678 396.5,-672 396.5,-672 396.5,-660 396.5,-660 396.5,-654 402.5,-648 408.5,-648 408.5,-648 469.5,-648 469.5,-648 475.5,-648 481.5,-654 481.5,-660 481.5,-660 481.5,-672 481.5,-672 481.5,-678 475.5,-684 469.5,-684"/>
<text text-anchor="middle" x="439" y="-663.5" font-family="sans" font-size="10.00">kallisto_quant</text>
</g>
<!-- 8&#45;&gt;20 -->
<g id="edge33" class="edge">
<title>8&#45;&gt;20</title>
<path fill="none" stroke="grey" stroke-width="2" d="M556.08,-719.88C534.99,-710.35 508.54,-698.41 486.13,-688.28"/>
<polygon fill="grey" stroke="grey" stroke-width="2" points="487.35,-684.99 476.79,-684.07 484.47,-691.37 487.35,-684.99"/>
</g>
<!-- 22 -->
<g id="node23" class="node">
<title>22</title>
<path fill="none" stroke="#56c1d8" stroke-width="2" d="M572.5,-684C572.5,-684 511.5,-684 511.5,-684 505.5,-684 499.5,-678 499.5,-672 499.5,-672 499.5,-660 499.5,-660 499.5,-654 505.5,-648 511.5,-648 511.5,-648 572.5,-648 572.5,-648 578.5,-648 584.5,-654 584.5,-660 584.5,-660 584.5,-672 584.5,-672 584.5,-678 578.5,-684 572.5,-684"/>
<text text-anchor="middle" x="542" y="-663.5" font-family="sans" font-size="10.00">kallisto_quant</text>
</g>
<!-- 8&#45;&gt;22 -->
<g id="edge35" class="edge">
<title>8&#45;&gt;22</title>
<path fill="none" stroke="grey" stroke-width="2" d="M581.15,-719.7C574.97,-711.39 567.46,-701.28 560.68,-692.14"/>
<polygon fill="grey" stroke="grey" stroke-width="2" points="563.48,-690.04 554.71,-684.1 557.86,-694.22 563.48,-690.04"/>
</g>
<!-- 9 -->
<g id="node10" class="node">
<title>9</title>
<path fill="none" stroke="#d8bc56" stroke-width="2" stroke-dasharray="5,2" d="M1038,-756C1038,-756 942,-756 942,-756 936,-756 930,-750 930,-744 930,-744 930,-732 930,-732 930,-726 936,-720 942,-720 942,-720 1038,-720 1038,-720 1044,-720 1050,-726 1050,-732 1050,-732 1050,-744 1050,-744 1050,-750 1044,-756 1038,-756"/>
<text text-anchor="middle" x="990" y="-741" font-family="sans" font-size="10.00">fastqc</text>
<text text-anchor="middle" x="990" y="-730" font-family="sans" font-size="10.00">sample: ERR6484003</text>
</g>
<!-- 9&#45;&gt;7 -->
<g id="edge22" class="edge">
<title>9&#45;&gt;7</title>
<path fill="none" stroke="grey" stroke-width="2" d="M956,-719.88C937.4,-710.51 914.17,-698.81 894.29,-688.8"/>
<polygon fill="grey" stroke="grey" stroke-width="2" points="895.64,-685.56 885.13,-684.19 892.49,-691.81 895.64,-685.56"/>
</g>
<!-- 10&#45;&gt;6 -->
<g id="edge13" class="edge">
<title>10&#45;&gt;6</title>
<path fill="none" stroke="grey" stroke-width="2" d="M642.23,-647.87C638.31,-623.67 631.1,-579.21 626.44,-550.39"/>
<polygon fill="grey" stroke="grey" stroke-width="2" points="629.84,-549.5 624.78,-540.19 622.93,-550.62 629.84,-549.5"/>
</g>
<!-- 11 -->
<g id="node12" class="node">
<title>11</title>
<path fill="none" stroke="#d8bc56" stroke-width="2" stroke-dasharray="5,2" d="M762,-756C762,-756 666,-756 666,-756 660,-756 654,-750 654,-744 654,-744 654,-732 654,-732 654,-726 660,-720 666,-720 666,-720 762,-720 762,-720 768,-720 774,-726 774,-732 774,-732 774,-744 774,-744 774,-750 768,-756 762,-756"/>
<text text-anchor="middle" x="714" y="-741" font-family="sans" font-size="10.00">fastqc</text>
<text text-anchor="middle" x="714" y="-730" font-family="sans" font-size="10.00">sample: ERR6484009</text>
</g>
<!-- 11&#45;&gt;10 -->
<g id="edge24" class="edge">
<title>11&#45;&gt;10</title>
<path fill="none" stroke="grey" stroke-width="2" d="M696.94,-719.7C688.5,-711.14 678.18,-700.66 668.96,-691.3"/>
<polygon fill="grey" stroke="grey" stroke-width="2" points="671.37,-688.77 661.86,-684.1 666.39,-693.68 671.37,-688.77"/>
</g>
<!-- 12&#45;&gt;6 -->
<g id="edge14" class="edge">
<title>12&#45;&gt;6</title>
<path fill="none" stroke="grey" stroke-width="2" d="M724.47,-647.99C711.75,-638.22 696.21,-625.27 684,-612 665.92,-592.35 648.85,-567.16 637.21,-548.6"/>
<polygon fill="grey" stroke="grey" stroke-width="2" points="640.18,-546.75 631.96,-540.07 634.23,-550.42 640.18,-546.75"/>
</g>
<!-- 13 -->
<g id="node14" class="node">
<title>13</title>
<path fill="none" stroke="#d8bc56" stroke-width="2" stroke-dasharray="5,2" d="M900,-756C900,-756 804,-756 804,-756 798,-756 792,-750 792,-744 792,-744 792,-732 792,-732 792,-726 798,-720 804,-720 804,-720 900,-720 900,-720 906,-720 912,-726 912,-732 912,-732 912,-744 912,-744 912,-750 906,-756 900,-756"/>
<text text-anchor="middle" x="852" y="-741" font-family="sans" font-size="10.00">fastqc</text>
<text text-anchor="middle" x="852" y="-730" font-family="sans" font-size="10.00">sample: ERR6484000</text>
</g>
<!-- 13&#45;&gt;12 -->
<g id="edge26" class="edge">
<title>13&#45;&gt;12</title>
<path fill="none" stroke="grey" stroke-width="2" d="M826.56,-719.88C813.21,-710.89 796.68,-699.76 782.22,-690.03"/>
<polygon fill="grey" stroke="grey" stroke-width="2" points="783.79,-686.87 773.54,-684.19 779.88,-692.68 783.79,-686.87"/>
</g>
<!-- 14&#45;&gt;6 -->
<g id="edge15" class="edge">
<title>14&#45;&gt;6</title>
<path fill="none" stroke="grey" stroke-width="2" d="M911.23,-650.46C908.45,-649.6 905.69,-648.78 903,-648 838.37,-629.35 815.26,-643.82 756,-612 735.22,-600.84 736.1,-589.84 717,-576 701.13,-564.5 682.51,-553.61 665.99,-544.73"/>
<polygon fill="grey" stroke="grey" stroke-width="2" points="667.53,-541.59 657.05,-540.01 664.26,-547.78 667.53,-541.59"/>
</g>
<!-- 15 -->
<g id="node16" class="node">
<title>15</title>
<path fill="none" stroke="#d8bc56" stroke-width="2" stroke-dasharray="5,2" d="M1176,-756C1176,-756 1080,-756 1080,-756 1074,-756 1068,-750 1068,-744 1068,-744 1068,-732 1068,-732 1068,-726 1074,-720 1080,-720 1080,-720 1176,-720 1176,-720 1182,-720 1188,-726 1188,-732 1188,-732 1188,-744 1188,-744 1188,-750 1182,-756 1176,-756"/>
<text text-anchor="middle" x="1128" y="-741" font-family="sans" font-size="10.00">fastqc</text>
<text text-anchor="middle" x="1128" y="-730" font-family="sans" font-size="10.00">sample: ERR6484004</text>
</g>
<!-- 15&#45;&gt;14 -->
<g id="edge28" class="edge">
<title>15&#45;&gt;14</title>
<path fill="none" stroke="grey" stroke-width="2" d="M1085.43,-719.88C1061.44,-710.22 1031.27,-698.09 1005.9,-687.88"/>
<polygon fill="grey" stroke="grey" stroke-width="2" points="1007.01,-684.55 996.43,-684.07 1004.4,-691.05 1007.01,-684.55"/>
</g>
<!-- 16&#45;&gt;6 -->
<g id="edge16" class="edge">
<title>16&#45;&gt;6</title>
<path fill="none" stroke="grey" stroke-width="2" d="M266.69,-647.96C305.58,-628.74 371.8,-597.38 431,-576 468.87,-562.32 512.02,-550.08 547.71,-540.81"/>
<polygon fill="grey" stroke="grey" stroke-width="2" points="548.76,-544.16 557.57,-538.28 547.02,-537.38 548.76,-544.16"/>
</g>
<!-- 17 -->
<g id="node18" class="node">
<title>17</title>
<path fill="none" stroke="#d8bc56" stroke-width="2" stroke-dasharray="5,2" d="M108,-756C108,-756 12,-756 12,-756 6,-756 0,-750 0,-744 0,-744 0,-732 0,-732 0,-726 6,-720 12,-720 12,-720 108,-720 108,-720 114,-720 120,-726 120,-732 120,-732 120,-744 120,-744 120,-750 114,-756 108,-756"/>
<text text-anchor="middle" x="60" y="-741" font-family="sans" font-size="10.00">fastqc</text>
<text text-anchor="middle" x="60" y="-730" font-family="sans" font-size="10.00">sample: ERR6484001</text>
</g>
<!-- 17&#45;&gt;16 -->
<g id="edge30" class="edge">
<title>17&#45;&gt;16</title>
<path fill="none" stroke="grey" stroke-width="2" d="M102.32,-719.88C126.18,-710.22 156.17,-698.09 181.4,-687.88"/>
<polygon fill="grey" stroke="grey" stroke-width="2" points="182.86,-691.06 190.82,-684.07 180.23,-684.57 182.86,-691.06"/>
</g>
<!-- 18&#45;&gt;6 -->
<g id="edge17" class="edge">
<title>18&#45;&gt;6</title>
<path fill="none" stroke="grey" stroke-width="2" d="M367.17,-647.87C400.87,-629.52 456.3,-599.83 505,-576 527.23,-565.12 552.18,-553.71 573.31,-544.28"/>
<polygon fill="grey" stroke="grey" stroke-width="2" points="575.01,-547.35 582.73,-540.09 572.17,-540.96 575.01,-547.35"/>
</g>
<!-- 19 -->
<g id="node20" class="node">
<title>19</title>
<path fill="none" stroke="#d8bc56" stroke-width="2" stroke-dasharray="5,2" d="M246,-756C246,-756 150,-756 150,-756 144,-756 138,-750 138,-744 138,-744 138,-732 138,-732 138,-726 144,-720 150,-720 150,-720 246,-720 246,-720 252,-720 258,-726 258,-732 258,-732 258,-744 258,-744 258,-750 252,-756 246,-756"/>
<text text-anchor="middle" x="198" y="-741" font-family="sans" font-size="10.00">fastqc</text>
<text text-anchor="middle" x="198" y="-730" font-family="sans" font-size="10.00">sample: ERR6483999</text>
</g>
<!-- 19&#45;&gt;18 -->
<g id="edge32" class="edge">
<title>19&#45;&gt;18</title>
<path fill="none" stroke="grey" stroke-width="2" d="M231.76,-719.88C250.22,-710.51 273.28,-698.81 293.02,-688.8"/>
<polygon fill="grey" stroke="grey" stroke-width="2" points="294.78,-691.83 302.11,-684.19 291.61,-685.59 294.78,-691.83"/>
</g>
<!-- 20&#45;&gt;6 -->
<g id="edge18" class="edge">
<title>20&#45;&gt;6</title>
<path fill="none" stroke="grey" stroke-width="2" d="M461.07,-647.87C493.64,-622.6 554.66,-575.25 591.48,-546.68"/>
<polygon fill="grey" stroke="grey" stroke-width="2" points="594.09,-549.08 599.85,-540.19 589.8,-543.55 594.09,-549.08"/>
</g>
<!-- 21 -->
<g id="node22" class="node">
<title>21</title>
<path fill="none" stroke="#d8bc56" stroke-width="2" stroke-dasharray="5,2" d="M384,-756C384,-756 288,-756 288,-756 282,-756 276,-750 276,-744 276,-744 276,-732 276,-732 276,-726 282,-720 288,-720 288,-720 384,-720 384,-720 390,-720 396,-726 396,-732 396,-732 396,-744 396,-744 396,-750 390,-756 384,-756"/>
<text text-anchor="middle" x="336" y="-741" font-family="sans" font-size="10.00">fastqc</text>
<text text-anchor="middle" x="336" y="-730" font-family="sans" font-size="10.00">sample: ERR6484007</text>
</g>
<!-- 21&#45;&gt;20 -->
<g id="edge34" class="edge">
<title>21&#45;&gt;20</title>
<path fill="none" stroke="grey" stroke-width="2" d="M361.2,-719.88C374.41,-710.89 390.79,-699.76 405.11,-690.03"/>
<polygon fill="grey" stroke="grey" stroke-width="2" points="407.4,-692.71 413.71,-684.19 403.47,-686.92 407.4,-692.71"/>
</g>
<!-- 22&#45;&gt;6 -->
<g id="edge19" class="edge">
<title>22&#45;&gt;6</title>
<path fill="none" stroke="grey" stroke-width="2" d="M551.65,-647.87C565.46,-623.35 591,-578.03 607.21,-549.26"/>
<polygon fill="grey" stroke="grey" stroke-width="2" points="610.46,-550.62 612.32,-540.19 604.36,-547.18 610.46,-550.62"/>
</g>
<!-- 23 -->
<g id="node24" class="node">
<title>23</title>
<path fill="none" stroke="#d8bc56" stroke-width="2" stroke-dasharray="5,2" d="M522,-756C522,-756 426,-756 426,-756 420,-756 414,-750 414,-744 414,-744 414,-732 414,-732 414,-726 420,-720 426,-720 426,-720 522,-720 522,-720 528,-720 534,-726 534,-732 534,-732 534,-744 534,-744 534,-750 528,-756 522,-756"/>
<text text-anchor="middle" x="474" y="-741" font-family="sans" font-size="10.00">fastqc</text>
<text text-anchor="middle" x="474" y="-730" font-family="sans" font-size="10.00">sample: ERR6484008</text>
</g>
<!-- 23&#45;&gt;22 -->
<g id="edge36" class="edge">
<title>23&#45;&gt;22</title>
<path fill="none" stroke="grey" stroke-width="2" d="M490.81,-719.7C499.13,-711.14 509.31,-700.66 518.39,-691.3"/>
<polygon fill="grey" stroke="grey" stroke-width="2" points="520.93,-693.72 525.38,-684.1 515.91,-688.84 520.93,-693.72"/>
</g>
<!-- 24&#45;&gt;2 -->
<g id="edge5" class="edge">
<title>24&#45;&gt;2</title>
<path fill="none" stroke="grey" stroke-width="2" d="M854.64,-575.6C859.9,-548.92 869,-496.23 869,-451 869,-451 869,-451 869,-305 869,-213.3 743.15,-180.48 666.22,-168.99"/>
<polygon fill="grey" stroke="grey" stroke-width="2" points="666.57,-165.5 656.18,-167.56 665.59,-172.43 666.57,-165.5"/>
</g>
<!-- 24&#45;&gt;3 -->
<g id="edge9" class="edge">
<title>24&#45;&gt;3</title>
<path fill="none" stroke="grey" stroke-width="2" d="M845.76,-575.97C831.03,-528.09 789.17,-392.06 771.28,-333.9"/>
<polygon fill="grey" stroke="grey" stroke-width="2" points="774.61,-332.83 768.33,-324.31 767.92,-334.89 774.61,-332.83"/>
</g>
<!-- 24&#45;&gt;6 -->
<g id="edge20" class="edge">
<title>24&#45;&gt;6</title>
<path fill="none" stroke="grey" stroke-width="2" d="M795.27,-575.97C762.86,-566.06 721.82,-553.51 687.82,-543.12"/>
<polygon fill="grey" stroke="grey" stroke-width="2" points="688.56,-539.69 677.98,-540.11 686.52,-546.38 688.56,-539.69"/>
</g>
<!-- 25 -->
<g id="node26" class="node">
<title>25</title>
<path fill="none" stroke="#d89c56" stroke-width="2" d="M626,-252C626,-252 590,-252 590,-252 584,-252 578,-246 578,-240 578,-240 578,-228 578,-228 578,-222 584,-216 590,-216 590,-216 626,-216 626,-216 632,-216 638,-222 638,-228 638,-228 638,-240 638,-240 638,-246 632,-252 626,-252"/>
<text text-anchor="middle" x="608" y="-231.5" font-family="sans" font-size="10.00">VST_PCA</text>
</g>
<!-- 25&#45;&gt;2 -->
<g id="edge4" class="edge">
<title>25&#45;&gt;2</title>
<path fill="none" stroke="grey" stroke-width="2" d="M608,-215.7C608,-207.98 608,-198.71 608,-190.11"/>
<polygon fill="grey" stroke="grey" stroke-width="2" points="611.5,-190.1 608,-180.1 604.5,-190.1 611.5,-190.1"/>
</g>
<!-- 26&#45;&gt;25 -->
<g id="edge38" class="edge">
<title>26&#45;&gt;25</title>
<path fill="none" stroke="grey" stroke-width="2" d="M618.54,-287.7C617,-279.98 615.14,-270.71 613.42,-262.11"/>
<polygon fill="grey" stroke="grey" stroke-width="2" points="616.81,-261.22 611.42,-252.1 609.95,-262.6 616.81,-261.22"/>
</g>
<!-- 27 -->
<g id="node28" class="node">
<title>27</title>
<path fill="none" stroke="#88d856" stroke-width="2" stroke-dasharray="5,2" d="M547.5,-324C547.5,-324 474.5,-324 474.5,-324 468.5,-324 462.5,-318 462.5,-312 462.5,-312 462.5,-300 462.5,-300 462.5,-294 468.5,-288 474.5,-288 474.5,-288 547.5,-288 547.5,-288 553.5,-288 559.5,-294 559.5,-300 559.5,-300 559.5,-312 559.5,-312 559.5,-318 553.5,-324 547.5,-324"/>
<text text-anchor="middle" x="511" y="-303.5" font-family="sans" font-size="10.00">move_metadata</text>
</g>
<!-- 27&#45;&gt;2 -->
<g id="edge7" class="edge">
<title>27&#45;&gt;2</title>
<path fill="none" stroke="grey" stroke-width="2" d="M521.83,-287.75C533.28,-269.67 551.98,-240.56 569,-216 575.34,-206.84 582.51,-196.98 588.96,-188.26"/>
<polygon fill="grey" stroke="grey" stroke-width="2" points="591.94,-190.12 595.1,-180.01 586.33,-185.94 591.94,-190.12"/>
</g>
<!-- 27&#45;&gt;25 -->
<g id="edge39" class="edge">
<title>27&#45;&gt;25</title>
<path fill="none" stroke="grey" stroke-width="2" d="M534.98,-287.7C547.31,-278.8 562.52,-267.82 575.85,-258.2"/>
<polygon fill="grey" stroke="grey" stroke-width="2" points="578.24,-260.79 584.3,-252.1 574.14,-255.12 578.24,-260.79"/>
</g>
</g>
</svg>
