<?xml version="1.0" encoding="UTF-8" standalone="no"?>
<!DOCTYPE svg PUBLIC "-//W3C//DTD SVG 1.1//EN"
 "http://www.w3.org/Graphics/SVG/1.1/DTD/svg11.dtd">
<!-- Generated by graphviz version 2.43.0 (0)
 -->
<!-- Title: snakemake_dag Pages: 1 -->
<svg width="668pt" height="332pt"
 viewBox="0.00 0.00 668.00 332.00" xmlns="http://www.w3.org/2000/svg" xmlns:xlink="http://www.w3.org/1999/xlink">
<g id="graph0" class="graph" transform="scale(1 1) rotate(0) translate(4 328)">
<title>snakemake_dag</title>
<polygon fill="white" stroke="transparent" points="-4,4 -4,-328 664,-328 664,4 -4,4"/>
<!-- 0 -->
<g id="node1" class="node">
<title>0</title>
<path fill="none" stroke="#56d8a9" stroke-width="2" d="M361,-36C361,-36 259,-36 259,-36 253,-36 247,-30 247,-24 247,-24 247,-12 247,-12 247,-6 253,0 259,0 259,0 361,0 361,0 367,0 373,-6 373,-12 373,-12 373,-24 373,-24 373,-30 367,-36 361,-36"/>
<text text-anchor="middle" x="310" y="-15.5" font-family="sans" font-size="10.00">aggregation_complete</text>
</g>
<!-- 1 -->
<g id="node2" class="node">
<title>1</title>
<path fill="none" stroke="#afd856" stroke-width="2" d="M167,-108C167,-108 87,-108 87,-108 81,-108 75,-102 75,-96 75,-96 75,-84 75,-84 75,-78 81,-72 87,-72 87,-72 167,-72 167,-72 173,-72 179,-78 179,-84 179,-84 179,-96 179,-96 179,-102 173,-108 167,-108"/>
<text text-anchor="middle" x="127" y="-87.5" font-family="sans" font-size="10.00">aggregate_counts</text>
</g>
<!-- 1&#45;&gt;0 -->
<g id="edge1" class="edge">
<title>1&#45;&gt;0</title>
<path fill="none" stroke="grey" stroke-width="2" d="M171.77,-71.88C197.12,-62.18 229.01,-49.98 255.77,-39.74"/>
<polygon fill="grey" stroke="grey" stroke-width="2" points="257.29,-42.91 265.38,-36.07 254.79,-36.37 257.29,-42.91"/>
</g>
<!-- 2 -->
<g id="node3" class="node">
<title>2</title>
<path fill="none" stroke="#59d856" stroke-width="2" stroke-dasharray="5,2" d="M177.5,-252C177.5,-252 116.5,-252 116.5,-252 110.5,-252 104.5,-246 104.5,-240 104.5,-240 104.5,-228 104.5,-228 104.5,-222 110.5,-216 116.5,-216 116.5,-216 177.5,-216 177.5,-216 183.5,-216 189.5,-222 189.5,-228 189.5,-228 189.5,-240 189.5,-240 189.5,-246 183.5,-252 177.5,-252"/>
<text text-anchor="middle" x="147" y="-231.5" font-family="sans" font-size="10.00">kallisto_quant</text>
</g>
<!-- 2&#45;&gt;1 -->
<g id="edge5" class="edge">
<title>2&#45;&gt;1</title>
<path fill="none" stroke="grey" stroke-width="2" d="M144.59,-215.87C141.18,-191.67 134.92,-147.21 130.86,-118.39"/>
<polygon fill="grey" stroke="grey" stroke-width="2" points="134.28,-117.6 129.42,-108.19 127.35,-118.58 134.28,-117.6"/>
</g>
<!-- 5 -->
<g id="node6" class="node">
<title>5</title>
<path fill="none" stroke="#56a9d8" stroke-width="2" stroke-dasharray="5,2" d="M248.5,-180C248.5,-180 167.5,-180 167.5,-180 161.5,-180 155.5,-174 155.5,-168 155.5,-168 155.5,-156 155.5,-156 155.5,-150 161.5,-144 167.5,-144 167.5,-144 248.5,-144 248.5,-144 254.5,-144 260.5,-150 260.5,-156 260.5,-156 260.5,-168 260.5,-168 260.5,-174 254.5,-180 248.5,-180"/>
<text text-anchor="middle" x="208" y="-159.5" font-family="sans" font-size="10.00">create_blank_files</text>
</g>
<!-- 2&#45;&gt;5 -->
<g id="edge9" class="edge">
<title>2&#45;&gt;5</title>
<path fill="none" stroke="grey" stroke-width="2" d="M162.08,-215.7C169.39,-207.3 178.31,-197.07 186.34,-187.86"/>
<polygon fill="grey" stroke="grey" stroke-width="2" points="189.16,-189.94 193.09,-180.1 183.89,-185.34 189.16,-189.94"/>
</g>
<!-- 3 -->
<g id="node4" class="node">
<title>3</title>
<path fill="none" stroke="#d85656" stroke-width="2" stroke-dasharray="5,2" d="M360,-324C360,-324 300,-324 300,-324 294,-324 288,-318 288,-312 288,-312 288,-300 288,-300 288,-294 294,-288 300,-288 300,-288 360,-288 360,-288 366,-288 372,-294 372,-300 372,-300 372,-312 372,-312 372,-318 366,-324 360,-324"/>
<text text-anchor="middle" x="330" y="-303.5" font-family="sans" font-size="10.00">kallisto_index</text>
</g>
<!-- 3&#45;&gt;2 -->
<g id="edge7" class="edge">
<title>3&#45;&gt;2</title>
<path fill="none" stroke="grey" stroke-width="2" d="M287.56,-288.76C261.2,-278.68 227.15,-265.66 199.16,-254.95"/>
<polygon fill="grey" stroke="grey" stroke-width="2" points="200.12,-251.57 189.53,-251.27 197.62,-258.11 200.12,-251.57"/>
</g>
<!-- 7 -->
<g id="node8" class="node">
<title>7</title>
<path fill="none" stroke="#59d856" stroke-width="2" stroke-dasharray="5,2" d="M308.5,-252C308.5,-252 247.5,-252 247.5,-252 241.5,-252 235.5,-246 235.5,-240 235.5,-240 235.5,-228 235.5,-228 235.5,-222 241.5,-216 247.5,-216 247.5,-216 308.5,-216 308.5,-216 314.5,-216 320.5,-222 320.5,-228 320.5,-228 320.5,-240 320.5,-240 320.5,-246 314.5,-252 308.5,-252"/>
<text text-anchor="middle" x="278" y="-231.5" font-family="sans" font-size="10.00">kallisto_quant</text>
</g>
<!-- 3&#45;&gt;7 -->
<g id="edge12" class="edge">
<title>3&#45;&gt;7</title>
<path fill="none" stroke="grey" stroke-width="2" d="M317.15,-287.7C310.97,-279.39 303.46,-269.28 296.68,-260.14"/>
<polygon fill="grey" stroke="grey" stroke-width="2" points="299.48,-258.04 290.71,-252.1 293.86,-262.22 299.48,-258.04"/>
</g>
<!-- 10 -->
<g id="node11" class="node">
<title>10</title>
<path fill="none" stroke="#59d856" stroke-width="2" stroke-dasharray="5,2" d="M411.5,-252C411.5,-252 350.5,-252 350.5,-252 344.5,-252 338.5,-246 338.5,-240 338.5,-240 338.5,-228 338.5,-228 338.5,-222 344.5,-216 350.5,-216 350.5,-216 411.5,-216 411.5,-216 417.5,-216 423.5,-222 423.5,-228 423.5,-228 423.5,-240 423.5,-240 423.5,-246 417.5,-252 411.5,-252"/>
<text text-anchor="middle" x="381" y="-231.5" font-family="sans" font-size="10.00">kallisto_quant</text>
</g>
<!-- 3&#45;&gt;10 -->
<g id="edge16" class="edge">
<title>3&#45;&gt;10</title>
<path fill="none" stroke="grey" stroke-width="2" d="M342.61,-287.7C348.6,-279.47 355.88,-269.48 362.48,-260.42"/>
<polygon fill="grey" stroke="grey" stroke-width="2" points="365.48,-262.25 368.54,-252.1 359.82,-258.13 365.48,-262.25"/>
</g>
<!-- 13 -->
<g id="node14" class="node">
<title>13</title>
<path fill="none" stroke="#59d856" stroke-width="2" stroke-dasharray="5,2" d="M523.5,-252C523.5,-252 462.5,-252 462.5,-252 456.5,-252 450.5,-246 450.5,-240 450.5,-240 450.5,-228 450.5,-228 450.5,-222 456.5,-216 462.5,-216 462.5,-216 523.5,-216 523.5,-216 529.5,-216 535.5,-222 535.5,-228 535.5,-228 535.5,-240 535.5,-240 535.5,-246 529.5,-252 523.5,-252"/>
<text text-anchor="middle" x="493" y="-231.5" font-family="sans" font-size="10.00">kallisto_quant</text>
</g>
<!-- 3&#45;&gt;13 -->
<g id="edge20" class="edge">
<title>3&#45;&gt;13</title>
<path fill="none" stroke="grey" stroke-width="2" d="M369.87,-287.88C392.16,-278.31 420.12,-266.3 443.76,-256.15"/>
<polygon fill="grey" stroke="grey" stroke-width="2" points="445.45,-259.23 453.26,-252.07 442.69,-252.8 445.45,-259.23"/>
</g>
<!-- 4 -->
<g id="node5" class="node">
<title>4</title>
<path fill="none" stroke="#d8ac56" stroke-width="2" stroke-dasharray="5,2" d="M114,-324C114,-324 12,-324 12,-324 6,-324 0,-318 0,-312 0,-312 0,-300 0,-300 0,-294 6,-288 12,-288 12,-288 114,-288 114,-288 120,-288 126,-294 126,-300 126,-300 126,-312 126,-312 126,-318 120,-324 114,-324"/>
<text text-anchor="middle" x="63" y="-309" font-family="sans" font-size="10.00">fastqc</text>
<text text-anchor="middle" x="63" y="-298" font-family="sans" font-size="10.00">sample: SRR21711077</text>
</g>
<!-- 4&#45;&gt;2 -->
<g id="edge8" class="edge">
<title>4&#45;&gt;2</title>
<path fill="none" stroke="grey" stroke-width="2" d="M83.76,-287.7C94.24,-278.97 107.11,-268.24 118.5,-258.75"/>
<polygon fill="grey" stroke="grey" stroke-width="2" points="121.03,-261.19 126.47,-252.1 116.55,-255.82 121.03,-261.19"/>
</g>
<!-- 5&#45;&gt;1 -->
<g id="edge6" class="edge">
<title>5&#45;&gt;1</title>
<path fill="none" stroke="grey" stroke-width="2" d="M187.98,-143.7C177.87,-134.97 165.46,-124.24 154.48,-114.75"/>
<polygon fill="grey" stroke="grey" stroke-width="2" points="156.65,-111.99 146.79,-108.1 152.07,-117.29 156.65,-111.99"/>
</g>
<!-- 6 -->
<g id="node7" class="node">
<title>6</title>
<path fill="none" stroke="#afd856" stroke-width="2" stroke-dasharray="5,2" d="M289,-108C289,-108 209,-108 209,-108 203,-108 197,-102 197,-96 197,-96 197,-84 197,-84 197,-78 203,-72 209,-72 209,-72 289,-72 289,-72 295,-72 301,-78 301,-84 301,-84 301,-96 301,-96 301,-102 295,-108 289,-108"/>
<text text-anchor="middle" x="249" y="-87.5" font-family="sans" font-size="10.00">aggregate_counts</text>
</g>
<!-- 5&#45;&gt;6 -->
<g id="edge11" class="edge">
<title>5&#45;&gt;6</title>
<path fill="none" stroke="grey" stroke-width="2" d="M218.13,-143.7C222.85,-135.64 228.56,-125.89 233.78,-116.98"/>
<polygon fill="grey" stroke="grey" stroke-width="2" points="236.95,-118.5 238.98,-108.1 230.91,-114.96 236.95,-118.5"/>
</g>
<!-- 9 -->
<g id="node10" class="node">
<title>9</title>
<path fill="none" stroke="#afd856" stroke-width="2" d="M411,-108C411,-108 331,-108 331,-108 325,-108 319,-102 319,-96 319,-96 319,-84 319,-84 319,-78 325,-72 331,-72 331,-72 411,-72 411,-72 417,-72 423,-78 423,-84 423,-84 423,-96 423,-96 423,-102 417,-108 411,-108"/>
<text text-anchor="middle" x="371" y="-87.5" font-family="sans" font-size="10.00">aggregate_counts</text>
</g>
<!-- 5&#45;&gt;9 -->
<g id="edge15" class="edge">
<title>5&#45;&gt;9</title>
<path fill="none" stroke="grey" stroke-width="2" d="M247.87,-143.88C270.16,-134.31 298.12,-122.3 321.76,-112.15"/>
<polygon fill="grey" stroke="grey" stroke-width="2" points="323.45,-115.23 331.26,-108.07 320.69,-108.8 323.45,-115.23"/>
</g>
<!-- 12 -->
<g id="node13" class="node">
<title>12</title>
<path fill="none" stroke="#afd856" stroke-width="2" d="M533,-108C533,-108 453,-108 453,-108 447,-108 441,-102 441,-96 441,-96 441,-84 441,-84 441,-78 447,-72 453,-72 453,-72 533,-72 533,-72 539,-72 545,-78 545,-84 545,-84 545,-96 545,-96 545,-102 539,-108 533,-108"/>
<text text-anchor="middle" x="493" y="-87.5" font-family="sans" font-size="10.00">aggregate_counts</text>
</g>
<!-- 5&#45;&gt;12 -->
<g id="edge19" class="edge">
<title>5&#45;&gt;12</title>
<path fill="none" stroke="grey" stroke-width="2" d="M260.65,-149.16C303.91,-139.29 367.03,-124.57 430.95,-108.23"/>
<polygon fill="grey" stroke="grey" stroke-width="2" points="431.98,-111.57 440.79,-105.7 430.24,-104.79 431.98,-111.57"/>
</g>
<!-- 6&#45;&gt;0 -->
<g id="edge2" class="edge">
<title>6&#45;&gt;0</title>
<path fill="none" stroke="grey" stroke-width="2" d="M264.08,-71.7C271.39,-63.3 280.31,-53.07 288.34,-43.86"/>
<polygon fill="grey" stroke="grey" stroke-width="2" points="291.16,-45.94 295.09,-36.1 285.89,-41.34 291.16,-45.94"/>
</g>
<!-- 7&#45;&gt;6 -->
<g id="edge10" class="edge">
<title>7&#45;&gt;6</title>
<path fill="none" stroke="grey" stroke-width="2" d="M277.91,-215.7C277.47,-197.6 275.81,-168.45 270,-144 267.89,-135.14 264.59,-125.8 261.22,-117.48"/>
<polygon fill="grey" stroke="grey" stroke-width="2" points="264.43,-116.09 257.3,-108.26 257.99,-118.83 264.43,-116.09"/>
</g>
<!-- 8 -->
<g id="node9" class="node">
<title>8</title>
<path fill="none" stroke="#d8ac56" stroke-width="2" stroke-dasharray="5,2" d="M258,-324C258,-324 156,-324 156,-324 150,-324 144,-318 144,-312 144,-312 144,-300 144,-300 144,-294 150,-288 156,-288 156,-288 258,-288 258,-288 264,-288 270,-294 270,-300 270,-300 270,-312 270,-312 270,-318 264,-324 258,-324"/>
<text text-anchor="middle" x="207" y="-309" font-family="sans" font-size="10.00">fastqc</text>
<text text-anchor="middle" x="207" y="-298" font-family="sans" font-size="10.00">sample: SRR21711057</text>
</g>
<!-- 8&#45;&gt;7 -->
<g id="edge13" class="edge">
<title>8&#45;&gt;7</title>
<path fill="none" stroke="grey" stroke-width="2" d="M224.55,-287.7C233.23,-279.14 243.86,-268.66 253.35,-259.3"/>
<polygon fill="grey" stroke="grey" stroke-width="2" points="255.99,-261.62 260.65,-252.1 251.07,-256.63 255.99,-261.62"/>
</g>
<!-- 9&#45;&gt;0 -->
<g id="edge3" class="edge">
<title>9&#45;&gt;0</title>
<path fill="none" stroke="grey" stroke-width="2" d="M355.92,-71.7C348.61,-63.3 339.69,-53.07 331.66,-43.86"/>
<polygon fill="grey" stroke="grey" stroke-width="2" points="334.11,-41.34 324.91,-36.1 328.84,-45.94 334.11,-41.34"/>
</g>
<!-- 10&#45;&gt;9 -->
<g id="edge14" class="edge">
<title>10&#45;&gt;9</title>
<path fill="none" stroke="grey" stroke-width="2" d="M379.79,-215.87C378.09,-191.67 374.96,-147.21 372.93,-118.39"/>
<polygon fill="grey" stroke="grey" stroke-width="2" points="376.4,-117.92 372.21,-108.19 369.42,-118.41 376.4,-117.92"/>
</g>
<!-- 11 -->
<g id="node12" class="node">
<title>11</title>
<path fill="none" stroke="#d8ac56" stroke-width="2" stroke-dasharray="5,2" d="M504,-324C504,-324 402,-324 402,-324 396,-324 390,-318 390,-312 390,-312 390,-300 390,-300 390,-294 396,-288 402,-288 402,-288 504,-288 504,-288 510,-288 516,-294 516,-300 516,-300 516,-312 516,-312 516,-318 510,-324 504,-324"/>
<text text-anchor="middle" x="453" y="-309" font-family="sans" font-size="10.00">fastqc</text>
<text text-anchor="middle" x="453" y="-298" font-family="sans" font-size="10.00">sample: SRR21711073</text>
</g>
<!-- 11&#45;&gt;10 -->
<g id="edge17" class="edge">
<title>11&#45;&gt;10</title>
<path fill="none" stroke="grey" stroke-width="2" d="M435.2,-287.7C426.4,-279.14 415.62,-268.66 406,-259.3"/>
<polygon fill="grey" stroke="grey" stroke-width="2" points="408.2,-256.57 398.59,-252.1 403.32,-261.58 408.2,-256.57"/>
</g>
<!-- 12&#45;&gt;0 -->
<g id="edge4" class="edge">
<title>12&#45;&gt;0</title>
<path fill="none" stroke="grey" stroke-width="2" d="M448.23,-71.88C422.88,-62.18 390.99,-49.98 364.23,-39.74"/>
<polygon fill="grey" stroke="grey" stroke-width="2" points="365.21,-36.37 354.62,-36.07 362.71,-42.91 365.21,-36.37"/>
</g>
<!-- 13&#45;&gt;12 -->
<g id="edge18" class="edge">
<title>13&#45;&gt;12</title>
<path fill="none" stroke="grey" stroke-width="2" d="M493,-215.87C493,-191.67 493,-147.21 493,-118.39"/>
<polygon fill="grey" stroke="grey" stroke-width="2" points="496.5,-118.19 493,-108.19 489.5,-118.19 496.5,-118.19"/>
</g>
<!-- 14 -->
<g id="node15" class="node">
<title>14</title>
<path fill="none" stroke="#d8ac56" stroke-width="2" stroke-dasharray="5,2" d="M648,-324C648,-324 546,-324 546,-324 540,-324 534,-318 534,-312 534,-312 534,-300 534,-300 534,-294 540,-288 546,-288 546,-288 648,-288 648,-288 654,-288 660,-294 660,-300 660,-300 660,-312 660,-312 660,-318 654,-324 648,-324"/>
<text text-anchor="middle" x="597" y="-309" font-family="sans" font-size="10.00">fastqc</text>
<text text-anchor="middle" x="597" y="-298" font-family="sans" font-size="10.00">sample: SRR21711053</text>
</g>
<!-- 14&#45;&gt;13 -->
<g id="edge21" class="edge">
<title>14&#45;&gt;13</title>
<path fill="none" stroke="grey" stroke-width="2" d="M571.56,-287.88C558.21,-278.89 541.68,-267.76 527.22,-258.03"/>
<polygon fill="grey" stroke="grey" stroke-width="2" points="528.79,-254.87 518.54,-252.19 524.88,-260.68 528.79,-254.87"/>
</g>
</g>
</svg>
