<?xml version="1.0" encoding="UTF-8" standalone="no"?>
<!DOCTYPE svg PUBLIC "-//W3C//DTD SVG 1.1//EN"
 "http://www.w3.org/Graphics/SVG/1.1/DTD/svg11.dtd">
<!-- Generated by graphviz version 2.43.0 (0)
 -->
<!-- Title: snakemake_dag Pages: 1 -->
<svg width="1234pt" height="620pt"
 viewBox="0.00 0.00 1234.00 620.00" xmlns="http://www.w3.org/2000/svg" xmlns:xlink="http://www.w3.org/1999/xlink">
<g id="graph0" class="graph" transform="scale(1 1) rotate(0) translate(4 616)">
<title>snakemake_dag</title>
<polygon fill="white" stroke="transparent" points="-4,4 -4,-616 1230,-616 1230,4 -4,4"/>
<!-- 0 -->
<g id="node1" class="node">
<title>0</title>
<path fill="none" stroke="#56d892" stroke-width="2" d="M584.5,-36C584.5,-36 525.5,-36 525.5,-36 519.5,-36 513.5,-30 513.5,-24 513.5,-24 513.5,-12 513.5,-12 513.5,-6 519.5,0 525.5,0 525.5,0 584.5,0 584.5,0 590.5,0 596.5,-6 596.5,-12 596.5,-12 596.5,-24 596.5,-24 596.5,-30 590.5,-36 584.5,-36"/>
<text text-anchor="middle" x="555" y="-15.5" font-family="sans" font-size="10.00">figures_made</text>
</g>
<!-- 1 -->
<g id="node2" class="node">
<title>1</title>
<path fill="none" stroke="#d8a456" stroke-width="2" d="M590,-324C590,-324 458,-324 458,-324 452,-324 446,-318 446,-312 446,-312 446,-300 446,-300 446,-294 452,-288 458,-288 458,-288 590,-288 590,-288 596,-288 602,-294 602,-300 602,-300 602,-312 602,-312 602,-318 596,-324 590,-324"/>
<text text-anchor="middle" x="524" y="-303.5" font-family="sans" font-size="10.00">alignment_summary_figures</text>
</g>
<!-- 1&#45;&gt;0 -->
<g id="edge1" class="edge">
<title>1&#45;&gt;0</title>
<path fill="none" stroke="grey" stroke-width="2" d="M524.86,-287.57C526.42,-257.98 530.11,-196.08 536,-144 539.82,-110.22 545.97,-71.56 550.24,-46.29"/>
<polygon fill="grey" stroke="grey" stroke-width="2" points="553.7,-46.78 551.94,-36.33 546.8,-45.6 553.7,-46.78"/>
</g>
<!-- 2 -->
<g id="node3" class="node">
<title>2</title>
<path fill="none" stroke="#d85656" stroke-width="2" d="M408,-396C408,-396 304,-396 304,-396 298,-396 292,-390 292,-384 292,-384 292,-372 292,-372 292,-366 298,-360 304,-360 304,-360 408,-360 408,-360 414,-360 420,-366 420,-372 420,-372 420,-384 420,-384 420,-390 414,-396 408,-396"/>
<text text-anchor="middle" x="356" y="-375.5" font-family="sans" font-size="10.00">aggregate_tmp_counts</text>
</g>
<!-- 2&#45;&gt;1 -->
<g id="edge3" class="edge">
<title>2&#45;&gt;1</title>
<path fill="none" stroke="grey" stroke-width="2" d="M397.1,-359.88C420.17,-350.26 449.14,-338.19 473.57,-328.01"/>
<polygon fill="grey" stroke="grey" stroke-width="2" points="475.15,-331.15 483.04,-324.07 472.46,-324.68 475.15,-331.15"/>
</g>
<!-- 31 -->
<g id="node32" class="node">
<title>31</title>
<path fill="none" stroke="#56d8b9" stroke-width="2" d="M765.5,-324C765.5,-324 636.5,-324 636.5,-324 630.5,-324 624.5,-318 624.5,-312 624.5,-312 624.5,-300 624.5,-300 624.5,-294 630.5,-288 636.5,-288 636.5,-288 765.5,-288 765.5,-288 771.5,-288 777.5,-294 777.5,-300 777.5,-300 777.5,-312 777.5,-312 777.5,-318 771.5,-324 765.5,-324"/>
<text text-anchor="middle" x="701" y="-303.5" font-family="sans" font-size="10.00">transpose_and_filter_counts</text>
</g>
<!-- 2&#45;&gt;31 -->
<g id="edge49" class="edge">
<title>2&#45;&gt;31</title>
<path fill="none" stroke="grey" stroke-width="2" d="M420.08,-364C474.81,-352.89 554.03,-336.82 614.4,-324.57"/>
<polygon fill="grey" stroke="grey" stroke-width="2" points="615.2,-327.98 624.3,-322.56 613.81,-321.12 615.2,-327.98"/>
</g>
<!-- 3 -->
<g id="node4" class="node">
<title>3</title>
<path fill="none" stroke="#56d86b" stroke-width="2" d="M443.5,-540C443.5,-540 382.5,-540 382.5,-540 376.5,-540 370.5,-534 370.5,-528 370.5,-528 370.5,-516 370.5,-516 370.5,-510 376.5,-504 382.5,-504 382.5,-504 443.5,-504 443.5,-504 449.5,-504 455.5,-510 455.5,-516 455.5,-516 455.5,-528 455.5,-528 455.5,-534 449.5,-540 443.5,-540"/>
<text text-anchor="middle" x="413" y="-519.5" font-family="sans" font-size="10.00">kallisto_quant</text>
</g>
<!-- 3&#45;&gt;2 -->
<g id="edge12" class="edge">
<title>3&#45;&gt;2</title>
<path fill="none" stroke="grey" stroke-width="2" d="M398.02,-503.97C390.06,-494.09 380.77,-481.05 375,-468 366.28,-448.28 361.46,-424.3 358.86,-406.2"/>
<polygon fill="grey" stroke="grey" stroke-width="2" points="362.3,-405.51 357.54,-396.04 355.36,-406.41 362.3,-405.51"/>
</g>
<!-- 6 -->
<g id="node7" class="node">
<title>6</title>
<path fill="none" stroke="#56d0d8" stroke-width="2" d="M545.5,-468C545.5,-468 396.5,-468 396.5,-468 390.5,-468 384.5,-462 384.5,-456 384.5,-456 384.5,-444 384.5,-444 384.5,-438 390.5,-432 396.5,-432 396.5,-432 545.5,-432 545.5,-432 551.5,-432 557.5,-438 557.5,-444 557.5,-444 557.5,-456 557.5,-456 557.5,-462 551.5,-468 545.5,-468"/>
<text text-anchor="middle" x="471" y="-447.5" font-family="sans" font-size="10.00">create_tmp_and_summary_files</text>
</g>
<!-- 3&#45;&gt;6 -->
<g id="edge16" class="edge">
<title>3&#45;&gt;6</title>
<path fill="none" stroke="grey" stroke-width="2" d="M427.34,-503.7C434.29,-495.3 442.77,-485.07 450.4,-475.86"/>
<polygon fill="grey" stroke="grey" stroke-width="2" points="453.14,-478.04 456.83,-468.1 447.75,-473.57 453.14,-478.04"/>
</g>
<!-- 4 -->
<g id="node5" class="node">
<title>4</title>
<path fill="none" stroke="#567bd8" stroke-width="2" stroke-dasharray="5,2" d="M635,-612C635,-612 575,-612 575,-612 569,-612 563,-606 563,-600 563,-600 563,-588 563,-588 563,-582 569,-576 575,-576 575,-576 635,-576 635,-576 641,-576 647,-582 647,-588 647,-588 647,-600 647,-600 647,-606 641,-612 635,-612"/>
<text text-anchor="middle" x="605" y="-591.5" font-family="sans" font-size="10.00">kallisto_index</text>
</g>
<!-- 4&#45;&gt;3 -->
<g id="edge14" class="edge">
<title>4&#45;&gt;3</title>
<path fill="none" stroke="grey" stroke-width="2" d="M562.86,-577.64C534.18,-567.18 496,-553.26 465.36,-542.09"/>
<polygon fill="grey" stroke="grey" stroke-width="2" points="466.29,-538.7 455.7,-538.57 463.9,-545.28 466.29,-538.7"/>
</g>
<!-- 8 -->
<g id="node9" class="node">
<title>8</title>
<path fill="none" stroke="#56d86b" stroke-width="2" d="M862.5,-540C862.5,-540 801.5,-540 801.5,-540 795.5,-540 789.5,-534 789.5,-528 789.5,-528 789.5,-516 789.5,-516 789.5,-510 795.5,-504 801.5,-504 801.5,-504 862.5,-504 862.5,-504 868.5,-504 874.5,-510 874.5,-516 874.5,-516 874.5,-528 874.5,-528 874.5,-534 868.5,-540 862.5,-540"/>
<text text-anchor="middle" x="832" y="-519.5" font-family="sans" font-size="10.00">kallisto_quant</text>
</g>
<!-- 4&#45;&gt;8 -->
<g id="edge19" class="edge">
<title>4&#45;&gt;8</title>
<path fill="none" stroke="grey" stroke-width="2" d="M647.27,-578.8C650.22,-577.85 653.15,-576.9 656,-576 697.25,-562.92 744.19,-548.82 779.21,-538.46"/>
<polygon fill="grey" stroke="grey" stroke-width="2" points="780.62,-541.69 789.22,-535.5 778.63,-534.98 780.62,-541.69"/>
</g>
<!-- 11 -->
<g id="node12" class="node">
<title>11</title>
<path fill="none" stroke="#56d86b" stroke-width="2" d="M100.5,-540C100.5,-540 39.5,-540 39.5,-540 33.5,-540 27.5,-534 27.5,-528 27.5,-528 27.5,-516 27.5,-516 27.5,-510 33.5,-504 39.5,-504 39.5,-504 100.5,-504 100.5,-504 106.5,-504 112.5,-510 112.5,-516 112.5,-516 112.5,-528 112.5,-528 112.5,-534 106.5,-540 100.5,-540"/>
<text text-anchor="middle" x="70" y="-519.5" font-family="sans" font-size="10.00">kallisto_quant</text>
</g>
<!-- 4&#45;&gt;11 -->
<g id="edge23" class="edge">
<title>4&#45;&gt;11</title>
<path fill="none" stroke="grey" stroke-width="2" d="M562.91,-578.13C559.91,-577.34 556.92,-576.61 554,-576 381.02,-539.82 332.98,-564.79 158,-540 146.56,-538.38 134.35,-536.27 122.79,-534.09"/>
<polygon fill="grey" stroke="grey" stroke-width="2" points="123.31,-530.62 112.82,-532.17 121.98,-537.5 123.31,-530.62"/>
</g>
<!-- 14 -->
<g id="node15" class="node">
<title>14</title>
<path fill="none" stroke="#56d86b" stroke-width="2" d="M1008.5,-540C1008.5,-540 947.5,-540 947.5,-540 941.5,-540 935.5,-534 935.5,-528 935.5,-528 935.5,-516 935.5,-516 935.5,-510 941.5,-504 947.5,-504 947.5,-504 1008.5,-504 1008.5,-504 1014.5,-504 1020.5,-510 1020.5,-516 1020.5,-516 1020.5,-528 1020.5,-528 1020.5,-534 1014.5,-540 1008.5,-540"/>
<text text-anchor="middle" x="978" y="-519.5" font-family="sans" font-size="10.00">kallisto_quant</text>
</g>
<!-- 4&#45;&gt;14 -->
<g id="edge27" class="edge">
<title>4&#45;&gt;14</title>
<path fill="none" stroke="grey" stroke-width="2" d="M647.14,-578.36C650.13,-577.5 653.1,-576.71 656,-576 755.67,-551.7 782.85,-557.13 884,-540 897.42,-537.73 911.9,-535.16 925.38,-532.73"/>
<polygon fill="grey" stroke="grey" stroke-width="2" points="926.24,-536.13 935.45,-530.9 924.99,-529.24 926.24,-536.13"/>
</g>
<!-- 17 -->
<g id="node18" class="node">
<title>17</title>
<path fill="none" stroke="#56d86b" stroke-width="2" d="M1180.5,-540C1180.5,-540 1119.5,-540 1119.5,-540 1113.5,-540 1107.5,-534 1107.5,-528 1107.5,-528 1107.5,-516 1107.5,-516 1107.5,-510 1113.5,-504 1119.5,-504 1119.5,-504 1180.5,-504 1180.5,-504 1186.5,-504 1192.5,-510 1192.5,-516 1192.5,-516 1192.5,-528 1192.5,-528 1192.5,-534 1186.5,-540 1180.5,-540"/>
<text text-anchor="middle" x="1150" y="-519.5" font-family="sans" font-size="10.00">kallisto_quant</text>
</g>
<!-- 4&#45;&gt;17 -->
<g id="edge31" class="edge">
<title>4&#45;&gt;17</title>
<path fill="none" stroke="grey" stroke-width="2" d="M647.1,-578.15C650.09,-577.35 653.08,-576.62 656,-576 819.36,-541.38 864.18,-559.72 1030,-540 1052.09,-537.37 1076.39,-534.02 1097.32,-530.98"/>
<polygon fill="grey" stroke="grey" stroke-width="2" points="1097.91,-534.43 1107.3,-529.52 1096.89,-527.51 1097.91,-534.43"/>
</g>
<!-- 20 -->
<g id="node21" class="node">
<title>20</title>
<path fill="none" stroke="#56d86b" stroke-width="2" d="M240.5,-540C240.5,-540 179.5,-540 179.5,-540 173.5,-540 167.5,-534 167.5,-528 167.5,-528 167.5,-516 167.5,-516 167.5,-510 173.5,-504 179.5,-504 179.5,-504 240.5,-504 240.5,-504 246.5,-504 252.5,-510 252.5,-516 252.5,-516 252.5,-528 252.5,-528 252.5,-534 246.5,-540 240.5,-540"/>
<text text-anchor="middle" x="210" y="-519.5" font-family="sans" font-size="10.00">kallisto_quant</text>
</g>
<!-- 4&#45;&gt;20 -->
<g id="edge35" class="edge">
<title>4&#45;&gt;20</title>
<path fill="none" stroke="grey" stroke-width="2" d="M562.86,-578.34C559.88,-577.49 556.9,-576.7 554,-576 452.19,-551.37 330.52,-535.8 262.58,-528.31"/>
<polygon fill="grey" stroke="grey" stroke-width="2" points="262.87,-524.82 252.55,-527.22 262.11,-531.78 262.87,-524.82"/>
</g>
<!-- 23 -->
<g id="node24" class="node">
<title>23</title>
<path fill="none" stroke="#56d86b" stroke-width="2" d="M615.5,-540C615.5,-540 554.5,-540 554.5,-540 548.5,-540 542.5,-534 542.5,-528 542.5,-528 542.5,-516 542.5,-516 542.5,-510 548.5,-504 554.5,-504 554.5,-504 615.5,-504 615.5,-504 621.5,-504 627.5,-510 627.5,-516 627.5,-516 627.5,-528 627.5,-528 627.5,-534 621.5,-540 615.5,-540"/>
<text text-anchor="middle" x="585" y="-519.5" font-family="sans" font-size="10.00">kallisto_quant</text>
</g>
<!-- 4&#45;&gt;23 -->
<g id="edge39" class="edge">
<title>4&#45;&gt;23</title>
<path fill="none" stroke="grey" stroke-width="2" d="M600.06,-575.7C597.83,-567.9 595.15,-558.51 592.67,-549.83"/>
<polygon fill="grey" stroke="grey" stroke-width="2" points="596,-548.76 589.89,-540.1 589.27,-550.68 596,-548.76"/>
</g>
<!-- 26 -->
<g id="node27" class="node">
<title>26</title>
<path fill="none" stroke="#56d86b" stroke-width="2" d="M718.5,-540C718.5,-540 657.5,-540 657.5,-540 651.5,-540 645.5,-534 645.5,-528 645.5,-528 645.5,-516 645.5,-516 645.5,-510 651.5,-504 657.5,-504 657.5,-504 718.5,-504 718.5,-504 724.5,-504 730.5,-510 730.5,-516 730.5,-516 730.5,-528 730.5,-528 730.5,-534 724.5,-540 718.5,-540"/>
<text text-anchor="middle" x="688" y="-519.5" font-family="sans" font-size="10.00">kallisto_quant</text>
</g>
<!-- 4&#45;&gt;26 -->
<g id="edge43" class="edge">
<title>4&#45;&gt;26</title>
<path fill="none" stroke="grey" stroke-width="2" d="M625.52,-575.7C635.87,-566.97 648.59,-556.24 659.84,-546.75"/>
<polygon fill="grey" stroke="grey" stroke-width="2" points="662.33,-549.23 667.72,-540.1 657.82,-543.88 662.33,-549.23"/>
</g>
<!-- 5 -->
<g id="node6" class="node">
<title>5</title>
<path fill="none" stroke="#68d856" stroke-width="2" stroke-dasharray="5,2" d="M395,-612C395,-612 299,-612 299,-612 293,-612 287,-606 287,-600 287,-600 287,-588 287,-588 287,-582 293,-576 299,-576 299,-576 395,-576 395,-576 401,-576 407,-582 407,-588 407,-588 407,-600 407,-600 407,-606 401,-612 395,-612"/>
<text text-anchor="middle" x="347" y="-597" font-family="sans" font-size="10.00">fastqc</text>
<text text-anchor="middle" x="347" y="-586" font-family="sans" font-size="10.00">sample: ERR6484003</text>
</g>
<!-- 5&#45;&gt;3 -->
<g id="edge15" class="edge">
<title>5&#45;&gt;3</title>
<path fill="none" stroke="grey" stroke-width="2" d="M363.31,-575.7C371.31,-567.22 381.07,-556.86 389.82,-547.58"/>
<polygon fill="grey" stroke="grey" stroke-width="2" points="392.56,-549.78 396.87,-540.1 387.47,-544.98 392.56,-549.78"/>
</g>
<!-- 6&#45;&gt;1 -->
<g id="edge11" class="edge">
<title>6&#45;&gt;1</title>
<path fill="none" stroke="grey" stroke-width="2" d="M465.9,-431.79C461.36,-413.24 456.87,-383.25 467,-360 471.93,-348.68 480.61,-338.68 489.73,-330.51"/>
<polygon fill="grey" stroke="grey" stroke-width="2" points="491.99,-333.19 497.42,-324.09 487.5,-327.81 491.99,-333.19"/>
</g>
<!-- 6&#45;&gt;2 -->
<g id="edge13" class="edge">
<title>6&#45;&gt;2</title>
<path fill="none" stroke="grey" stroke-width="2" d="M442.87,-431.88C427.83,-422.72 409.13,-411.34 392.94,-401.48"/>
<polygon fill="grey" stroke="grey" stroke-width="2" points="394.6,-398.4 384.24,-396.19 390.96,-404.38 394.6,-398.4"/>
</g>
<!-- 7 -->
<g id="node8" class="node">
<title>7</title>
<path fill="none" stroke="#d85656" stroke-width="2" d="M884,-396C884,-396 780,-396 780,-396 774,-396 768,-390 768,-384 768,-384 768,-372 768,-372 768,-366 774,-360 780,-360 780,-360 884,-360 884,-360 890,-360 896,-366 896,-372 896,-372 896,-384 896,-384 896,-390 890,-396 884,-396"/>
<text text-anchor="middle" x="832" y="-375.5" font-family="sans" font-size="10.00">aggregate_tmp_counts</text>
</g>
<!-- 6&#45;&gt;7 -->
<g id="edge18" class="edge">
<title>6&#45;&gt;7</title>
<path fill="none" stroke="grey" stroke-width="2" d="M557.53,-434.17C612.37,-424.51 685,-411.25 758.1,-396.14"/>
<polygon fill="grey" stroke="grey" stroke-width="2" points="758.86,-399.56 767.94,-394.1 757.44,-392.7 758.86,-399.56"/>
</g>
<!-- 10 -->
<g id="node11" class="node">
<title>10</title>
<path fill="none" stroke="#d85656" stroke-width="2" d="M116,-396C116,-396 12,-396 12,-396 6,-396 0,-390 0,-384 0,-384 0,-372 0,-372 0,-366 6,-360 12,-360 12,-360 116,-360 116,-360 122,-360 128,-366 128,-372 128,-372 128,-384 128,-384 128,-390 122,-396 116,-396"/>
<text text-anchor="middle" x="64" y="-375.5" font-family="sans" font-size="10.00">aggregate_tmp_counts</text>
</g>
<!-- 6&#45;&gt;10 -->
<g id="edge22" class="edge">
<title>6&#45;&gt;10</title>
<path fill="none" stroke="grey" stroke-width="2" d="M384.2,-436.96C319.05,-427.52 227.45,-413.4 138.08,-396.14"/>
<polygon fill="grey" stroke="grey" stroke-width="2" points="138.52,-392.66 128.04,-394.19 137.19,-399.53 138.52,-392.66"/>
</g>
<!-- 13 -->
<g id="node14" class="node">
<title>13</title>
<path fill="none" stroke="#d85656" stroke-width="2" d="M1030,-396C1030,-396 926,-396 926,-396 920,-396 914,-390 914,-384 914,-384 914,-372 914,-372 914,-366 920,-360 926,-360 926,-360 1030,-360 1030,-360 1036,-360 1042,-366 1042,-372 1042,-372 1042,-384 1042,-384 1042,-390 1036,-396 1030,-396"/>
<text text-anchor="middle" x="978" y="-375.5" font-family="sans" font-size="10.00">aggregate_tmp_counts</text>
</g>
<!-- 6&#45;&gt;13 -->
<g id="edge26" class="edge">
<title>6&#45;&gt;13</title>
<path fill="none" stroke="grey" stroke-width="2" d="M557.87,-441.16C643.46,-432.8 778.08,-417.97 903.79,-396.11"/>
<polygon fill="grey" stroke="grey" stroke-width="2" points="904.74,-399.5 913.99,-394.32 903.53,-392.6 904.74,-399.5"/>
</g>
<!-- 16 -->
<g id="node17" class="node">
<title>16</title>
<path fill="none" stroke="#d85656" stroke-width="2" d="M1214,-396C1214,-396 1110,-396 1110,-396 1104,-396 1098,-390 1098,-384 1098,-384 1098,-372 1098,-372 1098,-366 1104,-360 1110,-360 1110,-360 1214,-360 1214,-360 1220,-360 1226,-366 1226,-372 1226,-372 1226,-384 1226,-384 1226,-390 1220,-396 1214,-396"/>
<text text-anchor="middle" x="1162" y="-375.5" font-family="sans" font-size="10.00">aggregate_tmp_counts</text>
</g>
<!-- 6&#45;&gt;16 -->
<g id="edge30" class="edge">
<title>6&#45;&gt;16</title>
<path fill="none" stroke="grey" stroke-width="2" d="M557.7,-445.01C676.84,-438.74 897.59,-424.25 1084,-396 1085.27,-395.81 1086.55,-395.61 1087.84,-395.4"/>
<polygon fill="grey" stroke="grey" stroke-width="2" points="1088.59,-398.82 1097.85,-393.67 1087.4,-391.92 1088.59,-398.82"/>
</g>
<!-- 19 -->
<g id="node20" class="node">
<title>19</title>
<path fill="none" stroke="#d85656" stroke-width="2" d="M262,-396C262,-396 158,-396 158,-396 152,-396 146,-390 146,-384 146,-384 146,-372 146,-372 146,-366 152,-360 158,-360 158,-360 262,-360 262,-360 268,-360 274,-366 274,-372 274,-372 274,-384 274,-384 274,-390 268,-396 262,-396"/>
<text text-anchor="middle" x="210" y="-375.5" font-family="sans" font-size="10.00">aggregate_tmp_counts</text>
</g>
<!-- 6&#45;&gt;19 -->
<g id="edge34" class="edge">
<title>6&#45;&gt;19</title>
<path fill="none" stroke="grey" stroke-width="2" d="M407.49,-431.97C370.07,-421.93 322.57,-409.19 283.53,-398.72"/>
<polygon fill="grey" stroke="grey" stroke-width="2" points="284.36,-395.32 273.8,-396.11 282.55,-402.08 284.36,-395.32"/>
</g>
<!-- 22 -->
<g id="node23" class="node">
<title>22</title>
<path fill="none" stroke="#d85656" stroke-width="2" d="M592,-396C592,-396 488,-396 488,-396 482,-396 476,-390 476,-384 476,-384 476,-372 476,-372 476,-366 482,-360 488,-360 488,-360 592,-360 592,-360 598,-360 604,-366 604,-372 604,-372 604,-384 604,-384 604,-390 598,-396 592,-396"/>
<text text-anchor="middle" x="540" y="-375.5" font-family="sans" font-size="10.00">aggregate_tmp_counts</text>
</g>
<!-- 6&#45;&gt;22 -->
<g id="edge38" class="edge">
<title>6&#45;&gt;22</title>
<path fill="none" stroke="grey" stroke-width="2" d="M488.06,-431.7C496.5,-423.14 506.82,-412.66 516.04,-403.3"/>
<polygon fill="grey" stroke="grey" stroke-width="2" points="518.61,-405.68 523.14,-396.1 513.63,-400.77 518.61,-405.68"/>
</g>
<!-- 25 -->
<g id="node26" class="node">
<title>25</title>
<path fill="none" stroke="#d85656" stroke-width="2" d="M738,-396C738,-396 634,-396 634,-396 628,-396 622,-390 622,-384 622,-384 622,-372 622,-372 622,-366 628,-360 634,-360 634,-360 738,-360 738,-360 744,-360 750,-366 750,-372 750,-372 750,-384 750,-384 750,-390 744,-396 738,-396"/>
<text text-anchor="middle" x="686" y="-375.5" font-family="sans" font-size="10.00">aggregate_tmp_counts</text>
</g>
<!-- 6&#45;&gt;25 -->
<g id="edge42" class="edge">
<title>6&#45;&gt;25</title>
<path fill="none" stroke="grey" stroke-width="2" d="M523.32,-431.97C553.62,-422.1 591.95,-409.62 623.79,-399.25"/>
<polygon fill="grey" stroke="grey" stroke-width="2" points="625.02,-402.53 633.45,-396.11 622.85,-395.88 625.02,-402.53"/>
</g>
<!-- 6&#45;&gt;31 -->
<g id="edge57" class="edge">
<title>6&#45;&gt;31</title>
<path fill="none" stroke="grey" stroke-width="2" d="M557.59,-447.39C711.21,-443.63 1018.43,-431.68 1051,-396 1061.79,-384.18 1061.43,-372.13 1051,-360 1017.74,-321.32 880.41,-310.52 787.98,-307.7"/>
<polygon fill="grey" stroke="grey" stroke-width="2" points="787.88,-304.2 777.79,-307.42 787.69,-311.2 787.88,-304.2"/>
</g>
<!-- 7&#45;&gt;1 -->
<g id="edge4" class="edge">
<title>7&#45;&gt;1</title>
<path fill="none" stroke="grey" stroke-width="2" d="M767.91,-362.05C764.9,-361.35 761.92,-360.67 759,-360 709.73,-348.71 654.6,-336.26 610.13,-326.27"/>
<polygon fill="grey" stroke="grey" stroke-width="2" points="610.76,-322.83 600.23,-324.05 609.22,-329.66 610.76,-322.83"/>
</g>
<!-- 7&#45;&gt;31 -->
<g id="edge50" class="edge">
<title>7&#45;&gt;31</title>
<path fill="none" stroke="grey" stroke-width="2" d="M799.95,-359.88C782.51,-350.55 760.73,-338.92 742.06,-328.94"/>
<polygon fill="grey" stroke="grey" stroke-width="2" points="743.64,-325.82 733.17,-324.19 740.34,-331.99 743.64,-325.82"/>
</g>
<!-- 8&#45;&gt;7 -->
<g id="edge17" class="edge">
<title>8&#45;&gt;7</title>
<path fill="none" stroke="grey" stroke-width="2" d="M832,-503.87C832,-479.67 832,-435.21 832,-406.39"/>
<polygon fill="grey" stroke="grey" stroke-width="2" points="835.5,-406.19 832,-396.19 828.5,-406.19 835.5,-406.19"/>
</g>
<!-- 9 -->
<g id="node10" class="node">
<title>9</title>
<path fill="none" stroke="#68d856" stroke-width="2" stroke-dasharray="5,2" d="M911,-612C911,-612 815,-612 815,-612 809,-612 803,-606 803,-600 803,-600 803,-588 803,-588 803,-582 809,-576 815,-576 815,-576 911,-576 911,-576 917,-576 923,-582 923,-588 923,-588 923,-600 923,-600 923,-606 917,-612 911,-612"/>
<text text-anchor="middle" x="863" y="-597" font-family="sans" font-size="10.00">fastqc</text>
<text text-anchor="middle" x="863" y="-586" font-family="sans" font-size="10.00">sample: ERR6484009</text>
</g>
<!-- 9&#45;&gt;8 -->
<g id="edge20" class="edge">
<title>9&#45;&gt;8</title>
<path fill="none" stroke="grey" stroke-width="2" d="M855.34,-575.7C851.81,-567.73 847.54,-558.1 843.63,-549.26"/>
<polygon fill="grey" stroke="grey" stroke-width="2" points="846.82,-547.83 839.57,-540.1 840.42,-550.67 846.82,-547.83"/>
</g>
<!-- 10&#45;&gt;1 -->
<g id="edge5" class="edge">
<title>10&#45;&gt;1</title>
<path fill="none" stroke="grey" stroke-width="2" d="M128.02,-361.74C131.05,-361.13 134.06,-360.54 137,-360 238.8,-341.22 356.79,-325.99 435.47,-316.76"/>
<polygon fill="grey" stroke="grey" stroke-width="2" points="436.3,-320.18 445.83,-315.55 435.49,-313.23 436.3,-320.18"/>
</g>
<!-- 10&#45;&gt;31 -->
<g id="edge51" class="edge">
<title>10&#45;&gt;31</title>
<path fill="none" stroke="grey" stroke-width="2" d="M128.38,-361.44C131.29,-360.92 134.17,-360.43 137,-360 345.83,-327.95 401.54,-351.65 611,-324 612.1,-323.85 613.21,-323.7 614.33,-323.55"/>
<polygon fill="grey" stroke="grey" stroke-width="2" points="615.12,-326.97 624.5,-322.05 614.09,-320.05 615.12,-326.97"/>
</g>
<!-- 11&#45;&gt;10 -->
<g id="edge21" class="edge">
<title>11&#45;&gt;10</title>
<path fill="none" stroke="grey" stroke-width="2" d="M69.28,-503.87C68.25,-479.67 66.38,-435.21 65.16,-406.39"/>
<polygon fill="grey" stroke="grey" stroke-width="2" points="68.65,-406.03 64.73,-396.19 61.65,-406.33 68.65,-406.03"/>
</g>
<!-- 12 -->
<g id="node13" class="node">
<title>12</title>
<path fill="none" stroke="#68d856" stroke-width="2" stroke-dasharray="5,2" d="M118,-612C118,-612 22,-612 22,-612 16,-612 10,-606 10,-600 10,-600 10,-588 10,-588 10,-582 16,-576 22,-576 22,-576 118,-576 118,-576 124,-576 130,-582 130,-588 130,-588 130,-600 130,-600 130,-606 124,-612 118,-612"/>
<text text-anchor="middle" x="70" y="-597" font-family="sans" font-size="10.00">fastqc</text>
<text text-anchor="middle" x="70" y="-586" font-family="sans" font-size="10.00">sample: ERR6484000</text>
</g>
<!-- 12&#45;&gt;11 -->
<g id="edge24" class="edge">
<title>12&#45;&gt;11</title>
<path fill="none" stroke="grey" stroke-width="2" d="M70,-575.7C70,-567.98 70,-558.71 70,-550.11"/>
<polygon fill="grey" stroke="grey" stroke-width="2" points="73.5,-550.1 70,-540.1 66.5,-550.1 73.5,-550.1"/>
</g>
<!-- 13&#45;&gt;1 -->
<g id="edge6" class="edge">
<title>13&#45;&gt;1</title>
<path fill="none" stroke="grey" stroke-width="2" d="M913.98,-361.69C910.95,-361.09 907.95,-360.52 905,-360 777.13,-337.24 743.34,-343.93 615,-324 614.1,-323.86 613.19,-323.72 612.28,-323.57"/>
<polygon fill="grey" stroke="grey" stroke-width="2" points="612.81,-320.11 602.38,-321.96 611.68,-327.02 612.81,-320.11"/>
</g>
<!-- 13&#45;&gt;31 -->
<g id="edge52" class="edge">
<title>13&#45;&gt;31</title>
<path fill="none" stroke="grey" stroke-width="2" d="M913.75,-360.76C873.28,-350.54 820.78,-337.27 778.07,-326.48"/>
<polygon fill="grey" stroke="grey" stroke-width="2" points="778.83,-323.06 768.27,-324 777.11,-329.84 778.83,-323.06"/>
</g>
<!-- 14&#45;&gt;13 -->
<g id="edge25" class="edge">
<title>14&#45;&gt;13</title>
<path fill="none" stroke="grey" stroke-width="2" d="M978,-503.87C978,-479.67 978,-435.21 978,-406.39"/>
<polygon fill="grey" stroke="grey" stroke-width="2" points="981.5,-406.19 978,-396.19 974.5,-406.19 981.5,-406.19"/>
</g>
<!-- 15 -->
<g id="node16" class="node">
<title>15</title>
<path fill="none" stroke="#68d856" stroke-width="2" stroke-dasharray="5,2" d="M1049,-612C1049,-612 953,-612 953,-612 947,-612 941,-606 941,-600 941,-600 941,-588 941,-588 941,-582 947,-576 953,-576 953,-576 1049,-576 1049,-576 1055,-576 1061,-582 1061,-588 1061,-588 1061,-600 1061,-600 1061,-606 1055,-612 1049,-612"/>
<text text-anchor="middle" x="1001" y="-597" font-family="sans" font-size="10.00">fastqc</text>
<text text-anchor="middle" x="1001" y="-586" font-family="sans" font-size="10.00">sample: ERR6484004</text>
</g>
<!-- 15&#45;&gt;14 -->
<g id="edge28" class="edge">
<title>15&#45;&gt;14</title>
<path fill="none" stroke="grey" stroke-width="2" d="M995.31,-575.7C992.75,-567.9 989.67,-558.51 986.82,-549.83"/>
<polygon fill="grey" stroke="grey" stroke-width="2" points="990.07,-548.51 983.62,-540.1 983.42,-550.7 990.07,-548.51"/>
</g>
<!-- 16&#45;&gt;1 -->
<g id="edge7" class="edge">
<title>16&#45;&gt;1</title>
<path fill="none" stroke="grey" stroke-width="2" d="M1097.83,-366.4C1082.51,-364.08 1066.2,-361.79 1051,-360 857.9,-337.27 807.71,-349.89 615,-324 614.09,-323.88 613.18,-323.75 612.27,-323.63"/>
<polygon fill="grey" stroke="grey" stroke-width="2" points="612.75,-320.16 602.35,-322.16 611.73,-327.08 612.75,-320.16"/>
</g>
<!-- 16&#45;&gt;31 -->
<g id="edge53" class="edge">
<title>16&#45;&gt;31</title>
<path fill="none" stroke="grey" stroke-width="2" d="M1097.8,-362.6C1093.14,-361.68 1088.5,-360.8 1084,-360 982.8,-342 865.64,-326.57 787.81,-317.08"/>
<polygon fill="grey" stroke="grey" stroke-width="2" points="787.92,-313.56 777.57,-315.83 787.08,-320.51 787.92,-313.56"/>
</g>
<!-- 17&#45;&gt;16 -->
<g id="edge29" class="edge">
<title>17&#45;&gt;16</title>
<path fill="none" stroke="grey" stroke-width="2" d="M1151.45,-503.87C1153.49,-479.67 1157.25,-435.21 1159.69,-406.39"/>
<polygon fill="grey" stroke="grey" stroke-width="2" points="1163.19,-406.45 1160.55,-396.19 1156.22,-405.86 1163.19,-406.45"/>
</g>
<!-- 18 -->
<g id="node19" class="node">
<title>18</title>
<path fill="none" stroke="#68d856" stroke-width="2" stroke-dasharray="5,2" d="M1198,-612C1198,-612 1102,-612 1102,-612 1096,-612 1090,-606 1090,-600 1090,-600 1090,-588 1090,-588 1090,-582 1096,-576 1102,-576 1102,-576 1198,-576 1198,-576 1204,-576 1210,-582 1210,-588 1210,-588 1210,-600 1210,-600 1210,-606 1204,-612 1198,-612"/>
<text text-anchor="middle" x="1150" y="-597" font-family="sans" font-size="10.00">fastqc</text>
<text text-anchor="middle" x="1150" y="-586" font-family="sans" font-size="10.00">sample: ERR6484001</text>
</g>
<!-- 18&#45;&gt;17 -->
<g id="edge32" class="edge">
<title>18&#45;&gt;17</title>
<path fill="none" stroke="grey" stroke-width="2" d="M1150,-575.7C1150,-567.98 1150,-558.71 1150,-550.11"/>
<polygon fill="grey" stroke="grey" stroke-width="2" points="1153.5,-550.1 1150,-540.1 1146.5,-550.1 1153.5,-550.1"/>
</g>
<!-- 19&#45;&gt;1 -->
<g id="edge8" class="edge">
<title>19&#45;&gt;1</title>
<path fill="none" stroke="grey" stroke-width="2" d="M274.08,-362.03C277.1,-361.34 280.08,-360.66 283,-360 333.6,-348.54 390.27,-336.06 435.93,-326.09"/>
<polygon fill="grey" stroke="grey" stroke-width="2" points="436.77,-329.49 445.8,-323.94 435.28,-322.65 436.77,-329.49"/>
</g>
<!-- 19&#45;&gt;31 -->
<g id="edge54" class="edge">
<title>19&#45;&gt;31</title>
<path fill="none" stroke="grey" stroke-width="2" d="M274.01,-361.64C277.04,-361.05 280.05,-360.5 283,-360 427.56,-335.32 465.95,-345.63 611,-324 612.1,-323.84 613.21,-323.67 614.32,-323.5"/>
<polygon fill="grey" stroke="grey" stroke-width="2" points="615.15,-326.91 624.47,-321.87 614.05,-320 615.15,-326.91"/>
</g>
<!-- 20&#45;&gt;19 -->
<g id="edge33" class="edge">
<title>20&#45;&gt;19</title>
<path fill="none" stroke="grey" stroke-width="2" d="M210,-503.87C210,-479.67 210,-435.21 210,-406.39"/>
<polygon fill="grey" stroke="grey" stroke-width="2" points="213.5,-406.19 210,-396.19 206.5,-406.19 213.5,-406.19"/>
</g>
<!-- 21 -->
<g id="node22" class="node">
<title>21</title>
<path fill="none" stroke="#68d856" stroke-width="2" stroke-dasharray="5,2" d="M257,-612C257,-612 161,-612 161,-612 155,-612 149,-606 149,-600 149,-600 149,-588 149,-588 149,-582 155,-576 161,-576 161,-576 257,-576 257,-576 263,-576 269,-582 269,-588 269,-588 269,-600 269,-600 269,-606 263,-612 257,-612"/>
<text text-anchor="middle" x="209" y="-597" font-family="sans" font-size="10.00">fastqc</text>
<text text-anchor="middle" x="209" y="-586" font-family="sans" font-size="10.00">sample: ERR6483999</text>
</g>
<!-- 21&#45;&gt;20 -->
<g id="edge36" class="edge">
<title>21&#45;&gt;20</title>
<path fill="none" stroke="grey" stroke-width="2" d="M209.25,-575.7C209.36,-567.98 209.49,-558.71 209.61,-550.11"/>
<polygon fill="grey" stroke="grey" stroke-width="2" points="213.11,-550.15 209.76,-540.1 206.11,-550.05 213.11,-550.15"/>
</g>
<!-- 22&#45;&gt;1 -->
<g id="edge9" class="edge">
<title>22&#45;&gt;1</title>
<path fill="none" stroke="grey" stroke-width="2" d="M536.04,-359.7C534.28,-351.98 532.16,-342.71 530.2,-334.11"/>
<polygon fill="grey" stroke="grey" stroke-width="2" points="533.55,-333.07 527.91,-324.1 526.73,-334.63 533.55,-333.07"/>
</g>
<!-- 22&#45;&gt;31 -->
<g id="edge55" class="edge">
<title>22&#45;&gt;31</title>
<path fill="none" stroke="grey" stroke-width="2" d="M579.39,-359.88C601.39,-350.31 629.01,-338.3 652.36,-328.15"/>
<polygon fill="grey" stroke="grey" stroke-width="2" points="653.97,-331.27 661.74,-324.07 651.18,-324.85 653.97,-331.27"/>
</g>
<!-- 23&#45;&gt;22 -->
<g id="edge37" class="edge">
<title>23&#45;&gt;22</title>
<path fill="none" stroke="grey" stroke-width="2" d="M582.63,-503.93C579.82,-485.76 574.42,-456.34 566,-432 562.88,-422.99 558.6,-413.54 554.41,-405.14"/>
<polygon fill="grey" stroke="grey" stroke-width="2" points="557.49,-403.48 549.78,-396.2 551.27,-406.69 557.49,-403.48"/>
</g>
<!-- 24 -->
<g id="node25" class="node">
<title>24</title>
<path fill="none" stroke="#68d856" stroke-width="2" stroke-dasharray="5,2" d="M533,-612C533,-612 437,-612 437,-612 431,-612 425,-606 425,-600 425,-600 425,-588 425,-588 425,-582 431,-576 437,-576 437,-576 533,-576 533,-576 539,-576 545,-582 545,-588 545,-588 545,-600 545,-600 545,-606 539,-612 533,-612"/>
<text text-anchor="middle" x="485" y="-597" font-family="sans" font-size="10.00">fastqc</text>
<text text-anchor="middle" x="485" y="-586" font-family="sans" font-size="10.00">sample: ERR6484007</text>
</g>
<!-- 24&#45;&gt;23 -->
<g id="edge40" class="edge">
<title>24&#45;&gt;23</title>
<path fill="none" stroke="grey" stroke-width="2" d="M509.46,-575.88C522.3,-566.89 538.2,-555.76 552.09,-546.03"/>
<polygon fill="grey" stroke="grey" stroke-width="2" points="554.26,-548.79 560.44,-540.19 550.24,-543.06 554.26,-548.79"/>
</g>
<!-- 25&#45;&gt;1 -->
<g id="edge10" class="edge">
<title>25&#45;&gt;1</title>
<path fill="none" stroke="grey" stroke-width="2" d="M646.37,-359.88C624.22,-350.31 596.44,-338.3 572.94,-328.15"/>
<polygon fill="grey" stroke="grey" stroke-width="2" points="574.07,-324.82 563.5,-324.07 571.29,-331.25 574.07,-324.82"/>
</g>
<!-- 25&#45;&gt;31 -->
<g id="edge56" class="edge">
<title>25&#45;&gt;31</title>
<path fill="none" stroke="grey" stroke-width="2" d="M689.71,-359.7C691.36,-351.98 693.35,-342.71 695.19,-334.11"/>
<polygon fill="grey" stroke="grey" stroke-width="2" points="698.66,-334.62 697.33,-324.1 691.82,-333.15 698.66,-334.62"/>
</g>
<!-- 26&#45;&gt;25 -->
<g id="edge41" class="edge">
<title>26&#45;&gt;25</title>
<path fill="none" stroke="grey" stroke-width="2" d="M687.76,-503.87C687.42,-479.67 686.79,-435.21 686.39,-406.39"/>
<polygon fill="grey" stroke="grey" stroke-width="2" points="689.88,-406.14 686.24,-396.19 682.88,-406.24 689.88,-406.14"/>
</g>
<!-- 27 -->
<g id="node28" class="node">
<title>27</title>
<path fill="none" stroke="#68d856" stroke-width="2" stroke-dasharray="5,2" d="M773,-612C773,-612 677,-612 677,-612 671,-612 665,-606 665,-600 665,-600 665,-588 665,-588 665,-582 671,-576 677,-576 677,-576 773,-576 773,-576 779,-576 785,-582 785,-588 785,-588 785,-600 785,-600 785,-606 779,-612 773,-612"/>
<text text-anchor="middle" x="725" y="-597" font-family="sans" font-size="10.00">fastqc</text>
<text text-anchor="middle" x="725" y="-586" font-family="sans" font-size="10.00">sample: ERR6484008</text>
</g>
<!-- 27&#45;&gt;26 -->
<g id="edge44" class="edge">
<title>27&#45;&gt;26</title>
<path fill="none" stroke="grey" stroke-width="2" d="M715.85,-575.7C711.6,-567.64 706.44,-557.89 701.73,-548.98"/>
<polygon fill="grey" stroke="grey" stroke-width="2" points="704.81,-547.31 697.04,-540.1 698.62,-550.58 704.81,-547.31"/>
</g>
<!-- 28 -->
<g id="node29" class="node">
<title>28</title>
<path fill="none" stroke="#8fd856" stroke-width="2" d="M612,-108C612,-108 576,-108 576,-108 570,-108 564,-102 564,-96 564,-96 564,-84 564,-84 564,-78 570,-72 576,-72 576,-72 612,-72 612,-72 618,-72 624,-78 624,-84 624,-84 624,-96 624,-96 624,-102 618,-108 612,-108"/>
<text text-anchor="middle" x="594" y="-87.5" font-family="sans" font-size="10.00">VST_PCA</text>
</g>
<!-- 28&#45;&gt;0 -->
<g id="edge2" class="edge">
<title>28&#45;&gt;0</title>
<path fill="none" stroke="grey" stroke-width="2" d="M584.36,-71.7C579.87,-63.64 574.44,-53.89 569.48,-44.98"/>
<polygon fill="grey" stroke="grey" stroke-width="2" points="572.45,-43.14 564.53,-36.1 566.34,-46.54 572.45,-43.14"/>
</g>
<!-- 29 -->
<g id="node30" class="node">
<title>29</title>
<path fill="none" stroke="#d87d56" stroke-width="2" d="M737.5,-180C737.5,-180 672.5,-180 672.5,-180 666.5,-180 660.5,-174 660.5,-168 660.5,-168 660.5,-156 660.5,-156 660.5,-150 666.5,-144 672.5,-144 672.5,-144 737.5,-144 737.5,-144 743.5,-144 749.5,-150 749.5,-156 749.5,-156 749.5,-168 749.5,-168 749.5,-174 743.5,-180 737.5,-180"/>
<text text-anchor="middle" x="705" y="-165" font-family="sans" font-size="10.00">VST_normalize</text>
<text text-anchor="middle" x="705" y="-154" font-family="sans" font-size="10.00">th: 200</text>
</g>
<!-- 29&#45;&gt;28 -->
<g id="edge45" class="edge">
<title>29&#45;&gt;28</title>
<path fill="none" stroke="grey" stroke-width="2" d="M677.85,-143.88C663.47,-134.81 645.62,-123.55 630.09,-113.76"/>
<polygon fill="grey" stroke="grey" stroke-width="2" points="631.58,-110.56 621.26,-108.19 627.85,-116.48 631.58,-110.56"/>
</g>
<!-- 30 -->
<g id="node31" class="node">
<title>30</title>
<path fill="none" stroke="#b6d856" stroke-width="2" d="M743,-252C743,-252 663,-252 663,-252 657,-252 651,-246 651,-240 651,-240 651,-228 651,-228 651,-222 657,-216 663,-216 663,-216 743,-216 743,-216 749,-216 755,-222 755,-228 755,-228 755,-240 755,-240 755,-246 749,-252 743,-252"/>
<text text-anchor="middle" x="703" y="-231.5" font-family="sans" font-size="10.00">aggregate_counts</text>
</g>
<!-- 30&#45;&gt;29 -->
<g id="edge47" class="edge">
<title>30&#45;&gt;29</title>
<path fill="none" stroke="grey" stroke-width="2" d="M703.49,-215.7C703.71,-207.98 703.98,-198.71 704.23,-190.11"/>
<polygon fill="grey" stroke="grey" stroke-width="2" points="707.72,-190.2 704.51,-180.1 700.73,-190 707.72,-190.2"/>
</g>
<!-- 31&#45;&gt;30 -->
<g id="edge48" class="edge">
<title>31&#45;&gt;30</title>
<path fill="none" stroke="grey" stroke-width="2" d="M701.49,-287.7C701.71,-279.98 701.98,-270.71 702.23,-262.11"/>
<polygon fill="grey" stroke="grey" stroke-width="2" points="705.72,-262.2 702.51,-252.1 698.73,-262 705.72,-262.2"/>
</g>
<!-- 32 -->
<g id="node33" class="node">
<title>32</title>
<path fill="none" stroke="#56a9d8" stroke-width="2" stroke-dasharray="5,2" d="M630.5,-180C630.5,-180 557.5,-180 557.5,-180 551.5,-180 545.5,-174 545.5,-168 545.5,-168 545.5,-156 545.5,-156 545.5,-150 551.5,-144 557.5,-144 557.5,-144 630.5,-144 630.5,-144 636.5,-144 642.5,-150 642.5,-156 642.5,-156 642.5,-168 642.5,-168 642.5,-174 636.5,-180 630.5,-180"/>
<text text-anchor="middle" x="594" y="-159.5" font-family="sans" font-size="10.00">move_metadata</text>
</g>
<!-- 32&#45;&gt;28 -->
<g id="edge46" class="edge">
<title>32&#45;&gt;28</title>
<path fill="none" stroke="grey" stroke-width="2" d="M594,-143.7C594,-135.98 594,-126.71 594,-118.11"/>
<polygon fill="grey" stroke="grey" stroke-width="2" points="597.5,-118.1 594,-108.1 590.5,-118.1 597.5,-118.1"/>
</g>
</g>
</svg>
