<?xml version="1.0" encoding="UTF-8" standalone="no"?>
<!DOCTYPE svg PUBLIC "-//W3C//DTD SVG 1.1//EN"
 "http://www.w3.org/Graphics/SVG/1.1/DTD/svg11.dtd">
<!-- Generated by graphviz version 2.43.0 (0)
 -->
<!-- Title: snakemake_dag Pages: 1 -->
<svg width="1196pt" height="908pt"
 viewBox="0.00 0.00 1196.00 908.00" xmlns="http://www.w3.org/2000/svg" xmlns:xlink="http://www.w3.org/1999/xlink">
<g id="graph0" class="graph" transform="scale(1 1) rotate(0) translate(4 904)">
<title>snakemake_dag</title>
<polygon fill="white" stroke="transparent" points="-4,4 -4,-904 1192,-904 1192,4 -4,4"/>
<!-- 0 -->
<g id="node1" class="node">
<title>0</title>
<path fill="none" stroke="#56d89a" stroke-width="2" d="M658,-36C658,-36 620,-36 620,-36 614,-36 608,-30 608,-24 608,-24 608,-12 608,-12 608,-6 614,0 620,0 620,0 658,0 658,0 664,0 670,-6 670,-12 670,-12 670,-24 670,-24 670,-30 664,-36 658,-36"/>
<text text-anchor="middle" x="639" y="-15.5" font-family="sans" font-size="10.00">make_art</text>
</g>
<!-- 1 -->
<g id="node2" class="node">
<title>1</title>
<path fill="none" stroke="#97d856" stroke-width="2" stroke-dasharray="5,2" d="M668.5,-108C668.5,-108 609.5,-108 609.5,-108 603.5,-108 597.5,-102 597.5,-96 597.5,-96 597.5,-84 597.5,-84 597.5,-78 603.5,-72 609.5,-72 609.5,-72 668.5,-72 668.5,-72 674.5,-72 680.5,-78 680.5,-84 680.5,-84 680.5,-96 680.5,-96 680.5,-102 674.5,-108 668.5,-108"/>
<text text-anchor="middle" x="639" y="-87.5" font-family="sans" font-size="10.00">complete_run</text>
</g>
<!-- 1&#45;&gt;0 -->
<g id="edge1" class="edge">
<title>1&#45;&gt;0</title>
<path fill="none" stroke="grey" stroke-width="2" d="M639,-71.7C639,-63.98 639,-54.71 639,-46.11"/>
<polygon fill="grey" stroke="grey" stroke-width="2" points="642.5,-46.1 639,-36.1 635.5,-46.1 642.5,-46.1"/>
</g>
<!-- 2 -->
<g id="node3" class="node">
<title>2</title>
<path fill="none" stroke="#56d8d8" stroke-width="2" stroke-dasharray="5,2" d="M665,-252C665,-252 613,-252 613,-252 607,-252 601,-246 601,-240 601,-240 601,-228 601,-228 601,-222 607,-216 613,-216 613,-216 665,-216 665,-216 671,-216 677,-222 677,-228 677,-228 677,-240 677,-240 677,-246 671,-252 665,-252"/>
<text text-anchor="middle" x="639" y="-231.5" font-family="sans" font-size="10.00">write_config</text>
</g>
<!-- 2&#45;&gt;1 -->
<g id="edge2" class="edge">
<title>2&#45;&gt;1</title>
<path fill="none" stroke="grey" stroke-width="2" d="M630.69,-215.79C626.26,-205.63 621.26,-192.38 619,-180 616.13,-164.26 616.13,-159.74 619,-144 620.61,-135.2 623.6,-125.95 626.79,-117.7"/>
<polygon fill="grey" stroke="grey" stroke-width="2" points="630.12,-118.79 630.69,-108.21 623.65,-116.12 630.12,-118.79"/>
</g>
<!-- 29 -->
<g id="node30" class="node">
<title>29</title>
<path fill="none" stroke="#b6d856" stroke-width="2" stroke-dasharray="5,2" d="M718.5,-180C718.5,-180 639.5,-180 639.5,-180 633.5,-180 627.5,-174 627.5,-168 627.5,-168 627.5,-156 627.5,-156 627.5,-150 633.5,-144 639.5,-144 639.5,-144 718.5,-144 718.5,-144 724.5,-144 730.5,-150 730.5,-156 730.5,-156 730.5,-168 730.5,-168 730.5,-174 724.5,-180 718.5,-180"/>
<text text-anchor="middle" x="679" y="-159.5" font-family="sans" font-size="10.00">tidy_up_tmp_files</text>
</g>
<!-- 2&#45;&gt;29 -->
<g id="edge44" class="edge">
<title>2&#45;&gt;29</title>
<path fill="none" stroke="grey" stroke-width="2" d="M648.89,-215.7C653.49,-207.64 659.06,-197.89 664.15,-188.98"/>
<polygon fill="grey" stroke="grey" stroke-width="2" points="667.3,-190.52 669.23,-180.1 661.23,-187.05 667.3,-190.52"/>
</g>
<!-- 3 -->
<g id="node4" class="node">
<title>3</title>
<path fill="none" stroke="#d6d856" stroke-width="2" stroke-dasharray="5,2" d="M675,-324C675,-324 603,-324 603,-324 597,-324 591,-318 591,-312 591,-312 591,-300 591,-300 591,-294 597,-288 603,-288 603,-288 675,-288 675,-288 681,-288 687,-294 687,-300 687,-300 687,-312 687,-312 687,-318 681,-324 675,-324"/>
<text text-anchor="middle" x="639" y="-303.5" font-family="sans" font-size="10.00">move_final_files</text>
</g>
<!-- 3&#45;&gt;2 -->
<g id="edge4" class="edge">
<title>3&#45;&gt;2</title>
<path fill="none" stroke="grey" stroke-width="2" d="M639,-287.7C639,-279.98 639,-270.71 639,-262.11"/>
<polygon fill="grey" stroke="grey" stroke-width="2" points="642.5,-262.1 639,-252.1 635.5,-262.1 642.5,-262.1"/>
</g>
<!-- 4 -->
<g id="node5" class="node">
<title>4</title>
<path fill="none" stroke="#d87556" stroke-width="2" stroke-dasharray="5,2" d="M811,-468C811,-468 679,-468 679,-468 673,-468 667,-462 667,-456 667,-456 667,-444 667,-444 667,-438 673,-432 679,-432 679,-432 811,-432 811,-432 817,-432 823,-438 823,-444 823,-444 823,-456 823,-456 823,-462 817,-468 811,-468"/>
<text text-anchor="middle" x="745" y="-447.5" font-family="sans" font-size="10.00">alignment_summary_figures</text>
</g>
<!-- 4&#45;&gt;3 -->
<g id="edge5" class="edge">
<title>4&#45;&gt;3</title>
<path fill="none" stroke="grey" stroke-width="2" d="M732.21,-431.87C713.75,-407.14 679.49,-361.24 658.04,-332.51"/>
<polygon fill="grey" stroke="grey" stroke-width="2" points="660.62,-330.11 651.83,-324.19 655.01,-334.3 660.62,-330.11"/>
</g>
<!-- 5 -->
<g id="node6" class="node">
<title>5</title>
<path fill="none" stroke="#56b9d8" stroke-width="2" stroke-dasharray="5,2" d="M691,-684C691,-684 587,-684 587,-684 581,-684 575,-678 575,-672 575,-672 575,-660 575,-660 575,-654 581,-648 587,-648 587,-648 691,-648 691,-648 697,-648 703,-654 703,-660 703,-660 703,-672 703,-672 703,-678 697,-684 691,-684"/>
<text text-anchor="middle" x="639" y="-663.5" font-family="sans" font-size="10.00">aggregate_tmp_counts</text>
</g>
<!-- 5&#45;&gt;4 -->
<g id="edge10" class="edge">
<title>5&#45;&gt;4</title>
<path fill="none" stroke="grey" stroke-width="2" d="M682.63,-647.84C698.48,-639.42 714.95,-627.64 725,-612 751.24,-571.16 751.21,-512.34 748.39,-478.26"/>
<polygon fill="grey" stroke="grey" stroke-width="2" points="751.86,-477.73 747.41,-468.11 744.89,-478.4 751.86,-477.73"/>
</g>
<!-- 25 -->
<g id="node26" class="node">
<title>25</title>
<path fill="none" stroke="#567bd8" stroke-width="2" stroke-dasharray="5,2" d="M703.5,-612C703.5,-612 574.5,-612 574.5,-612 568.5,-612 562.5,-606 562.5,-600 562.5,-600 562.5,-588 562.5,-588 562.5,-582 568.5,-576 574.5,-576 574.5,-576 703.5,-576 703.5,-576 709.5,-576 715.5,-582 715.5,-588 715.5,-588 715.5,-600 715.5,-600 715.5,-606 709.5,-612 703.5,-612"/>
<text text-anchor="middle" x="639" y="-591.5" font-family="sans" font-size="10.00">transpose_and_filter_counts</text>
</g>
<!-- 5&#45;&gt;25 -->
<g id="edge40" class="edge">
<title>5&#45;&gt;25</title>
<path fill="none" stroke="grey" stroke-width="2" d="M639,-647.7C639,-639.98 639,-630.71 639,-622.11"/>
<polygon fill="grey" stroke="grey" stroke-width="2" points="642.5,-622.1 639,-612.1 635.5,-622.1 642.5,-622.1"/>
</g>
<!-- 6 -->
<g id="node7" class="node">
<title>6</title>
<path fill="none" stroke="#78d856" stroke-width="2" stroke-dasharray="5,2" d="M881.5,-828C881.5,-828 820.5,-828 820.5,-828 814.5,-828 808.5,-822 808.5,-816 808.5,-816 808.5,-804 808.5,-804 808.5,-798 814.5,-792 820.5,-792 820.5,-792 881.5,-792 881.5,-792 887.5,-792 893.5,-798 893.5,-804 893.5,-804 893.5,-816 893.5,-816 893.5,-822 887.5,-828 881.5,-828"/>
<text text-anchor="middle" x="851" y="-807.5" font-family="sans" font-size="10.00">kallisto_quant</text>
</g>
<!-- 6&#45;&gt;5 -->
<g id="edge13" class="edge">
<title>6&#45;&gt;5</title>
<path fill="none" stroke="grey" stroke-width="2" d="M808.39,-793.74C776.72,-781.99 736.59,-766.09 722,-756 708.24,-746.49 679.75,-714.7 660.02,-691.82"/>
<polygon fill="grey" stroke="grey" stroke-width="2" points="662.61,-689.47 653.44,-684.16 657.3,-694.03 662.61,-689.47"/>
</g>
<!-- 23 -->
<g id="node24" class="node">
<title>23</title>
<path fill="none" stroke="#59d856" stroke-width="2" stroke-dasharray="5,2" d="M925.5,-756C925.5,-756 776.5,-756 776.5,-756 770.5,-756 764.5,-750 764.5,-744 764.5,-744 764.5,-732 764.5,-732 764.5,-726 770.5,-720 776.5,-720 776.5,-720 925.5,-720 925.5,-720 931.5,-720 937.5,-726 937.5,-732 937.5,-732 937.5,-744 937.5,-744 937.5,-750 931.5,-756 925.5,-756"/>
<text text-anchor="middle" x="851" y="-735.5" font-family="sans" font-size="10.00">create_tmp_and_summary_files</text>
</g>
<!-- 6&#45;&gt;23 -->
<g id="edge38" class="edge">
<title>6&#45;&gt;23</title>
<path fill="none" stroke="grey" stroke-width="2" d="M851,-791.7C851,-783.98 851,-774.71 851,-766.11"/>
<polygon fill="grey" stroke="grey" stroke-width="2" points="854.5,-766.1 851,-756.1 847.5,-766.1 854.5,-766.1"/>
</g>
<!-- 7 -->
<g id="node8" class="node">
<title>7</title>
<path fill="none" stroke="#56d8b9" stroke-width="2" stroke-dasharray="5,2" d="M624,-900C624,-900 564,-900 564,-900 558,-900 552,-894 552,-888 552,-888 552,-876 552,-876 552,-870 558,-864 564,-864 564,-864 624,-864 624,-864 630,-864 636,-870 636,-876 636,-876 636,-888 636,-888 636,-894 630,-900 624,-900"/>
<text text-anchor="middle" x="594" y="-879.5" font-family="sans" font-size="10.00">kallisto_index</text>
</g>
<!-- 7&#45;&gt;6 -->
<g id="edge22" class="edge">
<title>7&#45;&gt;6</title>
<path fill="none" stroke="grey" stroke-width="2" d="M636.21,-866.59C639.17,-865.68 642.13,-864.81 645,-864 710.01,-845.66 730.14,-847.03 798.29,-828.35"/>
<polygon fill="grey" stroke="grey" stroke-width="2" points="799.55,-831.63 808.24,-825.58 797.66,-824.89 799.55,-831.63"/>
</g>
<!-- 9 -->
<g id="node10" class="node">
<title>9</title>
<path fill="none" stroke="#78d856" stroke-width="2" stroke-dasharray="5,2" d="M675.5,-828C675.5,-828 614.5,-828 614.5,-828 608.5,-828 602.5,-822 602.5,-816 602.5,-816 602.5,-804 602.5,-804 602.5,-798 608.5,-792 614.5,-792 614.5,-792 675.5,-792 675.5,-792 681.5,-792 687.5,-798 687.5,-804 687.5,-804 687.5,-816 687.5,-816 687.5,-822 681.5,-828 675.5,-828"/>
<text text-anchor="middle" x="645" y="-807.5" font-family="sans" font-size="10.00">kallisto_quant</text>
</g>
<!-- 7&#45;&gt;9 -->
<g id="edge24" class="edge">
<title>7&#45;&gt;9</title>
<path fill="none" stroke="grey" stroke-width="2" d="M606.61,-863.7C612.6,-855.47 619.88,-845.48 626.48,-836.42"/>
<polygon fill="grey" stroke="grey" stroke-width="2" points="629.48,-838.25 632.54,-828.1 623.82,-834.13 629.48,-838.25"/>
</g>
<!-- 11 -->
<g id="node12" class="node">
<title>11</title>
<path fill="none" stroke="#78d856" stroke-width="2" stroke-dasharray="5,2" d="M778.5,-828C778.5,-828 717.5,-828 717.5,-828 711.5,-828 705.5,-822 705.5,-816 705.5,-816 705.5,-804 705.5,-804 705.5,-798 711.5,-792 717.5,-792 717.5,-792 778.5,-792 778.5,-792 784.5,-792 790.5,-798 790.5,-804 790.5,-804 790.5,-816 790.5,-816 790.5,-822 784.5,-828 778.5,-828"/>
<text text-anchor="middle" x="748" y="-807.5" font-family="sans" font-size="10.00">kallisto_quant</text>
</g>
<!-- 7&#45;&gt;11 -->
<g id="edge26" class="edge">
<title>7&#45;&gt;11</title>
<path fill="none" stroke="grey" stroke-width="2" d="M631.67,-863.88C652.63,-854.35 678.9,-842.41 701.18,-832.28"/>
<polygon fill="grey" stroke="grey" stroke-width="2" points="702.79,-835.39 710.45,-828.07 699.9,-829.02 702.79,-835.39"/>
</g>
<!-- 13 -->
<g id="node14" class="node">
<title>13</title>
<path fill="none" stroke="#78d856" stroke-width="2" stroke-dasharray="5,2" d="M984.5,-828C984.5,-828 923.5,-828 923.5,-828 917.5,-828 911.5,-822 911.5,-816 911.5,-816 911.5,-804 911.5,-804 911.5,-798 917.5,-792 923.5,-792 923.5,-792 984.5,-792 984.5,-792 990.5,-792 996.5,-798 996.5,-804 996.5,-804 996.5,-816 996.5,-816 996.5,-822 990.5,-828 984.5,-828"/>
<text text-anchor="middle" x="954" y="-807.5" font-family="sans" font-size="10.00">kallisto_quant</text>
</g>
<!-- 7&#45;&gt;13 -->
<g id="edge28" class="edge">
<title>7&#45;&gt;13</title>
<path fill="none" stroke="grey" stroke-width="2" d="M636.13,-866.3C639.11,-865.46 642.09,-864.68 645,-864 754.53,-838.33 788.37,-853.5 901.24,-828.18"/>
<polygon fill="grey" stroke="grey" stroke-width="2" points="902.35,-831.51 911.31,-825.86 900.78,-824.69 902.35,-831.51"/>
</g>
<!-- 15 -->
<g id="node16" class="node">
<title>15</title>
<path fill="none" stroke="#78d856" stroke-width="2" stroke-dasharray="5,2" d="M263.5,-828C263.5,-828 202.5,-828 202.5,-828 196.5,-828 190.5,-822 190.5,-816 190.5,-816 190.5,-804 190.5,-804 190.5,-798 196.5,-792 202.5,-792 202.5,-792 263.5,-792 263.5,-792 269.5,-792 275.5,-798 275.5,-804 275.5,-804 275.5,-816 275.5,-816 275.5,-822 269.5,-828 263.5,-828"/>
<text text-anchor="middle" x="233" y="-807.5" font-family="sans" font-size="10.00">kallisto_quant</text>
</g>
<!-- 7&#45;&gt;15 -->
<g id="edge30" class="edge">
<title>7&#45;&gt;15</title>
<path fill="none" stroke="grey" stroke-width="2" d="M551.87,-866.29C548.89,-865.46 545.91,-864.68 543,-864 432.94,-838.24 399.01,-853.59 285.46,-828.11"/>
<polygon fill="grey" stroke="grey" stroke-width="2" points="286.22,-824.69 275.69,-825.86 284.65,-831.52 286.22,-824.69"/>
</g>
<!-- 17 -->
<g id="node18" class="node">
<title>17</title>
<path fill="none" stroke="#78d856" stroke-width="2" stroke-dasharray="5,2" d="M366.5,-828C366.5,-828 305.5,-828 305.5,-828 299.5,-828 293.5,-822 293.5,-816 293.5,-816 293.5,-804 293.5,-804 293.5,-798 299.5,-792 305.5,-792 305.5,-792 366.5,-792 366.5,-792 372.5,-792 378.5,-798 378.5,-804 378.5,-804 378.5,-816 378.5,-816 378.5,-822 372.5,-828 366.5,-828"/>
<text text-anchor="middle" x="336" y="-807.5" font-family="sans" font-size="10.00">kallisto_quant</text>
</g>
<!-- 7&#45;&gt;17 -->
<g id="edge32" class="edge">
<title>7&#45;&gt;17</title>
<path fill="none" stroke="grey" stroke-width="2" d="M551.79,-866.59C548.83,-865.68 545.87,-864.81 543,-864 477.58,-845.59 457.3,-847.09 388.76,-828.36"/>
<polygon fill="grey" stroke="grey" stroke-width="2" points="389.33,-824.89 378.76,-825.58 387.46,-831.63 389.33,-824.89"/>
</g>
<!-- 19 -->
<g id="node20" class="node">
<title>19</title>
<path fill="none" stroke="#78d856" stroke-width="2" stroke-dasharray="5,2" d="M469.5,-828C469.5,-828 408.5,-828 408.5,-828 402.5,-828 396.5,-822 396.5,-816 396.5,-816 396.5,-804 396.5,-804 396.5,-798 402.5,-792 408.5,-792 408.5,-792 469.5,-792 469.5,-792 475.5,-792 481.5,-798 481.5,-804 481.5,-804 481.5,-816 481.5,-816 481.5,-822 475.5,-828 469.5,-828"/>
<text text-anchor="middle" x="439" y="-807.5" font-family="sans" font-size="10.00">kallisto_quant</text>
</g>
<!-- 7&#45;&gt;19 -->
<g id="edge34" class="edge">
<title>7&#45;&gt;19</title>
<path fill="none" stroke="grey" stroke-width="2" d="M556.08,-863.88C534.99,-854.35 508.54,-842.41 486.13,-832.28"/>
<polygon fill="grey" stroke="grey" stroke-width="2" points="487.35,-828.99 476.79,-828.07 484.47,-835.37 487.35,-828.99"/>
</g>
<!-- 21 -->
<g id="node22" class="node">
<title>21</title>
<path fill="none" stroke="#78d856" stroke-width="2" stroke-dasharray="5,2" d="M572.5,-828C572.5,-828 511.5,-828 511.5,-828 505.5,-828 499.5,-822 499.5,-816 499.5,-816 499.5,-804 499.5,-804 499.5,-798 505.5,-792 511.5,-792 511.5,-792 572.5,-792 572.5,-792 578.5,-792 584.5,-798 584.5,-804 584.5,-804 584.5,-816 584.5,-816 584.5,-822 578.5,-828 572.5,-828"/>
<text text-anchor="middle" x="542" y="-807.5" font-family="sans" font-size="10.00">kallisto_quant</text>
</g>
<!-- 7&#45;&gt;21 -->
<g id="edge36" class="edge">
<title>7&#45;&gt;21</title>
<path fill="none" stroke="grey" stroke-width="2" d="M581.15,-863.7C574.97,-855.39 567.46,-845.28 560.68,-836.14"/>
<polygon fill="grey" stroke="grey" stroke-width="2" points="563.48,-834.04 554.71,-828.1 557.86,-838.22 563.48,-834.04"/>
</g>
<!-- 8 -->
<g id="node9" class="node">
<title>8</title>
<path fill="none" stroke="#d8b456" stroke-width="2" stroke-dasharray="5,2" d="M1038,-900C1038,-900 942,-900 942,-900 936,-900 930,-894 930,-888 930,-888 930,-876 930,-876 930,-870 936,-864 942,-864 942,-864 1038,-864 1038,-864 1044,-864 1050,-870 1050,-876 1050,-876 1050,-888 1050,-888 1050,-894 1044,-900 1038,-900"/>
<text text-anchor="middle" x="990" y="-885" font-family="sans" font-size="10.00">fastqc</text>
<text text-anchor="middle" x="990" y="-874" font-family="sans" font-size="10.00">sample: ERR6484003</text>
</g>
<!-- 8&#45;&gt;6 -->
<g id="edge23" class="edge">
<title>8&#45;&gt;6</title>
<path fill="none" stroke="grey" stroke-width="2" d="M956,-863.88C937.4,-854.51 914.17,-842.81 894.29,-832.8"/>
<polygon fill="grey" stroke="grey" stroke-width="2" points="895.64,-829.56 885.13,-828.19 892.49,-835.81 895.64,-829.56"/>
</g>
<!-- 9&#45;&gt;5 -->
<g id="edge14" class="edge">
<title>9&#45;&gt;5</title>
<path fill="none" stroke="grey" stroke-width="2" d="M644.28,-791.87C643.25,-767.67 641.38,-723.21 640.16,-694.39"/>
<polygon fill="grey" stroke="grey" stroke-width="2" points="643.65,-694.03 639.73,-684.19 636.65,-694.33 643.65,-694.03"/>
</g>
<!-- 10 -->
<g id="node11" class="node">
<title>10</title>
<path fill="none" stroke="#d8b456" stroke-width="2" stroke-dasharray="5,2" d="M762,-900C762,-900 666,-900 666,-900 660,-900 654,-894 654,-888 654,-888 654,-876 654,-876 654,-870 660,-864 666,-864 666,-864 762,-864 762,-864 768,-864 774,-870 774,-876 774,-876 774,-888 774,-888 774,-894 768,-900 762,-900"/>
<text text-anchor="middle" x="714" y="-885" font-family="sans" font-size="10.00">fastqc</text>
<text text-anchor="middle" x="714" y="-874" font-family="sans" font-size="10.00">sample: ERR6484009</text>
</g>
<!-- 10&#45;&gt;9 -->
<g id="edge25" class="edge">
<title>10&#45;&gt;9</title>
<path fill="none" stroke="grey" stroke-width="2" d="M696.94,-863.7C688.5,-855.14 678.18,-844.66 668.96,-835.3"/>
<polygon fill="grey" stroke="grey" stroke-width="2" points="671.37,-832.77 661.86,-828.1 666.39,-837.68 671.37,-832.77"/>
</g>
<!-- 11&#45;&gt;5 -->
<g id="edge15" class="edge">
<title>11&#45;&gt;5</title>
<path fill="none" stroke="grey" stroke-width="2" d="M722.78,-791.94C710.03,-782.44 694.98,-769.76 684,-756 668.89,-737.07 656.86,-712.26 649.05,-693.65"/>
<polygon fill="grey" stroke="grey" stroke-width="2" points="652.26,-692.23 645.26,-684.28 645.77,-694.86 652.26,-692.23"/>
</g>
<!-- 12 -->
<g id="node13" class="node">
<title>12</title>
<path fill="none" stroke="#d8b456" stroke-width="2" stroke-dasharray="5,2" d="M900,-900C900,-900 804,-900 804,-900 798,-900 792,-894 792,-888 792,-888 792,-876 792,-876 792,-870 798,-864 804,-864 804,-864 900,-864 900,-864 906,-864 912,-870 912,-876 912,-876 912,-888 912,-888 912,-894 906,-900 900,-900"/>
<text text-anchor="middle" x="852" y="-885" font-family="sans" font-size="10.00">fastqc</text>
<text text-anchor="middle" x="852" y="-874" font-family="sans" font-size="10.00">sample: ERR6484000</text>
</g>
<!-- 12&#45;&gt;11 -->
<g id="edge27" class="edge">
<title>12&#45;&gt;11</title>
<path fill="none" stroke="grey" stroke-width="2" d="M826.56,-863.88C813.21,-854.89 796.68,-843.76 782.22,-834.03"/>
<polygon fill="grey" stroke="grey" stroke-width="2" points="783.79,-830.87 773.54,-828.19 779.88,-836.68 783.79,-830.87"/>
</g>
<!-- 13&#45;&gt;5 -->
<g id="edge16" class="edge">
<title>13&#45;&gt;5</title>
<path fill="none" stroke="grey" stroke-width="2" d="M911.23,-794.46C908.45,-793.6 905.69,-792.78 903,-792 838.37,-773.35 815.26,-787.82 756,-756 735.22,-744.84 735.47,-734.67 717,-720 703.75,-709.48 688.48,-698.81 674.99,-689.83"/>
<polygon fill="grey" stroke="grey" stroke-width="2" points="676.69,-686.77 666.42,-684.2 672.85,-692.62 676.69,-686.77"/>
</g>
<!-- 14 -->
<g id="node15" class="node">
<title>14</title>
<path fill="none" stroke="#d8b456" stroke-width="2" stroke-dasharray="5,2" d="M1176,-900C1176,-900 1080,-900 1080,-900 1074,-900 1068,-894 1068,-888 1068,-888 1068,-876 1068,-876 1068,-870 1074,-864 1080,-864 1080,-864 1176,-864 1176,-864 1182,-864 1188,-870 1188,-876 1188,-876 1188,-888 1188,-888 1188,-894 1182,-900 1176,-900"/>
<text text-anchor="middle" x="1128" y="-885" font-family="sans" font-size="10.00">fastqc</text>
<text text-anchor="middle" x="1128" y="-874" font-family="sans" font-size="10.00">sample: ERR6484004</text>
</g>
<!-- 14&#45;&gt;13 -->
<g id="edge29" class="edge">
<title>14&#45;&gt;13</title>
<path fill="none" stroke="grey" stroke-width="2" d="M1085.43,-863.88C1061.44,-854.22 1031.27,-842.09 1005.9,-831.88"/>
<polygon fill="grey" stroke="grey" stroke-width="2" points="1007.01,-828.55 996.43,-828.07 1004.4,-835.05 1007.01,-828.55"/>
</g>
<!-- 15&#45;&gt;5 -->
<g id="edge17" class="edge">
<title>15&#45;&gt;5</title>
<path fill="none" stroke="grey" stroke-width="2" d="M267.35,-791.83C307.01,-772.49 374.55,-741.02 435,-720 477.2,-705.33 525.55,-692.6 564.58,-683.29"/>
<polygon fill="grey" stroke="grey" stroke-width="2" points="565.88,-686.58 574.81,-680.88 564.27,-679.77 565.88,-686.58"/>
</g>
<!-- 16 -->
<g id="node17" class="node">
<title>16</title>
<path fill="none" stroke="#d8b456" stroke-width="2" stroke-dasharray="5,2" d="M108,-900C108,-900 12,-900 12,-900 6,-900 0,-894 0,-888 0,-888 0,-876 0,-876 0,-870 6,-864 12,-864 12,-864 108,-864 108,-864 114,-864 120,-870 120,-876 120,-876 120,-888 120,-888 120,-894 114,-900 108,-900"/>
<text text-anchor="middle" x="60" y="-885" font-family="sans" font-size="10.00">fastqc</text>
<text text-anchor="middle" x="60" y="-874" font-family="sans" font-size="10.00">sample: ERR6484001</text>
</g>
<!-- 16&#45;&gt;15 -->
<g id="edge31" class="edge">
<title>16&#45;&gt;15</title>
<path fill="none" stroke="grey" stroke-width="2" d="M102.32,-863.88C126.18,-854.22 156.17,-842.09 181.4,-831.88"/>
<polygon fill="grey" stroke="grey" stroke-width="2" points="182.86,-835.06 190.82,-828.07 180.23,-828.57 182.86,-835.06"/>
</g>
<!-- 17&#45;&gt;5 -->
<g id="edge18" class="edge">
<title>17&#45;&gt;5</title>
<path fill="none" stroke="grey" stroke-width="2" d="M368.09,-791.88C403.11,-773.42 461,-743.5 512,-720 536.32,-708.8 563.68,-697.25 586.76,-687.8"/>
<polygon fill="grey" stroke="grey" stroke-width="2" points="588.1,-691.03 596.04,-684.02 585.46,-684.55 588.1,-691.03"/>
</g>
<!-- 18 -->
<g id="node19" class="node">
<title>18</title>
<path fill="none" stroke="#d8b456" stroke-width="2" stroke-dasharray="5,2" d="M246,-900C246,-900 150,-900 150,-900 144,-900 138,-894 138,-888 138,-888 138,-876 138,-876 138,-870 144,-864 150,-864 150,-864 246,-864 246,-864 252,-864 258,-870 258,-876 258,-876 258,-888 258,-888 258,-894 252,-900 246,-900"/>
<text text-anchor="middle" x="198" y="-885" font-family="sans" font-size="10.00">fastqc</text>
<text text-anchor="middle" x="198" y="-874" font-family="sans" font-size="10.00">sample: ERR6483999</text>
</g>
<!-- 18&#45;&gt;17 -->
<g id="edge33" class="edge">
<title>18&#45;&gt;17</title>
<path fill="none" stroke="grey" stroke-width="2" d="M231.76,-863.88C250.22,-854.51 273.28,-842.81 293.02,-832.8"/>
<polygon fill="grey" stroke="grey" stroke-width="2" points="294.78,-835.83 302.11,-828.19 291.61,-829.59 294.78,-835.83"/>
</g>
<!-- 19&#45;&gt;5 -->
<g id="edge19" class="edge">
<title>19&#45;&gt;5</title>
<path fill="none" stroke="grey" stroke-width="2" d="M463.12,-791.87C498.94,-766.44 566.25,-718.65 606.41,-690.14"/>
<polygon fill="grey" stroke="grey" stroke-width="2" points="608.66,-692.83 614.79,-684.19 604.61,-687.12 608.66,-692.83"/>
</g>
<!-- 20 -->
<g id="node21" class="node">
<title>20</title>
<path fill="none" stroke="#d8b456" stroke-width="2" stroke-dasharray="5,2" d="M384,-900C384,-900 288,-900 288,-900 282,-900 276,-894 276,-888 276,-888 276,-876 276,-876 276,-870 282,-864 288,-864 288,-864 384,-864 384,-864 390,-864 396,-870 396,-876 396,-876 396,-888 396,-888 396,-894 390,-900 384,-900"/>
<text text-anchor="middle" x="336" y="-885" font-family="sans" font-size="10.00">fastqc</text>
<text text-anchor="middle" x="336" y="-874" font-family="sans" font-size="10.00">sample: ERR6484007</text>
</g>
<!-- 20&#45;&gt;19 -->
<g id="edge35" class="edge">
<title>20&#45;&gt;19</title>
<path fill="none" stroke="grey" stroke-width="2" d="M361.2,-863.88C374.41,-854.89 390.79,-843.76 405.11,-834.03"/>
<polygon fill="grey" stroke="grey" stroke-width="2" points="407.4,-836.71 413.71,-828.19 403.47,-830.92 407.4,-836.71"/>
</g>
<!-- 21&#45;&gt;5 -->
<g id="edge20" class="edge">
<title>21&#45;&gt;5</title>
<path fill="none" stroke="grey" stroke-width="2" d="M553.7,-791.87C570.6,-767.14 601.95,-721.24 621.57,-692.51"/>
<polygon fill="grey" stroke="grey" stroke-width="2" points="624.51,-694.42 627.26,-684.19 618.73,-690.47 624.51,-694.42"/>
</g>
<!-- 22 -->
<g id="node23" class="node">
<title>22</title>
<path fill="none" stroke="#d8b456" stroke-width="2" stroke-dasharray="5,2" d="M522,-900C522,-900 426,-900 426,-900 420,-900 414,-894 414,-888 414,-888 414,-876 414,-876 414,-870 420,-864 426,-864 426,-864 522,-864 522,-864 528,-864 534,-870 534,-876 534,-876 534,-888 534,-888 534,-894 528,-900 522,-900"/>
<text text-anchor="middle" x="474" y="-885" font-family="sans" font-size="10.00">fastqc</text>
<text text-anchor="middle" x="474" y="-874" font-family="sans" font-size="10.00">sample: ERR6484008</text>
</g>
<!-- 22&#45;&gt;21 -->
<g id="edge37" class="edge">
<title>22&#45;&gt;21</title>
<path fill="none" stroke="grey" stroke-width="2" d="M490.81,-863.7C499.13,-855.14 509.31,-844.66 518.39,-835.3"/>
<polygon fill="grey" stroke="grey" stroke-width="2" points="520.93,-837.72 525.38,-828.1 515.91,-832.84 520.93,-837.72"/>
</g>
<!-- 23&#45;&gt;3 -->
<g id="edge7" class="edge">
<title>23&#45;&gt;3</title>
<path fill="none" stroke="grey" stroke-width="2" d="M851,-719.95C851,-693.29 851,-640.11 851,-595 851,-595 851,-595 851,-449 851,-374.57 759.69,-336.67 696.92,-319.42"/>
<polygon fill="grey" stroke="grey" stroke-width="2" points="697.67,-315.99 687.11,-316.82 695.88,-322.76 697.67,-315.99"/>
</g>
<!-- 23&#45;&gt;4 -->
<g id="edge12" class="edge">
<title>23&#45;&gt;4</title>
<path fill="none" stroke="grey" stroke-width="2" d="M844.69,-719.97C826.94,-672.09 776.53,-536.06 754.97,-477.9"/>
<polygon fill="grey" stroke="grey" stroke-width="2" points="758.17,-476.47 751.41,-468.31 751.61,-478.9 758.17,-476.47"/>
</g>
<!-- 23&#45;&gt;5 -->
<g id="edge21" class="edge">
<title>23&#45;&gt;5</title>
<path fill="none" stroke="grey" stroke-width="2" d="M799.41,-719.97C769.53,-710.1 731.74,-697.62 700.34,-687.25"/>
<polygon fill="grey" stroke="grey" stroke-width="2" points="701.41,-683.92 690.82,-684.11 699.22,-690.57 701.41,-683.92"/>
</g>
<!-- 24 -->
<g id="node25" class="node">
<title>24</title>
<path fill="none" stroke="#56d87b" stroke-width="2" stroke-dasharray="5,2" d="M679,-540C679,-540 599,-540 599,-540 593,-540 587,-534 587,-528 587,-528 587,-516 587,-516 587,-510 593,-504 599,-504 599,-504 679,-504 679,-504 685,-504 691,-510 691,-516 691,-516 691,-528 691,-528 691,-534 685,-540 679,-540"/>
<text text-anchor="middle" x="639" y="-519.5" font-family="sans" font-size="10.00">aggregate_counts</text>
</g>
<!-- 24&#45;&gt;3 -->
<g id="edge8" class="edge">
<title>24&#45;&gt;3</title>
<path fill="none" stroke="grey" stroke-width="2" d="M639,-503.85C639,-466.83 639,-379.18 639,-334.39"/>
<polygon fill="grey" stroke="grey" stroke-width="2" points="642.5,-334.23 639,-324.23 635.5,-334.23 642.5,-334.23"/>
</g>
<!-- 24&#45;&gt;4 -->
<g id="edge11" class="edge">
<title>24&#45;&gt;4</title>
<path fill="none" stroke="grey" stroke-width="2" d="M664.93,-503.88C678.66,-494.81 695.71,-483.55 710.54,-473.76"/>
<polygon fill="grey" stroke="grey" stroke-width="2" points="712.55,-476.62 718.97,-468.19 708.7,-470.78 712.55,-476.62"/>
</g>
<!-- 27 -->
<g id="node28" class="node">
<title>27</title>
<path fill="none" stroke="#d89556" stroke-width="2" stroke-dasharray="5,2" d="M483.5,-468C483.5,-468 418.5,-468 418.5,-468 412.5,-468 406.5,-462 406.5,-456 406.5,-456 406.5,-444 406.5,-444 406.5,-438 412.5,-432 418.5,-432 418.5,-432 483.5,-432 483.5,-432 489.5,-432 495.5,-438 495.5,-444 495.5,-444 495.5,-456 495.5,-456 495.5,-462 489.5,-468 483.5,-468"/>
<text text-anchor="middle" x="451" y="-453" font-family="sans" font-size="10.00">VST_normalize</text>
<text text-anchor="middle" x="451" y="-442" font-family="sans" font-size="10.00">th: 200</text>
</g>
<!-- 24&#45;&gt;27 -->
<g id="edge43" class="edge">
<title>24&#45;&gt;27</title>
<path fill="none" stroke="grey" stroke-width="2" d="M593.01,-503.88C566.46,-493.99 532.93,-481.51 505.12,-471.15"/>
<polygon fill="grey" stroke="grey" stroke-width="2" points="506.14,-467.79 495.54,-467.59 503.69,-474.35 506.14,-467.79"/>
</g>
<!-- 25&#45;&gt;24 -->
<g id="edge39" class="edge">
<title>25&#45;&gt;24</title>
<path fill="none" stroke="grey" stroke-width="2" d="M639,-575.7C639,-567.98 639,-558.71 639,-550.11"/>
<polygon fill="grey" stroke="grey" stroke-width="2" points="642.5,-550.1 639,-540.1 635.5,-550.1 642.5,-550.1"/>
</g>
<!-- 26 -->
<g id="node27" class="node">
<title>26</title>
<path fill="none" stroke="#d85656" stroke-width="2" stroke-dasharray="5,2" d="M561,-396C561,-396 525,-396 525,-396 519,-396 513,-390 513,-384 513,-384 513,-372 513,-372 513,-366 519,-360 525,-360 525,-360 561,-360 561,-360 567,-360 573,-366 573,-372 573,-372 573,-384 573,-384 573,-390 567,-396 561,-396"/>
<text text-anchor="middle" x="543" y="-375.5" font-family="sans" font-size="10.00">VST_PCA</text>
</g>
<!-- 26&#45;&gt;3 -->
<g id="edge6" class="edge">
<title>26&#45;&gt;3</title>
<path fill="none" stroke="grey" stroke-width="2" d="M566.73,-359.7C578.94,-350.8 593.99,-339.82 607.18,-330.2"/>
<polygon fill="grey" stroke="grey" stroke-width="2" points="609.52,-332.82 615.54,-324.1 605.4,-327.17 609.52,-332.82"/>
</g>
<!-- 27&#45;&gt;26 -->
<g id="edge41" class="edge">
<title>27&#45;&gt;26</title>
<path fill="none" stroke="grey" stroke-width="2" d="M473.74,-431.7C485.44,-422.8 499.86,-411.82 512.51,-402.2"/>
<polygon fill="grey" stroke="grey" stroke-width="2" points="514.68,-404.94 520.52,-396.1 510.44,-399.37 514.68,-404.94"/>
</g>
<!-- 28 -->
<g id="node29" class="node">
<title>28</title>
<path fill="none" stroke="#569ad8" stroke-width="2" stroke-dasharray="5,2" d="M598.5,-468C598.5,-468 525.5,-468 525.5,-468 519.5,-468 513.5,-462 513.5,-456 513.5,-456 513.5,-444 513.5,-444 513.5,-438 519.5,-432 525.5,-432 525.5,-432 598.5,-432 598.5,-432 604.5,-432 610.5,-438 610.5,-444 610.5,-444 610.5,-456 610.5,-456 610.5,-462 604.5,-468 598.5,-468"/>
<text text-anchor="middle" x="562" y="-447.5" font-family="sans" font-size="10.00">move_metadata</text>
</g>
<!-- 28&#45;&gt;3 -->
<g id="edge9" class="edge">
<title>28&#45;&gt;3</title>
<path fill="none" stroke="grey" stroke-width="2" d="M571.29,-431.87C584.58,-407.35 609.16,-362.03 624.76,-333.26"/>
<polygon fill="grey" stroke="grey" stroke-width="2" points="627.99,-334.65 629.68,-324.19 621.84,-331.31 627.99,-334.65"/>
</g>
<!-- 28&#45;&gt;26 -->
<g id="edge42" class="edge">
<title>28&#45;&gt;26</title>
<path fill="none" stroke="grey" stroke-width="2" d="M557.3,-431.7C555.19,-423.9 552.64,-414.51 550.28,-405.83"/>
<polygon fill="grey" stroke="grey" stroke-width="2" points="553.64,-404.84 547.64,-396.1 546.88,-406.67 553.64,-404.84"/>
</g>
<!-- 29&#45;&gt;1 -->
<g id="edge3" class="edge">
<title>29&#45;&gt;1</title>
<path fill="none" stroke="grey" stroke-width="2" d="M669.11,-143.7C664.51,-135.64 658.94,-125.89 653.85,-116.98"/>
<polygon fill="grey" stroke="grey" stroke-width="2" points="656.77,-115.05 648.77,-108.1 650.7,-118.52 656.77,-115.05"/>
</g>
</g>
</svg>
