<?xml version="1.0" encoding="UTF-8" standalone="no"?>
<!DOCTYPE svg PUBLIC "-//W3C//DTD SVG 1.1//EN"
 "http://www.w3.org/Graphics/SVG/1.1/DTD/svg11.dtd">
<!-- Generated by graphviz version 2.43.0 (0)
 -->
<!-- Title: snakemake_dag Pages: 1 -->
<svg width="1196pt" height="332pt"
 viewBox="0.00 0.00 1196.00 332.00" xmlns="http://www.w3.org/2000/svg" xmlns:xlink="http://www.w3.org/1999/xlink">
<g id="graph0" class="graph" transform="scale(1 1) rotate(0) translate(4 328)">
<title>snakemake_dag</title>
<polygon fill="white" stroke="transparent" points="-4,4 -4,-328 1192,-328 1192,4 -4,4"/>
<!-- 0 -->
<g id="node1" class="node">
<title>0</title>
<path fill="none" stroke="#56d8c9" stroke-width="2" d="M578,-36C578,-36 476,-36 476,-36 470,-36 464,-30 464,-24 464,-24 464,-12 464,-12 464,-6 470,0 476,0 476,0 578,0 578,0 584,0 590,-6 590,-12 590,-12 590,-24 590,-24 590,-30 584,-36 578,-36"/>
<text text-anchor="middle" x="527" y="-15.5" font-family="sans" font-size="10.00">aggregation_complete</text>
</g>
<!-- 1 -->
<g id="node2" class="node">
<title>1</title>
<path fill="none" stroke="#c6d856" stroke-width="2" d="M506,-108C506,-108 426,-108 426,-108 420,-108 414,-102 414,-96 414,-96 414,-84 414,-84 414,-78 420,-72 426,-72 426,-72 506,-72 506,-72 512,-72 518,-78 518,-84 518,-84 518,-96 518,-96 518,-102 512,-108 506,-108"/>
<text text-anchor="middle" x="466" y="-87.5" font-family="sans" font-size="10.00">aggregate_counts</text>
</g>
<!-- 1&#45;&gt;0 -->
<g id="edge1" class="edge">
<title>1&#45;&gt;0</title>
<path fill="none" stroke="grey" stroke-width="2" d="M481.08,-71.7C488.39,-63.3 497.31,-53.07 505.34,-43.86"/>
<polygon fill="grey" stroke="grey" stroke-width="2" points="508.16,-45.94 512.09,-36.1 502.89,-41.34 508.16,-45.94"/>
</g>
<!-- 2 -->
<g id="node3" class="node">
<title>2</title>
<path fill="none" stroke="#d8a456" stroke-width="2" d="M512.5,-252C512.5,-252 451.5,-252 451.5,-252 445.5,-252 439.5,-246 439.5,-240 439.5,-240 439.5,-228 439.5,-228 439.5,-222 445.5,-216 451.5,-216 451.5,-216 512.5,-216 512.5,-216 518.5,-216 524.5,-222 524.5,-228 524.5,-228 524.5,-240 524.5,-240 524.5,-246 518.5,-252 512.5,-252"/>
<text text-anchor="middle" x="482" y="-231.5" font-family="sans" font-size="10.00">kallisto_quant</text>
</g>
<!-- 2&#45;&gt;1 -->
<g id="edge9" class="edge">
<title>2&#45;&gt;1</title>
<path fill="none" stroke="grey" stroke-width="2" d="M470.11,-215.72C463.99,-205.76 457.16,-192.73 454,-180 448.92,-159.51 452.57,-135.79 457.14,-117.99"/>
<polygon fill="grey" stroke="grey" stroke-width="2" points="460.54,-118.84 459.88,-108.27 453.8,-116.95 460.54,-118.84"/>
</g>
<!-- 5 -->
<g id="node6" class="node">
<title>5</title>
<path fill="none" stroke="#78d856" stroke-width="2" d="M555.5,-180C555.5,-180 474.5,-180 474.5,-180 468.5,-180 462.5,-174 462.5,-168 462.5,-168 462.5,-156 462.5,-156 462.5,-150 468.5,-144 474.5,-144 474.5,-144 555.5,-144 555.5,-144 561.5,-144 567.5,-150 567.5,-156 567.5,-156 567.5,-168 567.5,-168 567.5,-174 561.5,-180 555.5,-180"/>
<text text-anchor="middle" x="515" y="-159.5" font-family="sans" font-size="10.00">create_blank_files</text>
</g>
<!-- 2&#45;&gt;5 -->
<g id="edge13" class="edge">
<title>2&#45;&gt;5</title>
<path fill="none" stroke="grey" stroke-width="2" d="M490.16,-215.7C493.91,-207.73 498.45,-198.1 502.62,-189.26"/>
<polygon fill="grey" stroke="grey" stroke-width="2" points="505.84,-190.64 506.94,-180.1 499.51,-187.66 505.84,-190.64"/>
</g>
<!-- 3 -->
<g id="node4" class="node">
<title>3</title>
<path fill="none" stroke="#56d87b" stroke-width="2" d="M624,-324C624,-324 564,-324 564,-324 558,-324 552,-318 552,-312 552,-312 552,-300 552,-300 552,-294 558,-288 564,-288 564,-288 624,-288 624,-288 630,-288 636,-294 636,-300 636,-300 636,-312 636,-312 636,-318 630,-324 624,-324"/>
<text text-anchor="middle" x="594" y="-303.5" font-family="sans" font-size="10.00">kallisto_index</text>
</g>
<!-- 3&#45;&gt;2 -->
<g id="edge11" class="edge">
<title>3&#45;&gt;2</title>
<path fill="none" stroke="grey" stroke-width="2" d="M566.6,-287.88C552.09,-278.81 534.08,-267.55 518.41,-257.76"/>
<polygon fill="grey" stroke="grey" stroke-width="2" points="519.84,-254.52 509.5,-252.19 516.13,-260.46 519.84,-254.52"/>
</g>
<!-- 7 -->
<g id="node8" class="node">
<title>7</title>
<path fill="none" stroke="#d8a456" stroke-width="2" d="M374.5,-252C374.5,-252 313.5,-252 313.5,-252 307.5,-252 301.5,-246 301.5,-240 301.5,-240 301.5,-228 301.5,-228 301.5,-222 307.5,-216 313.5,-216 313.5,-216 374.5,-216 374.5,-216 380.5,-216 386.5,-222 386.5,-228 386.5,-228 386.5,-240 386.5,-240 386.5,-246 380.5,-252 374.5,-252"/>
<text text-anchor="middle" x="344" y="-231.5" font-family="sans" font-size="10.00">kallisto_quant</text>
</g>
<!-- 3&#45;&gt;7 -->
<g id="edge16" class="edge">
<title>3&#45;&gt;7</title>
<path fill="none" stroke="grey" stroke-width="2" d="M551.76,-290.7C548.8,-289.77 545.86,-288.86 543,-288 493.59,-273.2 436.66,-258.25 396.39,-248.02"/>
<polygon fill="grey" stroke="grey" stroke-width="2" points="397.08,-244.58 386.53,-245.52 395.36,-251.37 397.08,-244.58"/>
</g>
<!-- 10 -->
<g id="node11" class="node">
<title>10</title>
<path fill="none" stroke="#d8a456" stroke-width="2" d="M130.5,-252C130.5,-252 69.5,-252 69.5,-252 63.5,-252 57.5,-246 57.5,-240 57.5,-240 57.5,-228 57.5,-228 57.5,-222 63.5,-216 69.5,-216 69.5,-216 130.5,-216 130.5,-216 136.5,-216 142.5,-222 142.5,-228 142.5,-228 142.5,-240 142.5,-240 142.5,-246 136.5,-252 130.5,-252"/>
<text text-anchor="middle" x="100" y="-231.5" font-family="sans" font-size="10.00">kallisto_quant</text>
</g>
<!-- 3&#45;&gt;10 -->
<g id="edge20" class="edge">
<title>3&#45;&gt;10</title>
<path fill="none" stroke="grey" stroke-width="2" d="M551.9,-290.15C548.91,-289.35 545.92,-288.62 543,-288 380.08,-253.45 334.22,-279.72 170,-252 164.31,-251.04 158.4,-249.87 152.53,-248.61"/>
<polygon fill="grey" stroke="grey" stroke-width="2" points="153.27,-245.19 142.74,-246.4 151.73,-252.01 153.27,-245.19"/>
</g>
<!-- 13 -->
<g id="node14" class="node">
<title>13</title>
<path fill="none" stroke="#d8a456" stroke-width="2" d="M252.5,-252C252.5,-252 191.5,-252 191.5,-252 185.5,-252 179.5,-246 179.5,-240 179.5,-240 179.5,-228 179.5,-228 179.5,-222 185.5,-216 191.5,-216 191.5,-216 252.5,-216 252.5,-216 258.5,-216 264.5,-222 264.5,-228 264.5,-228 264.5,-240 264.5,-240 264.5,-246 258.5,-252 252.5,-252"/>
<text text-anchor="middle" x="222" y="-231.5" font-family="sans" font-size="10.00">kallisto_quant</text>
</g>
<!-- 3&#45;&gt;13 -->
<g id="edge24" class="edge">
<title>3&#45;&gt;13</title>
<path fill="none" stroke="grey" stroke-width="2" d="M551.87,-290.31C548.88,-289.47 545.91,-288.69 543,-288 433.32,-262.08 402.66,-273.32 292,-252 286.34,-250.91 280.44,-249.66 274.58,-248.34"/>
<polygon fill="grey" stroke="grey" stroke-width="2" points="275.33,-244.92 264.8,-246.08 273.76,-251.74 275.33,-244.92"/>
</g>
<!-- 16 -->
<g id="node17" class="node">
<title>16</title>
<path fill="none" stroke="#d8a456" stroke-width="2" d="M626.5,-252C626.5,-252 565.5,-252 565.5,-252 559.5,-252 553.5,-246 553.5,-240 553.5,-240 553.5,-228 553.5,-228 553.5,-222 559.5,-216 565.5,-216 565.5,-216 626.5,-216 626.5,-216 632.5,-216 638.5,-222 638.5,-228 638.5,-228 638.5,-240 638.5,-240 638.5,-246 632.5,-252 626.5,-252"/>
<text text-anchor="middle" x="596" y="-231.5" font-family="sans" font-size="10.00">kallisto_quant</text>
</g>
<!-- 3&#45;&gt;16 -->
<g id="edge28" class="edge">
<title>3&#45;&gt;16</title>
<path fill="none" stroke="grey" stroke-width="2" d="M594.49,-287.7C594.71,-279.98 594.98,-270.71 595.23,-262.11"/>
<polygon fill="grey" stroke="grey" stroke-width="2" points="598.72,-262.2 595.51,-252.1 591.73,-262 598.72,-262.2"/>
</g>
<!-- 19 -->
<g id="node20" class="node">
<title>19</title>
<path fill="none" stroke="#d8a456" stroke-width="2" d="M740.5,-252C740.5,-252 679.5,-252 679.5,-252 673.5,-252 667.5,-246 667.5,-240 667.5,-240 667.5,-228 667.5,-228 667.5,-222 673.5,-216 679.5,-216 679.5,-216 740.5,-216 740.5,-216 746.5,-216 752.5,-222 752.5,-228 752.5,-228 752.5,-240 752.5,-240 752.5,-246 746.5,-252 740.5,-252"/>
<text text-anchor="middle" x="710" y="-231.5" font-family="sans" font-size="10.00">kallisto_quant</text>
</g>
<!-- 3&#45;&gt;19 -->
<g id="edge32" class="edge">
<title>3&#45;&gt;19</title>
<path fill="none" stroke="grey" stroke-width="2" d="M622.38,-287.88C637.54,-278.72 656.41,-267.34 672.74,-257.48"/>
<polygon fill="grey" stroke="grey" stroke-width="2" points="674.76,-260.35 681.51,-252.19 671.14,-254.36 674.76,-260.35"/>
</g>
<!-- 22 -->
<g id="node23" class="node">
<title>22</title>
<path fill="none" stroke="#d8a456" stroke-width="2" d="M862.5,-252C862.5,-252 801.5,-252 801.5,-252 795.5,-252 789.5,-246 789.5,-240 789.5,-240 789.5,-228 789.5,-228 789.5,-222 795.5,-216 801.5,-216 801.5,-216 862.5,-216 862.5,-216 868.5,-216 874.5,-222 874.5,-228 874.5,-228 874.5,-240 874.5,-240 874.5,-246 868.5,-252 862.5,-252"/>
<text text-anchor="middle" x="832" y="-231.5" font-family="sans" font-size="10.00">kallisto_quant</text>
</g>
<!-- 3&#45;&gt;22 -->
<g id="edge36" class="edge">
<title>3&#45;&gt;22</title>
<path fill="none" stroke="grey" stroke-width="2" d="M636.25,-290.75C639.21,-289.81 642.15,-288.88 645,-288 690.14,-274.09 741.83,-259.54 779.41,-249.22"/>
<polygon fill="grey" stroke="grey" stroke-width="2" points="780.41,-252.57 789.13,-246.55 778.56,-245.82 780.41,-252.57"/>
</g>
<!-- 25 -->
<g id="node26" class="node">
<title>25</title>
<path fill="none" stroke="#d8a456" stroke-width="2" d="M984.5,-252C984.5,-252 923.5,-252 923.5,-252 917.5,-252 911.5,-246 911.5,-240 911.5,-240 911.5,-228 911.5,-228 911.5,-222 917.5,-216 923.5,-216 923.5,-216 984.5,-216 984.5,-216 990.5,-216 996.5,-222 996.5,-228 996.5,-228 996.5,-240 996.5,-240 996.5,-246 990.5,-252 984.5,-252"/>
<text text-anchor="middle" x="954" y="-231.5" font-family="sans" font-size="10.00">kallisto_quant</text>
</g>
<!-- 3&#45;&gt;25 -->
<g id="edge40" class="edge">
<title>3&#45;&gt;25</title>
<path fill="none" stroke="grey" stroke-width="2" d="M636.14,-290.33C639.12,-289.49 642.1,-288.7 645,-288 749.45,-262.92 778.59,-272.7 884,-252 889.66,-250.89 895.55,-249.63 901.41,-248.3"/>
<polygon fill="grey" stroke="grey" stroke-width="2" points="902.24,-251.7 911.19,-246.03 900.66,-244.88 902.24,-251.7"/>
</g>
<!-- 4 -->
<g id="node5" class="node">
<title>4</title>
<path fill="none" stroke="#d85656" stroke-width="2" d="M522,-324C522,-324 426,-324 426,-324 420,-324 414,-318 414,-312 414,-312 414,-300 414,-300 414,-294 420,-288 426,-288 426,-288 522,-288 522,-288 528,-288 534,-294 534,-300 534,-300 534,-312 534,-312 534,-318 528,-324 522,-324"/>
<text text-anchor="middle" x="474" y="-309" font-family="sans" font-size="10.00">fastqc</text>
<text text-anchor="middle" x="474" y="-298" font-family="sans" font-size="10.00">sample: ERR6484003</text>
</g>
<!-- 4&#45;&gt;2 -->
<g id="edge12" class="edge">
<title>4&#45;&gt;2</title>
<path fill="none" stroke="grey" stroke-width="2" d="M475.98,-287.7C476.86,-279.98 477.92,-270.71 478.9,-262.11"/>
<polygon fill="grey" stroke="grey" stroke-width="2" points="482.39,-262.44 480.05,-252.1 475.43,-261.64 482.39,-262.44"/>
</g>
<!-- 5&#45;&gt;1 -->
<g id="edge10" class="edge">
<title>5&#45;&gt;1</title>
<path fill="none" stroke="grey" stroke-width="2" d="M502.89,-143.7C497.13,-135.47 490.14,-125.48 483.79,-116.42"/>
<polygon fill="grey" stroke="grey" stroke-width="2" points="486.58,-114.29 477.97,-108.1 480.84,-118.3 486.58,-114.29"/>
</g>
<!-- 6 -->
<g id="node7" class="node">
<title>6</title>
<path fill="none" stroke="#c6d856" stroke-width="2" d="M384,-108C384,-108 304,-108 304,-108 298,-108 292,-102 292,-96 292,-96 292,-84 292,-84 292,-78 298,-72 304,-72 304,-72 384,-72 384,-72 390,-72 396,-78 396,-84 396,-84 396,-96 396,-96 396,-102 390,-108 384,-108"/>
<text text-anchor="middle" x="344" y="-87.5" font-family="sans" font-size="10.00">aggregate_counts</text>
</g>
<!-- 5&#45;&gt;6 -->
<g id="edge15" class="edge">
<title>5&#45;&gt;6</title>
<path fill="none" stroke="grey" stroke-width="2" d="M473.17,-143.88C449.58,-134.22 419.94,-122.09 395,-111.88"/>
<polygon fill="grey" stroke="grey" stroke-width="2" points="396.28,-108.62 385.7,-108.07 393.62,-115.1 396.28,-108.62"/>
</g>
<!-- 9 -->
<g id="node10" class="node">
<title>9</title>
<path fill="none" stroke="#c6d856" stroke-width="2" d="M140,-108C140,-108 60,-108 60,-108 54,-108 48,-102 48,-96 48,-96 48,-84 48,-84 48,-78 54,-72 60,-72 60,-72 140,-72 140,-72 146,-72 152,-78 152,-84 152,-84 152,-96 152,-96 152,-102 146,-108 140,-108"/>
<text text-anchor="middle" x="100" y="-87.5" font-family="sans" font-size="10.00">aggregate_counts</text>
</g>
<!-- 5&#45;&gt;9 -->
<g id="edge19" class="edge">
<title>5&#45;&gt;9</title>
<path fill="none" stroke="grey" stroke-width="2" d="M462.45,-155.19C394.97,-147.26 274.14,-131.55 161.93,-108.06"/>
<polygon fill="grey" stroke="grey" stroke-width="2" points="162.65,-104.63 152.14,-105.99 161.2,-111.48 162.65,-104.63"/>
</g>
<!-- 12 -->
<g id="node13" class="node">
<title>12</title>
<path fill="none" stroke="#c6d856" stroke-width="2" d="M262,-108C262,-108 182,-108 182,-108 176,-108 170,-102 170,-96 170,-96 170,-84 170,-84 170,-78 176,-72 182,-72 182,-72 262,-72 262,-72 268,-72 274,-78 274,-84 274,-84 274,-96 274,-96 274,-102 268,-108 262,-108"/>
<text text-anchor="middle" x="222" y="-87.5" font-family="sans" font-size="10.00">aggregate_counts</text>
</g>
<!-- 5&#45;&gt;12 -->
<g id="edge23" class="edge">
<title>5&#45;&gt;12</title>
<path fill="none" stroke="grey" stroke-width="2" d="M462.31,-149.71C417.39,-139.91 350.87,-125.01 284.06,-108.21"/>
<polygon fill="grey" stroke="grey" stroke-width="2" points="284.75,-104.78 274.2,-105.72 283.04,-111.57 284.75,-104.78"/>
</g>
<!-- 15 -->
<g id="node16" class="node">
<title>15</title>
<path fill="none" stroke="#c6d856" stroke-width="2" d="M628,-108C628,-108 548,-108 548,-108 542,-108 536,-102 536,-96 536,-96 536,-84 536,-84 536,-78 542,-72 548,-72 548,-72 628,-72 628,-72 634,-72 640,-78 640,-84 640,-84 640,-96 640,-96 640,-102 634,-108 628,-108"/>
<text text-anchor="middle" x="588" y="-87.5" font-family="sans" font-size="10.00">aggregate_counts</text>
</g>
<!-- 5&#45;&gt;15 -->
<g id="edge27" class="edge">
<title>5&#45;&gt;15</title>
<path fill="none" stroke="grey" stroke-width="2" d="M533.04,-143.7C542.06,-135.05 553.12,-124.45 562.94,-115.03"/>
<polygon fill="grey" stroke="grey" stroke-width="2" points="565.37,-117.55 570.16,-108.1 560.52,-112.5 565.37,-117.55"/>
</g>
<!-- 18 -->
<g id="node19" class="node">
<title>18</title>
<path fill="none" stroke="#c6d856" stroke-width="2" d="M750,-108C750,-108 670,-108 670,-108 664,-108 658,-102 658,-96 658,-96 658,-84 658,-84 658,-78 664,-72 670,-72 670,-72 750,-72 750,-72 756,-72 762,-78 762,-84 762,-84 762,-96 762,-96 762,-102 756,-108 750,-108"/>
<text text-anchor="middle" x="710" y="-87.5" font-family="sans" font-size="10.00">aggregate_counts</text>
</g>
<!-- 5&#45;&gt;18 -->
<g id="edge31" class="edge">
<title>5&#45;&gt;18</title>
<path fill="none" stroke="grey" stroke-width="2" d="M562.7,-143.88C589.95,-134.09 624.3,-121.77 652.97,-111.47"/>
<polygon fill="grey" stroke="grey" stroke-width="2" points="654.22,-114.74 662.45,-108.07 651.86,-108.15 654.22,-114.74"/>
</g>
<!-- 21 -->
<g id="node22" class="node">
<title>21</title>
<path fill="none" stroke="#c6d856" stroke-width="2" d="M872,-108C872,-108 792,-108 792,-108 786,-108 780,-102 780,-96 780,-96 780,-84 780,-84 780,-78 786,-72 792,-72 792,-72 872,-72 872,-72 878,-72 884,-78 884,-84 884,-84 884,-96 884,-96 884,-102 878,-108 872,-108"/>
<text text-anchor="middle" x="832" y="-87.5" font-family="sans" font-size="10.00">aggregate_counts</text>
</g>
<!-- 5&#45;&gt;21 -->
<g id="edge35" class="edge">
<title>5&#45;&gt;21</title>
<path fill="none" stroke="grey" stroke-width="2" d="M567.69,-151.17C617.38,-141.66 694.14,-126.35 769.66,-108.25"/>
<polygon fill="grey" stroke="grey" stroke-width="2" points="770.92,-111.54 779.82,-105.79 769.28,-104.74 770.92,-111.54"/>
</g>
<!-- 24 -->
<g id="node25" class="node">
<title>24</title>
<path fill="none" stroke="#c6d856" stroke-width="2" d="M994,-108C994,-108 914,-108 914,-108 908,-108 902,-102 902,-96 902,-96 902,-84 902,-84 902,-78 908,-72 914,-72 914,-72 994,-72 994,-72 1000,-72 1006,-78 1006,-84 1006,-84 1006,-96 1006,-96 1006,-102 1000,-108 994,-108"/>
<text text-anchor="middle" x="954" y="-87.5" font-family="sans" font-size="10.00">aggregate_counts</text>
</g>
<!-- 5&#45;&gt;24 -->
<g id="edge39" class="edge">
<title>5&#45;&gt;24</title>
<path fill="none" stroke="grey" stroke-width="2" d="M567.66,-155.85C639.11,-148.36 770.84,-132.82 892.05,-108.05"/>
<polygon fill="grey" stroke="grey" stroke-width="2" points="892.78,-111.47 901.87,-106.02 891.37,-104.62 892.78,-111.47"/>
</g>
<!-- 6&#45;&gt;0 -->
<g id="edge2" class="edge">
<title>6&#45;&gt;0</title>
<path fill="none" stroke="grey" stroke-width="2" d="M388.77,-71.88C414.12,-62.18 446.01,-49.98 472.77,-39.74"/>
<polygon fill="grey" stroke="grey" stroke-width="2" points="474.29,-42.91 482.38,-36.07 471.79,-36.37 474.29,-42.91"/>
</g>
<!-- 7&#45;&gt;6 -->
<g id="edge14" class="edge">
<title>7&#45;&gt;6</title>
<path fill="none" stroke="grey" stroke-width="2" d="M344,-215.87C344,-191.67 344,-147.21 344,-118.39"/>
<polygon fill="grey" stroke="grey" stroke-width="2" points="347.5,-118.19 344,-108.19 340.5,-118.19 347.5,-118.19"/>
</g>
<!-- 8 -->
<g id="node9" class="node">
<title>8</title>
<path fill="none" stroke="#d85656" stroke-width="2" d="M384,-324C384,-324 288,-324 288,-324 282,-324 276,-318 276,-312 276,-312 276,-300 276,-300 276,-294 282,-288 288,-288 288,-288 384,-288 384,-288 390,-288 396,-294 396,-300 396,-300 396,-312 396,-312 396,-318 390,-324 384,-324"/>
<text text-anchor="middle" x="336" y="-309" font-family="sans" font-size="10.00">fastqc</text>
<text text-anchor="middle" x="336" y="-298" font-family="sans" font-size="10.00">sample: ERR6484009</text>
</g>
<!-- 8&#45;&gt;7 -->
<g id="edge17" class="edge">
<title>8&#45;&gt;7</title>
<path fill="none" stroke="grey" stroke-width="2" d="M337.98,-287.7C338.86,-279.98 339.92,-270.71 340.9,-262.11"/>
<polygon fill="grey" stroke="grey" stroke-width="2" points="344.39,-262.44 342.05,-252.1 337.43,-261.64 344.39,-262.44"/>
</g>
<!-- 9&#45;&gt;0 -->
<g id="edge3" class="edge">
<title>9&#45;&gt;0</title>
<path fill="none" stroke="grey" stroke-width="2" d="M152.14,-74C155.13,-73.28 158.1,-72.61 161,-72 261.5,-50.81 379.32,-35.41 453.57,-26.83"/>
<polygon fill="grey" stroke="grey" stroke-width="2" points="454.21,-30.28 463.75,-25.67 453.41,-23.33 454.21,-30.28"/>
</g>
<!-- 10&#45;&gt;9 -->
<g id="edge18" class="edge">
<title>10&#45;&gt;9</title>
<path fill="none" stroke="grey" stroke-width="2" d="M100,-215.87C100,-191.67 100,-147.21 100,-118.39"/>
<polygon fill="grey" stroke="grey" stroke-width="2" points="103.5,-118.19 100,-108.19 96.5,-118.19 103.5,-118.19"/>
</g>
<!-- 11 -->
<g id="node12" class="node">
<title>11</title>
<path fill="none" stroke="#d85656" stroke-width="2" d="M108,-324C108,-324 12,-324 12,-324 6,-324 0,-318 0,-312 0,-312 0,-300 0,-300 0,-294 6,-288 12,-288 12,-288 108,-288 108,-288 114,-288 120,-294 120,-300 120,-300 120,-312 120,-312 120,-318 114,-324 108,-324"/>
<text text-anchor="middle" x="60" y="-309" font-family="sans" font-size="10.00">fastqc</text>
<text text-anchor="middle" x="60" y="-298" font-family="sans" font-size="10.00">sample: ERR6484000</text>
</g>
<!-- 11&#45;&gt;10 -->
<g id="edge21" class="edge">
<title>11&#45;&gt;10</title>
<path fill="none" stroke="grey" stroke-width="2" d="M69.89,-287.7C74.49,-279.64 80.06,-269.89 85.15,-260.98"/>
<polygon fill="grey" stroke="grey" stroke-width="2" points="88.3,-262.52 90.23,-252.1 82.23,-259.05 88.3,-262.52"/>
</g>
<!-- 12&#45;&gt;0 -->
<g id="edge4" class="edge">
<title>12&#45;&gt;0</title>
<path fill="none" stroke="grey" stroke-width="2" d="M274.19,-74.24C277.17,-73.47 280.12,-72.71 283,-72 340.18,-57.84 405.4,-43.77 454.02,-33.7"/>
<polygon fill="grey" stroke="grey" stroke-width="2" points="454.74,-37.12 463.83,-31.67 453.33,-30.27 454.74,-37.12"/>
</g>
<!-- 13&#45;&gt;12 -->
<g id="edge22" class="edge">
<title>13&#45;&gt;12</title>
<path fill="none" stroke="grey" stroke-width="2" d="M222,-215.87C222,-191.67 222,-147.21 222,-118.39"/>
<polygon fill="grey" stroke="grey" stroke-width="2" points="225.5,-118.19 222,-108.19 218.5,-118.19 225.5,-118.19"/>
</g>
<!-- 14 -->
<g id="node15" class="node">
<title>14</title>
<path fill="none" stroke="#d85656" stroke-width="2" d="M246,-324C246,-324 150,-324 150,-324 144,-324 138,-318 138,-312 138,-312 138,-300 138,-300 138,-294 144,-288 150,-288 150,-288 246,-288 246,-288 252,-288 258,-294 258,-300 258,-300 258,-312 258,-312 258,-318 252,-324 246,-324"/>
<text text-anchor="middle" x="198" y="-309" font-family="sans" font-size="10.00">fastqc</text>
<text text-anchor="middle" x="198" y="-298" font-family="sans" font-size="10.00">sample: ERR6484004</text>
</g>
<!-- 14&#45;&gt;13 -->
<g id="edge25" class="edge">
<title>14&#45;&gt;13</title>
<path fill="none" stroke="grey" stroke-width="2" d="M203.93,-287.7C206.61,-279.9 209.83,-270.51 212.8,-261.83"/>
<polygon fill="grey" stroke="grey" stroke-width="2" points="216.2,-262.7 216.14,-252.1 209.58,-260.43 216.2,-262.7"/>
</g>
<!-- 15&#45;&gt;0 -->
<g id="edge5" class="edge">
<title>15&#45;&gt;0</title>
<path fill="none" stroke="grey" stroke-width="2" d="M572.92,-71.7C565.61,-63.3 556.69,-53.07 548.66,-43.86"/>
<polygon fill="grey" stroke="grey" stroke-width="2" points="551.11,-41.34 541.91,-36.1 545.84,-45.94 551.11,-41.34"/>
</g>
<!-- 16&#45;&gt;15 -->
<g id="edge26" class="edge">
<title>16&#45;&gt;15</title>
<path fill="none" stroke="grey" stroke-width="2" d="M595.04,-215.87C593.67,-191.67 591.17,-147.21 589.54,-118.39"/>
<polygon fill="grey" stroke="grey" stroke-width="2" points="593.03,-117.98 588.97,-108.19 586.04,-118.37 593.03,-117.98"/>
</g>
<!-- 17 -->
<g id="node18" class="node">
<title>17</title>
<path fill="none" stroke="#d85656" stroke-width="2" d="M762,-324C762,-324 666,-324 666,-324 660,-324 654,-318 654,-312 654,-312 654,-300 654,-300 654,-294 660,-288 666,-288 666,-288 762,-288 762,-288 768,-288 774,-294 774,-300 774,-300 774,-312 774,-312 774,-318 768,-324 762,-324"/>
<text text-anchor="middle" x="714" y="-309" font-family="sans" font-size="10.00">fastqc</text>
<text text-anchor="middle" x="714" y="-298" font-family="sans" font-size="10.00">sample: ERR6484001</text>
</g>
<!-- 17&#45;&gt;16 -->
<g id="edge29" class="edge">
<title>17&#45;&gt;16</title>
<path fill="none" stroke="grey" stroke-width="2" d="M685.13,-287.88C669.71,-278.72 650.52,-267.34 633.9,-257.48"/>
<polygon fill="grey" stroke="grey" stroke-width="2" points="635.36,-254.28 624.98,-252.19 631.79,-260.3 635.36,-254.28"/>
</g>
<!-- 18&#45;&gt;0 -->
<g id="edge6" class="edge">
<title>18&#45;&gt;0</title>
<path fill="none" stroke="grey" stroke-width="2" d="M665.23,-71.88C639.88,-62.18 607.99,-49.98 581.23,-39.74"/>
<polygon fill="grey" stroke="grey" stroke-width="2" points="582.21,-36.37 571.62,-36.07 579.71,-42.91 582.21,-36.37"/>
</g>
<!-- 19&#45;&gt;18 -->
<g id="edge30" class="edge">
<title>19&#45;&gt;18</title>
<path fill="none" stroke="grey" stroke-width="2" d="M710,-215.87C710,-191.67 710,-147.21 710,-118.39"/>
<polygon fill="grey" stroke="grey" stroke-width="2" points="713.5,-118.19 710,-108.19 706.5,-118.19 713.5,-118.19"/>
</g>
<!-- 20 -->
<g id="node21" class="node">
<title>20</title>
<path fill="none" stroke="#d85656" stroke-width="2" d="M900,-324C900,-324 804,-324 804,-324 798,-324 792,-318 792,-312 792,-312 792,-300 792,-300 792,-294 798,-288 804,-288 804,-288 900,-288 900,-288 906,-288 912,-294 912,-300 912,-300 912,-312 912,-312 912,-318 906,-324 900,-324"/>
<text text-anchor="middle" x="852" y="-309" font-family="sans" font-size="10.00">fastqc</text>
<text text-anchor="middle" x="852" y="-298" font-family="sans" font-size="10.00">sample: ERR6483999</text>
</g>
<!-- 20&#45;&gt;19 -->
<g id="edge33" class="edge">
<title>20&#45;&gt;19</title>
<path fill="none" stroke="grey" stroke-width="2" d="M817.26,-287.88C798.18,-278.47 774.32,-266.71 753.95,-256.67"/>
<polygon fill="grey" stroke="grey" stroke-width="2" points="755.39,-253.47 744.87,-252.19 752.29,-259.75 755.39,-253.47"/>
</g>
<!-- 21&#45;&gt;0 -->
<g id="edge7" class="edge">
<title>21&#45;&gt;0</title>
<path fill="none" stroke="grey" stroke-width="2" d="M779.81,-74.24C776.83,-73.47 773.88,-72.71 771,-72 713.82,-57.84 648.6,-43.77 599.98,-33.7"/>
<polygon fill="grey" stroke="grey" stroke-width="2" points="600.67,-30.27 590.17,-31.67 599.26,-37.12 600.67,-30.27"/>
</g>
<!-- 22&#45;&gt;21 -->
<g id="edge34" class="edge">
<title>22&#45;&gt;21</title>
<path fill="none" stroke="grey" stroke-width="2" d="M832,-215.87C832,-191.67 832,-147.21 832,-118.39"/>
<polygon fill="grey" stroke="grey" stroke-width="2" points="835.5,-118.19 832,-108.19 828.5,-118.19 835.5,-118.19"/>
</g>
<!-- 23 -->
<g id="node24" class="node">
<title>23</title>
<path fill="none" stroke="#d85656" stroke-width="2" d="M1038,-324C1038,-324 942,-324 942,-324 936,-324 930,-318 930,-312 930,-312 930,-300 930,-300 930,-294 936,-288 942,-288 942,-288 1038,-288 1038,-288 1044,-288 1050,-294 1050,-300 1050,-300 1050,-312 1050,-312 1050,-318 1044,-324 1038,-324"/>
<text text-anchor="middle" x="990" y="-309" font-family="sans" font-size="10.00">fastqc</text>
<text text-anchor="middle" x="990" y="-298" font-family="sans" font-size="10.00">sample: ERR6484007</text>
</g>
<!-- 23&#45;&gt;22 -->
<g id="edge37" class="edge">
<title>23&#45;&gt;22</title>
<path fill="none" stroke="grey" stroke-width="2" d="M951.35,-287.88C929.75,-278.31 902.65,-266.3 879.73,-256.15"/>
<polygon fill="grey" stroke="grey" stroke-width="2" points="881.09,-252.92 870.53,-252.07 878.25,-259.32 881.09,-252.92"/>
</g>
<!-- 24&#45;&gt;0 -->
<g id="edge8" class="edge">
<title>24&#45;&gt;0</title>
<path fill="none" stroke="grey" stroke-width="2" d="M901.86,-74C898.87,-73.28 895.9,-72.61 893,-72 792.5,-50.81 674.68,-35.41 600.43,-26.83"/>
<polygon fill="grey" stroke="grey" stroke-width="2" points="600.59,-23.33 590.25,-25.67 599.79,-30.28 600.59,-23.33"/>
</g>
<!-- 25&#45;&gt;24 -->
<g id="edge38" class="edge">
<title>25&#45;&gt;24</title>
<path fill="none" stroke="grey" stroke-width="2" d="M954,-215.87C954,-191.67 954,-147.21 954,-118.39"/>
<polygon fill="grey" stroke="grey" stroke-width="2" points="957.5,-118.19 954,-108.19 950.5,-118.19 957.5,-118.19"/>
</g>
<!-- 26 -->
<g id="node27" class="node">
<title>26</title>
<path fill="none" stroke="#d85656" stroke-width="2" d="M1176,-324C1176,-324 1080,-324 1080,-324 1074,-324 1068,-318 1068,-312 1068,-312 1068,-300 1068,-300 1068,-294 1074,-288 1080,-288 1080,-288 1176,-288 1176,-288 1182,-288 1188,-294 1188,-300 1188,-300 1188,-312 1188,-312 1188,-318 1182,-324 1176,-324"/>
<text text-anchor="middle" x="1128" y="-309" font-family="sans" font-size="10.00">fastqc</text>
<text text-anchor="middle" x="1128" y="-298" font-family="sans" font-size="10.00">sample: ERR6484008</text>
</g>
<!-- 26&#45;&gt;25 -->
<g id="edge41" class="edge">
<title>26&#45;&gt;25</title>
<path fill="none" stroke="grey" stroke-width="2" d="M1085.43,-287.88C1061.44,-278.22 1031.27,-266.09 1005.9,-255.88"/>
<polygon fill="grey" stroke="grey" stroke-width="2" points="1007.01,-252.55 996.43,-252.07 1004.4,-259.05 1007.01,-252.55"/>
</g>
</g>
</svg>
