<?xml version="1.0" encoding="UTF-8" standalone="no"?>
<!DOCTYPE svg PUBLIC "-//W3C//DTD SVG 1.1//EN"
 "http://www.w3.org/Graphics/SVG/1.1/DTD/svg11.dtd">
<!-- Generated by graphviz version 2.43.0 (0)
 -->
<!-- Title: snakemake_dag Pages: 1 -->
<svg width="1265pt" height="764pt"
 viewBox="0.00 0.00 1264.75 764.00" xmlns="http://www.w3.org/2000/svg" xmlns:xlink="http://www.w3.org/1999/xlink">
<g id="graph0" class="graph" transform="scale(1 1) rotate(0) translate(4 760)">
<title>snakemake_dag</title>
<polygon fill="white" stroke="transparent" points="-4,4 -4,-760 1260.75,-760 1260.75,4 -4,4"/>
<!-- 0 -->
<g id="node1" class="node">
<title>0</title>
<path fill="none" stroke="#78d856" stroke-width="2" d="M559.25,-36C559.25,-36 500.25,-36 500.25,-36 494.25,-36 488.25,-30 488.25,-24 488.25,-24 488.25,-12 488.25,-12 488.25,-6 494.25,0 500.25,0 500.25,0 559.25,0 559.25,0 565.25,0 571.25,-6 571.25,-12 571.25,-12 571.25,-24 571.25,-24 571.25,-30 565.25,-36 559.25,-36"/>
<text text-anchor="middle" x="529.75" y="-15.5" font-family="sans" font-size="10.00">complete_run</text>
</g>
<!-- 1 -->
<g id="node2" class="node">
<title>1</title>
<path fill="none" stroke="#56b9d8" stroke-width="2" d="M555.75,-108C555.75,-108 503.75,-108 503.75,-108 497.75,-108 491.75,-102 491.75,-96 491.75,-96 491.75,-84 491.75,-84 491.75,-78 497.75,-72 503.75,-72 503.75,-72 555.75,-72 555.75,-72 561.75,-72 567.75,-78 567.75,-84 567.75,-84 567.75,-96 567.75,-96 567.75,-102 561.75,-108 555.75,-108"/>
<text text-anchor="middle" x="529.75" y="-87.5" font-family="sans" font-size="10.00">write_config</text>
</g>
<!-- 1&#45;&gt;0 -->
<g id="edge1" class="edge">
<title>1&#45;&gt;0</title>
<path fill="none" stroke="grey" stroke-width="2" d="M529.75,-71.7C529.75,-63.98 529.75,-54.71 529.75,-46.11"/>
<polygon fill="grey" stroke="grey" stroke-width="2" points="533.25,-46.1 529.75,-36.1 526.25,-46.1 533.25,-46.1"/>
</g>
<!-- 2 -->
<g id="node3" class="node">
<title>2</title>
<path fill="none" stroke="#d6d856" stroke-width="2" d="M565.75,-180C565.75,-180 493.75,-180 493.75,-180 487.75,-180 481.75,-174 481.75,-168 481.75,-168 481.75,-156 481.75,-156 481.75,-150 487.75,-144 493.75,-144 493.75,-144 565.75,-144 565.75,-144 571.75,-144 577.75,-150 577.75,-156 577.75,-156 577.75,-168 577.75,-168 577.75,-174 571.75,-180 565.75,-180"/>
<text text-anchor="middle" x="529.75" y="-159.5" font-family="sans" font-size="10.00">move_final_files</text>
</g>
<!-- 2&#45;&gt;1 -->
<g id="edge2" class="edge">
<title>2&#45;&gt;1</title>
<path fill="none" stroke="grey" stroke-width="2" d="M529.75,-143.7C529.75,-135.98 529.75,-126.71 529.75,-118.11"/>
<polygon fill="grey" stroke="grey" stroke-width="2" points="533.25,-118.1 529.75,-108.1 526.25,-118.1 533.25,-118.1"/>
</g>
<!-- 3 -->
<g id="node4" class="node">
<title>3</title>
<path fill="none" stroke="#d89556" stroke-width="2" d="M782.75,-468C782.75,-468 650.75,-468 650.75,-468 644.75,-468 638.75,-462 638.75,-456 638.75,-456 638.75,-444 638.75,-444 638.75,-438 644.75,-432 650.75,-432 650.75,-432 782.75,-432 782.75,-432 788.75,-432 794.75,-438 794.75,-444 794.75,-444 794.75,-456 794.75,-456 794.75,-462 788.75,-468 782.75,-468"/>
<text text-anchor="middle" x="716.75" y="-447.5" font-family="sans" font-size="10.00">alignment_summary_figures</text>
</g>
<!-- 3&#45;&gt;2 -->
<g id="edge3" class="edge">
<title>3&#45;&gt;2</title>
<path fill="none" stroke="grey" stroke-width="2" d="M707.46,-431.75C685.97,-392.31 630.37,-292.99 574.75,-216 567.82,-206.41 559.6,-196.4 552.1,-187.69"/>
<polygon fill="grey" stroke="grey" stroke-width="2" points="554.68,-185.33 545.46,-180.11 549.41,-189.94 554.68,-185.33"/>
</g>
<!-- 4 -->
<g id="node5" class="node">
<title>4</title>
<path fill="none" stroke="#567bd8" stroke-width="2" d="M438.75,-540C438.75,-540 334.75,-540 334.75,-540 328.75,-540 322.75,-534 322.75,-528 322.75,-528 322.75,-516 322.75,-516 322.75,-510 328.75,-504 334.75,-504 334.75,-504 438.75,-504 438.75,-504 444.75,-504 450.75,-510 450.75,-516 450.75,-516 450.75,-528 450.75,-528 450.75,-534 444.75,-540 438.75,-540"/>
<text text-anchor="middle" x="386.75" y="-519.5" font-family="sans" font-size="10.00">aggregate_tmp_counts</text>
</g>
<!-- 4&#45;&gt;3 -->
<g id="edge8" class="edge">
<title>4&#45;&gt;3</title>
<path fill="none" stroke="grey" stroke-width="2" d="M450.77,-507.42C501.43,-496.67 572.72,-481.55 628.74,-469.67"/>
<polygon fill="grey" stroke="grey" stroke-width="2" points="629.61,-473.06 638.66,-467.56 628.15,-466.22 629.61,-473.06"/>
</g>
<!-- 33 -->
<g id="node34" class="node">
<title>33</title>
<path fill="none" stroke="#b6d856" stroke-width="2" d="M608.25,-468C608.25,-468 479.25,-468 479.25,-468 473.25,-468 467.25,-462 467.25,-456 467.25,-456 467.25,-444 467.25,-444 467.25,-438 473.25,-432 479.25,-432 479.25,-432 608.25,-432 608.25,-432 614.25,-432 620.25,-438 620.25,-444 620.25,-444 620.25,-456 620.25,-456 620.25,-462 614.25,-468 608.25,-468"/>
<text text-anchor="middle" x="543.75" y="-447.5" font-family="sans" font-size="10.00">transpose_and_filter_counts</text>
</g>
<!-- 4&#45;&gt;33 -->
<g id="edge54" class="edge">
<title>4&#45;&gt;33</title>
<path fill="none" stroke="grey" stroke-width="2" d="M425.16,-503.88C446.62,-494.31 473.55,-482.3 496.32,-472.15"/>
<polygon fill="grey" stroke="grey" stroke-width="2" points="497.76,-475.34 505.47,-468.07 494.91,-468.94 497.76,-475.34"/>
</g>
<!-- 5 -->
<g id="node6" class="node">
<title>5</title>
<path fill="none" stroke="#59d856" stroke-width="2" d="M473.25,-684C473.25,-684 412.25,-684 412.25,-684 406.25,-684 400.25,-678 400.25,-672 400.25,-672 400.25,-660 400.25,-660 400.25,-654 406.25,-648 412.25,-648 412.25,-648 473.25,-648 473.25,-648 479.25,-648 485.25,-654 485.25,-660 485.25,-660 485.25,-672 485.25,-672 485.25,-678 479.25,-684 473.25,-684"/>
<text text-anchor="middle" x="442.75" y="-663.5" font-family="sans" font-size="10.00">kallisto_quant</text>
</g>
<!-- 5&#45;&gt;4 -->
<g id="edge17" class="edge">
<title>5&#45;&gt;4</title>
<path fill="none" stroke="grey" stroke-width="2" d="M427.71,-648C419.74,-638.12 410.45,-625.08 404.75,-612 396.16,-592.28 391.61,-568.3 389.24,-550.2"/>
<polygon fill="grey" stroke="grey" stroke-width="2" points="392.69,-549.56 388.05,-540.04 385.74,-550.38 392.69,-549.56"/>
</g>
<!-- 8 -->
<g id="node9" class="node">
<title>8</title>
<path fill="none" stroke="#56d89a" stroke-width="2" d="M575.25,-612C575.25,-612 426.25,-612 426.25,-612 420.25,-612 414.25,-606 414.25,-600 414.25,-600 414.25,-588 414.25,-588 414.25,-582 420.25,-576 426.25,-576 426.25,-576 575.25,-576 575.25,-576 581.25,-576 587.25,-582 587.25,-588 587.25,-588 587.25,-600 587.25,-600 587.25,-606 581.25,-612 575.25,-612"/>
<text text-anchor="middle" x="500.75" y="-591.5" font-family="sans" font-size="10.00">create_tmp_and_summary_files</text>
</g>
<!-- 5&#45;&gt;8 -->
<g id="edge21" class="edge">
<title>5&#45;&gt;8</title>
<path fill="none" stroke="grey" stroke-width="2" d="M457.09,-647.7C464.04,-639.3 472.52,-629.07 480.15,-619.86"/>
<polygon fill="grey" stroke="grey" stroke-width="2" points="482.89,-622.04 486.58,-612.1 477.5,-617.57 482.89,-622.04"/>
</g>
<!-- 6 -->
<g id="node7" class="node">
<title>6</title>
<path fill="none" stroke="#97d856" stroke-width="2" stroke-dasharray="5,2" d="M665.75,-756C665.75,-756 605.75,-756 605.75,-756 599.75,-756 593.75,-750 593.75,-744 593.75,-744 593.75,-732 593.75,-732 593.75,-726 599.75,-720 605.75,-720 605.75,-720 665.75,-720 665.75,-720 671.75,-720 677.75,-726 677.75,-732 677.75,-732 677.75,-744 677.75,-744 677.75,-750 671.75,-756 665.75,-756"/>
<text text-anchor="middle" x="635.75" y="-735.5" font-family="sans" font-size="10.00">kallisto_index</text>
</g>
<!-- 6&#45;&gt;5 -->
<g id="edge19" class="edge">
<title>6&#45;&gt;5</title>
<path fill="none" stroke="grey" stroke-width="2" d="M593.39,-721.64C564.46,-711.14 525.92,-697.16 495.06,-685.97"/>
<polygon fill="grey" stroke="grey" stroke-width="2" points="495.93,-682.57 485.34,-682.45 493.55,-689.15 495.93,-682.57"/>
</g>
<!-- 10 -->
<g id="node11" class="node">
<title>10</title>
<path fill="none" stroke="#59d856" stroke-width="2" d="M645.25,-684C645.25,-684 584.25,-684 584.25,-684 578.25,-684 572.25,-678 572.25,-672 572.25,-672 572.25,-660 572.25,-660 572.25,-654 578.25,-648 584.25,-648 584.25,-648 645.25,-648 645.25,-648 651.25,-648 657.25,-654 657.25,-660 657.25,-660 657.25,-672 657.25,-672 657.25,-678 651.25,-684 645.25,-684"/>
<text text-anchor="middle" x="614.75" y="-663.5" font-family="sans" font-size="10.00">kallisto_quant</text>
</g>
<!-- 6&#45;&gt;10 -->
<g id="edge24" class="edge">
<title>6&#45;&gt;10</title>
<path fill="none" stroke="grey" stroke-width="2" d="M630.56,-719.7C628.22,-711.9 625.4,-702.51 622.8,-693.83"/>
<polygon fill="grey" stroke="grey" stroke-width="2" points="626.11,-692.68 619.88,-684.1 619.4,-694.69 626.11,-692.68"/>
</g>
<!-- 13 -->
<g id="node14" class="node">
<title>13</title>
<path fill="none" stroke="#59d856" stroke-width="2" d="M271.25,-684C271.25,-684 210.25,-684 210.25,-684 204.25,-684 198.25,-678 198.25,-672 198.25,-672 198.25,-660 198.25,-660 198.25,-654 204.25,-648 210.25,-648 210.25,-648 271.25,-648 271.25,-648 277.25,-648 283.25,-654 283.25,-660 283.25,-660 283.25,-672 283.25,-672 283.25,-678 277.25,-684 271.25,-684"/>
<text text-anchor="middle" x="240.75" y="-663.5" font-family="sans" font-size="10.00">kallisto_quant</text>
</g>
<!-- 6&#45;&gt;13 -->
<g id="edge28" class="edge">
<title>6&#45;&gt;13</title>
<path fill="none" stroke="grey" stroke-width="2" d="M593.61,-722.34C590.63,-721.49 587.65,-720.7 584.75,-720 482.93,-695.37 361.27,-679.8 293.33,-672.31"/>
<polygon fill="grey" stroke="grey" stroke-width="2" points="293.62,-668.82 283.3,-671.22 292.86,-675.78 293.62,-668.82"/>
</g>
<!-- 16 -->
<g id="node17" class="node">
<title>16</title>
<path fill="none" stroke="#59d856" stroke-width="2" d="M748.25,-684C748.25,-684 687.25,-684 687.25,-684 681.25,-684 675.25,-678 675.25,-672 675.25,-672 675.25,-660 675.25,-660 675.25,-654 681.25,-648 687.25,-648 687.25,-648 748.25,-648 748.25,-648 754.25,-648 760.25,-654 760.25,-660 760.25,-660 760.25,-672 760.25,-672 760.25,-678 754.25,-684 748.25,-684"/>
<text text-anchor="middle" x="717.75" y="-663.5" font-family="sans" font-size="10.00">kallisto_quant</text>
</g>
<!-- 6&#45;&gt;16 -->
<g id="edge32" class="edge">
<title>6&#45;&gt;16</title>
<path fill="none" stroke="grey" stroke-width="2" d="M656.02,-719.7C666.25,-710.97 678.81,-700.24 689.93,-690.75"/>
<polygon fill="grey" stroke="grey" stroke-width="2" points="692.38,-693.26 697.71,-684.1 687.83,-687.94 692.38,-693.26"/>
</g>
<!-- 19 -->
<g id="node20" class="node">
<title>19</title>
<path fill="none" stroke="#59d856" stroke-width="2" d="M893.25,-684C893.25,-684 832.25,-684 832.25,-684 826.25,-684 820.25,-678 820.25,-672 820.25,-672 820.25,-660 820.25,-660 820.25,-654 826.25,-648 832.25,-648 832.25,-648 893.25,-648 893.25,-648 899.25,-648 905.25,-654 905.25,-660 905.25,-660 905.25,-672 905.25,-672 905.25,-678 899.25,-684 893.25,-684"/>
<text text-anchor="middle" x="862.75" y="-663.5" font-family="sans" font-size="10.00">kallisto_quant</text>
</g>
<!-- 6&#45;&gt;19 -->
<g id="edge36" class="edge">
<title>6&#45;&gt;19</title>
<path fill="none" stroke="grey" stroke-width="2" d="M678.02,-722.8C680.97,-721.85 683.9,-720.9 686.75,-720 728,-706.92 774.94,-692.82 809.96,-682.46"/>
<polygon fill="grey" stroke="grey" stroke-width="2" points="811.36,-685.69 819.96,-679.5 809.38,-678.98 811.36,-685.69"/>
</g>
<!-- 22 -->
<g id="node23" class="node">
<title>22</title>
<path fill="none" stroke="#59d856" stroke-width="2" d="M128.25,-684C128.25,-684 67.25,-684 67.25,-684 61.25,-684 55.25,-678 55.25,-672 55.25,-672 55.25,-660 55.25,-660 55.25,-654 61.25,-648 67.25,-648 67.25,-648 128.25,-648 128.25,-648 134.25,-648 140.25,-654 140.25,-660 140.25,-660 140.25,-672 140.25,-672 140.25,-678 134.25,-684 128.25,-684"/>
<text text-anchor="middle" x="97.75" y="-663.5" font-family="sans" font-size="10.00">kallisto_quant</text>
</g>
<!-- 6&#45;&gt;22 -->
<g id="edge40" class="edge">
<title>6&#45;&gt;22</title>
<path fill="none" stroke="grey" stroke-width="2" d="M593.65,-722.13C590.66,-721.34 587.67,-720.61 584.75,-720 411.77,-683.82 363.8,-708.25 188.75,-684 176.44,-682.29 163.26,-680.07 150.86,-677.79"/>
<polygon fill="grey" stroke="grey" stroke-width="2" points="151.14,-674.28 140.66,-675.88 149.85,-681.16 151.14,-674.28"/>
</g>
<!-- 25 -->
<g id="node26" class="node">
<title>25</title>
<path fill="none" stroke="#59d856" stroke-width="2" d="M1039.25,-684C1039.25,-684 978.25,-684 978.25,-684 972.25,-684 966.25,-678 966.25,-672 966.25,-672 966.25,-660 966.25,-660 966.25,-654 972.25,-648 978.25,-648 978.25,-648 1039.25,-648 1039.25,-648 1045.25,-648 1051.25,-654 1051.25,-660 1051.25,-660 1051.25,-672 1051.25,-672 1051.25,-678 1045.25,-684 1039.25,-684"/>
<text text-anchor="middle" x="1008.75" y="-663.5" font-family="sans" font-size="10.00">kallisto_quant</text>
</g>
<!-- 6&#45;&gt;25 -->
<g id="edge44" class="edge">
<title>6&#45;&gt;25</title>
<path fill="none" stroke="grey" stroke-width="2" d="M677.89,-722.36C680.87,-721.51 683.85,-720.71 686.75,-720 785.98,-695.77 813.02,-701 913.75,-684 927.58,-681.67 942.51,-679.04 956.36,-676.57"/>
<polygon fill="grey" stroke="grey" stroke-width="2" points="956.99,-680.01 966.22,-674.8 955.76,-673.12 956.99,-680.01"/>
</g>
<!-- 28 -->
<g id="node29" class="node">
<title>28</title>
<path fill="none" stroke="#59d856" stroke-width="2" d="M1213.25,-684C1213.25,-684 1152.25,-684 1152.25,-684 1146.25,-684 1140.25,-678 1140.25,-672 1140.25,-672 1140.25,-660 1140.25,-660 1140.25,-654 1146.25,-648 1152.25,-648 1152.25,-648 1213.25,-648 1213.25,-648 1219.25,-648 1225.25,-654 1225.25,-660 1225.25,-660 1225.25,-672 1225.25,-672 1225.25,-678 1219.25,-684 1213.25,-684"/>
<text text-anchor="middle" x="1182.75" y="-663.5" font-family="sans" font-size="10.00">kallisto_quant</text>
</g>
<!-- 6&#45;&gt;28 -->
<g id="edge48" class="edge">
<title>6&#45;&gt;28</title>
<path fill="none" stroke="grey" stroke-width="2" d="M677.85,-722.15C680.84,-721.35 683.83,-720.62 686.75,-720 850.11,-685.38 894.9,-703.53 1060.75,-684 1083.58,-681.31 1108.74,-677.88 1130.25,-674.81"/>
<polygon fill="grey" stroke="grey" stroke-width="2" points="1130.78,-678.27 1140.18,-673.38 1129.78,-671.34 1130.78,-678.27"/>
</g>
<!-- 7 -->
<g id="node8" class="node">
<title>7</title>
<path fill="none" stroke="#56d8b9" stroke-width="2" stroke-dasharray="5,2" d="M425.75,-756C425.75,-756 329.75,-756 329.75,-756 323.75,-756 317.75,-750 317.75,-744 317.75,-744 317.75,-732 317.75,-732 317.75,-726 323.75,-720 329.75,-720 329.75,-720 425.75,-720 425.75,-720 431.75,-720 437.75,-726 437.75,-732 437.75,-732 437.75,-744 437.75,-744 437.75,-750 431.75,-756 425.75,-756"/>
<text text-anchor="middle" x="377.75" y="-741" font-family="sans" font-size="10.00">fastqc</text>
<text text-anchor="middle" x="377.75" y="-730" font-family="sans" font-size="10.00">sample: ERR6484003</text>
</g>
<!-- 7&#45;&gt;5 -->
<g id="edge20" class="edge">
<title>7&#45;&gt;5</title>
<path fill="none" stroke="grey" stroke-width="2" d="M393.82,-719.7C401.69,-711.22 411.3,-700.86 419.92,-691.58"/>
<polygon fill="grey" stroke="grey" stroke-width="2" points="422.63,-693.81 426.87,-684.1 417.5,-689.05 422.63,-693.81"/>
</g>
<!-- 8&#45;&gt;2 -->
<g id="edge5" class="edge">
<title>8&#45;&gt;2</title>
<path fill="none" stroke="grey" stroke-width="2" d="M414.1,-588.85C283.98,-581.82 50.21,-565.75 21.75,-540 -8.25,-512.87 2.75,-491.45 2.75,-451 2.75,-451 2.75,-451 2.75,-305 2.75,-208.84 334,-175.9 471.26,-166.38"/>
<polygon fill="grey" stroke="grey" stroke-width="2" points="471.84,-169.85 481.58,-165.68 471.37,-162.86 471.84,-169.85"/>
</g>
<!-- 8&#45;&gt;3 -->
<g id="edge16" class="edge">
<title>8&#45;&gt;3</title>
<path fill="none" stroke="grey" stroke-width="2" d="M587.49,-591.4C741.37,-587.66 1049.12,-575.74 1081.75,-540 1092.54,-528.18 1092.22,-516.1 1081.75,-504 1046.69,-463.49 901.53,-453.29 805.17,-451.09"/>
<polygon fill="grey" stroke="grey" stroke-width="2" points="805.2,-447.59 795.13,-450.89 805.06,-454.59 805.2,-447.59"/>
</g>
<!-- 8&#45;&gt;4 -->
<g id="edge18" class="edge">
<title>8&#45;&gt;4</title>
<path fill="none" stroke="grey" stroke-width="2" d="M472.86,-575.88C457.96,-566.72 439.42,-555.34 423.37,-545.48"/>
<polygon fill="grey" stroke="grey" stroke-width="2" points="425.1,-542.44 414.74,-540.19 421.43,-548.41 425.1,-542.44"/>
</g>
<!-- 9 -->
<g id="node10" class="node">
<title>9</title>
<path fill="none" stroke="#567bd8" stroke-width="2" d="M622.75,-540C622.75,-540 518.75,-540 518.75,-540 512.75,-540 506.75,-534 506.75,-528 506.75,-528 506.75,-516 506.75,-516 506.75,-510 512.75,-504 518.75,-504 518.75,-504 622.75,-504 622.75,-504 628.75,-504 634.75,-510 634.75,-516 634.75,-516 634.75,-528 634.75,-528 634.75,-534 628.75,-540 622.75,-540"/>
<text text-anchor="middle" x="570.75" y="-519.5" font-family="sans" font-size="10.00">aggregate_tmp_counts</text>
</g>
<!-- 8&#45;&gt;9 -->
<g id="edge23" class="edge">
<title>8&#45;&gt;9</title>
<path fill="none" stroke="grey" stroke-width="2" d="M518.05,-575.7C526.61,-567.14 537.09,-556.66 546.44,-547.3"/>
<polygon fill="grey" stroke="grey" stroke-width="2" points="549.05,-549.65 553.64,-540.1 544.1,-544.7 549.05,-549.65"/>
</g>
<!-- 12 -->
<g id="node13" class="node">
<title>12</title>
<path fill="none" stroke="#567bd8" stroke-width="2" d="M292.75,-540C292.75,-540 188.75,-540 188.75,-540 182.75,-540 176.75,-534 176.75,-528 176.75,-528 176.75,-516 176.75,-516 176.75,-510 182.75,-504 188.75,-504 188.75,-504 292.75,-504 292.75,-504 298.75,-504 304.75,-510 304.75,-516 304.75,-516 304.75,-528 304.75,-528 304.75,-534 298.75,-540 292.75,-540"/>
<text text-anchor="middle" x="240.75" y="-519.5" font-family="sans" font-size="10.00">aggregate_tmp_counts</text>
</g>
<!-- 8&#45;&gt;12 -->
<g id="edge27" class="edge">
<title>8&#45;&gt;12</title>
<path fill="none" stroke="grey" stroke-width="2" d="M437.48,-575.97C400.2,-565.93 352.88,-553.19 314,-542.72"/>
<polygon fill="grey" stroke="grey" stroke-width="2" points="314.87,-539.33 304.3,-540.11 313.05,-546.09 314.87,-539.33"/>
</g>
<!-- 15 -->
<g id="node16" class="node">
<title>15</title>
<path fill="none" stroke="#567bd8" stroke-width="2" d="M768.75,-540C768.75,-540 664.75,-540 664.75,-540 658.75,-540 652.75,-534 652.75,-528 652.75,-528 652.75,-516 652.75,-516 652.75,-510 658.75,-504 664.75,-504 664.75,-504 768.75,-504 768.75,-504 774.75,-504 780.75,-510 780.75,-516 780.75,-516 780.75,-528 780.75,-528 780.75,-534 774.75,-540 768.75,-540"/>
<text text-anchor="middle" x="716.75" y="-519.5" font-family="sans" font-size="10.00">aggregate_tmp_counts</text>
</g>
<!-- 8&#45;&gt;15 -->
<g id="edge31" class="edge">
<title>8&#45;&gt;15</title>
<path fill="none" stroke="grey" stroke-width="2" d="M553.31,-575.97C583.75,-566.1 622.26,-553.62 654.25,-543.25"/>
<polygon fill="grey" stroke="grey" stroke-width="2" points="655.52,-546.52 663.95,-540.11 653.36,-539.86 655.52,-546.52"/>
</g>
<!-- 18 -->
<g id="node19" class="node">
<title>18</title>
<path fill="none" stroke="#567bd8" stroke-width="2" d="M914.75,-540C914.75,-540 810.75,-540 810.75,-540 804.75,-540 798.75,-534 798.75,-528 798.75,-528 798.75,-516 798.75,-516 798.75,-510 804.75,-504 810.75,-504 810.75,-504 914.75,-504 914.75,-504 920.75,-504 926.75,-510 926.75,-516 926.75,-516 926.75,-528 926.75,-528 926.75,-534 920.75,-540 914.75,-540"/>
<text text-anchor="middle" x="862.75" y="-519.5" font-family="sans" font-size="10.00">aggregate_tmp_counts</text>
</g>
<!-- 8&#45;&gt;18 -->
<g id="edge35" class="edge">
<title>8&#45;&gt;18</title>
<path fill="none" stroke="grey" stroke-width="2" d="M587.27,-578.24C642.32,-568.58 715.36,-555.3 788.8,-540.15"/>
<polygon fill="grey" stroke="grey" stroke-width="2" points="789.61,-543.56 798.69,-538.1 788.19,-536.7 789.61,-543.56"/>
</g>
<!-- 21 -->
<g id="node22" class="node">
<title>21</title>
<path fill="none" stroke="#567bd8" stroke-width="2" d="M146.75,-540C146.75,-540 42.75,-540 42.75,-540 36.75,-540 30.75,-534 30.75,-528 30.75,-528 30.75,-516 30.75,-516 30.75,-510 36.75,-504 42.75,-504 42.75,-504 146.75,-504 146.75,-504 152.75,-504 158.75,-510 158.75,-516 158.75,-516 158.75,-528 158.75,-528 158.75,-534 152.75,-540 146.75,-540"/>
<text text-anchor="middle" x="94.75" y="-519.5" font-family="sans" font-size="10.00">aggregate_tmp_counts</text>
</g>
<!-- 8&#45;&gt;21 -->
<g id="edge39" class="edge">
<title>8&#45;&gt;21</title>
<path fill="none" stroke="grey" stroke-width="2" d="M414.21,-580.95C349.25,-571.5 257.93,-557.37 168.8,-540.14"/>
<polygon fill="grey" stroke="grey" stroke-width="2" points="169.27,-536.66 158.79,-538.18 167.93,-543.53 169.27,-536.66"/>
</g>
<!-- 24 -->
<g id="node25" class="node">
<title>24</title>
<path fill="none" stroke="#567bd8" stroke-width="2" d="M1060.75,-540C1060.75,-540 956.75,-540 956.75,-540 950.75,-540 944.75,-534 944.75,-528 944.75,-528 944.75,-516 944.75,-516 944.75,-510 950.75,-504 956.75,-504 956.75,-504 1060.75,-504 1060.75,-504 1066.75,-504 1072.75,-510 1072.75,-516 1072.75,-516 1072.75,-528 1072.75,-528 1072.75,-534 1066.75,-540 1060.75,-540"/>
<text text-anchor="middle" x="1008.75" y="-519.5" font-family="sans" font-size="10.00">aggregate_tmp_counts</text>
</g>
<!-- 8&#45;&gt;24 -->
<g id="edge43" class="edge">
<title>8&#45;&gt;24</title>
<path fill="none" stroke="grey" stroke-width="2" d="M587.4,-585.21C673.25,-576.87 808.61,-562.01 934.89,-540.05"/>
<polygon fill="grey" stroke="grey" stroke-width="2" points="935.49,-543.5 944.74,-538.32 934.28,-536.6 935.49,-543.5"/>
</g>
<!-- 27 -->
<g id="node28" class="node">
<title>27</title>
<path fill="none" stroke="#567bd8" stroke-width="2" d="M1244.75,-540C1244.75,-540 1140.75,-540 1140.75,-540 1134.75,-540 1128.75,-534 1128.75,-528 1128.75,-528 1128.75,-516 1128.75,-516 1128.75,-510 1134.75,-504 1140.75,-504 1140.75,-504 1244.75,-504 1244.75,-504 1250.75,-504 1256.75,-510 1256.75,-516 1256.75,-516 1256.75,-528 1256.75,-528 1256.75,-534 1250.75,-540 1244.75,-540"/>
<text text-anchor="middle" x="1192.75" y="-519.5" font-family="sans" font-size="10.00">aggregate_tmp_counts</text>
</g>
<!-- 8&#45;&gt;27 -->
<g id="edge47" class="edge">
<title>8&#45;&gt;27</title>
<path fill="none" stroke="grey" stroke-width="2" d="M587.34,-589.04C706.61,-582.78 927.9,-568.31 1114.75,-540 1116.02,-539.81 1117.3,-539.61 1118.59,-539.4"/>
<polygon fill="grey" stroke="grey" stroke-width="2" points="1119.34,-542.82 1128.6,-537.67 1118.15,-535.92 1119.34,-542.82"/>
</g>
<!-- 8&#45;&gt;33 -->
<g id="edge62" class="edge">
<title>8&#45;&gt;33</title>
<path fill="none" stroke="grey" stroke-width="2" d="M496.43,-575.98C492.6,-557.6 488.88,-527.75 497.75,-504 501.63,-493.62 508.55,-483.93 515.87,-475.74"/>
<polygon fill="grey" stroke="grey" stroke-width="2" points="518.53,-478.03 522.93,-468.38 513.48,-473.18 518.53,-478.03"/>
</g>
<!-- 9&#45;&gt;3 -->
<g id="edge9" class="edge">
<title>9&#45;&gt;3</title>
<path fill="none" stroke="grey" stroke-width="2" d="M606.46,-503.88C626.25,-494.39 651.02,-482.51 672.08,-472.42"/>
<polygon fill="grey" stroke="grey" stroke-width="2" points="673.65,-475.55 681.15,-468.07 670.62,-469.24 673.65,-475.55"/>
</g>
<!-- 9&#45;&gt;33 -->
<g id="edge55" class="edge">
<title>9&#45;&gt;33</title>
<path fill="none" stroke="grey" stroke-width="2" d="M564.07,-503.7C561.03,-495.81 557.37,-486.3 553.99,-477.55"/>
<polygon fill="grey" stroke="grey" stroke-width="2" points="557.21,-476.17 550.35,-468.1 550.68,-478.69 557.21,-476.17"/>
</g>
<!-- 10&#45;&gt;9 -->
<g id="edge22" class="edge">
<title>10&#45;&gt;9</title>
<path fill="none" stroke="grey" stroke-width="2" d="M612.31,-647.96C609.44,-629.81 603.99,-600.4 595.75,-576 592.76,-567.13 588.68,-557.79 584.7,-549.47"/>
<polygon fill="grey" stroke="grey" stroke-width="2" points="587.7,-547.65 580.13,-540.25 581.43,-550.76 587.7,-547.65"/>
</g>
<!-- 11 -->
<g id="node12" class="node">
<title>11</title>
<path fill="none" stroke="#56d8b9" stroke-width="2" stroke-dasharray="5,2" d="M563.75,-756C563.75,-756 467.75,-756 467.75,-756 461.75,-756 455.75,-750 455.75,-744 455.75,-744 455.75,-732 455.75,-732 455.75,-726 461.75,-720 467.75,-720 467.75,-720 563.75,-720 563.75,-720 569.75,-720 575.75,-726 575.75,-732 575.75,-732 575.75,-744 575.75,-744 575.75,-750 569.75,-756 563.75,-756"/>
<text text-anchor="middle" x="515.75" y="-741" font-family="sans" font-size="10.00">fastqc</text>
<text text-anchor="middle" x="515.75" y="-730" font-family="sans" font-size="10.00">sample: ERR6484009</text>
</g>
<!-- 11&#45;&gt;10 -->
<g id="edge25" class="edge">
<title>11&#45;&gt;10</title>
<path fill="none" stroke="grey" stroke-width="2" d="M539.97,-719.88C552.67,-710.89 568.41,-699.76 582.17,-690.03"/>
<polygon fill="grey" stroke="grey" stroke-width="2" points="584.29,-692.82 590.44,-684.19 580.25,-687.11 584.29,-692.82"/>
</g>
<!-- 12&#45;&gt;3 -->
<g id="edge10" class="edge">
<title>12&#45;&gt;3</title>
<path fill="none" stroke="grey" stroke-width="2" d="M304.76,-505.65C307.79,-505.07 310.8,-504.51 313.75,-504 449.34,-480.54 487.68,-488.96 628.29,-467.98"/>
<polygon fill="grey" stroke="grey" stroke-width="2" points="629.23,-471.38 638.59,-466.42 628.18,-464.46 629.23,-471.38"/>
</g>
<!-- 12&#45;&gt;33 -->
<g id="edge56" class="edge">
<title>12&#45;&gt;33</title>
<path fill="none" stroke="grey" stroke-width="2" d="M304.84,-506.07C307.85,-505.37 310.83,-504.68 313.75,-504 362.08,-492.8 416.14,-480.34 459.7,-470.32"/>
<polygon fill="grey" stroke="grey" stroke-width="2" points="460.72,-473.68 469.68,-468.02 459.15,-466.85 460.72,-473.68"/>
</g>
<!-- 13&#45;&gt;12 -->
<g id="edge26" class="edge">
<title>13&#45;&gt;12</title>
<path fill="none" stroke="grey" stroke-width="2" d="M240.75,-647.87C240.75,-623.67 240.75,-579.21 240.75,-550.39"/>
<polygon fill="grey" stroke="grey" stroke-width="2" points="244.25,-550.19 240.75,-540.19 237.25,-550.19 244.25,-550.19"/>
</g>
<!-- 14 -->
<g id="node15" class="node">
<title>14</title>
<path fill="none" stroke="#56d8b9" stroke-width="2" stroke-dasharray="5,2" d="M287.75,-756C287.75,-756 191.75,-756 191.75,-756 185.75,-756 179.75,-750 179.75,-744 179.75,-744 179.75,-732 179.75,-732 179.75,-726 185.75,-720 191.75,-720 191.75,-720 287.75,-720 287.75,-720 293.75,-720 299.75,-726 299.75,-732 299.75,-732 299.75,-744 299.75,-744 299.75,-750 293.75,-756 287.75,-756"/>
<text text-anchor="middle" x="239.75" y="-741" font-family="sans" font-size="10.00">fastqc</text>
<text text-anchor="middle" x="239.75" y="-730" font-family="sans" font-size="10.00">sample: ERR6484000</text>
</g>
<!-- 14&#45;&gt;13 -->
<g id="edge29" class="edge">
<title>14&#45;&gt;13</title>
<path fill="none" stroke="grey" stroke-width="2" d="M240,-719.7C240.11,-711.98 240.24,-702.71 240.36,-694.11"/>
<polygon fill="grey" stroke="grey" stroke-width="2" points="243.86,-694.15 240.5,-684.1 236.86,-694.05 243.86,-694.15"/>
</g>
<!-- 15&#45;&gt;3 -->
<g id="edge11" class="edge">
<title>15&#45;&gt;3</title>
<path fill="none" stroke="grey" stroke-width="2" d="M716.75,-503.7C716.75,-495.98 716.75,-486.71 716.75,-478.11"/>
<polygon fill="grey" stroke="grey" stroke-width="2" points="720.25,-478.1 716.75,-468.1 713.25,-478.1 720.25,-478.1"/>
</g>
<!-- 15&#45;&gt;33 -->
<g id="edge57" class="edge">
<title>15&#45;&gt;33</title>
<path fill="none" stroke="grey" stroke-width="2" d="M674.43,-503.88C650.57,-494.22 620.58,-482.09 595.35,-471.88"/>
<polygon fill="grey" stroke="grey" stroke-width="2" points="596.51,-468.57 585.93,-468.07 593.89,-475.06 596.51,-468.57"/>
</g>
<!-- 16&#45;&gt;15 -->
<g id="edge30" class="edge">
<title>16&#45;&gt;15</title>
<path fill="none" stroke="grey" stroke-width="2" d="M717.63,-647.87C717.46,-623.67 717.14,-579.21 716.94,-550.39"/>
<polygon fill="grey" stroke="grey" stroke-width="2" points="720.44,-550.16 716.87,-540.19 713.44,-550.21 720.44,-550.16"/>
</g>
<!-- 17 -->
<g id="node18" class="node">
<title>17</title>
<path fill="none" stroke="#56d8b9" stroke-width="2" stroke-dasharray="5,2" d="M803.75,-756C803.75,-756 707.75,-756 707.75,-756 701.75,-756 695.75,-750 695.75,-744 695.75,-744 695.75,-732 695.75,-732 695.75,-726 701.75,-720 707.75,-720 707.75,-720 803.75,-720 803.75,-720 809.75,-720 815.75,-726 815.75,-732 815.75,-732 815.75,-744 815.75,-744 815.75,-750 809.75,-756 803.75,-756"/>
<text text-anchor="middle" x="755.75" y="-741" font-family="sans" font-size="10.00">fastqc</text>
<text text-anchor="middle" x="755.75" y="-730" font-family="sans" font-size="10.00">sample: ERR6484004</text>
</g>
<!-- 17&#45;&gt;16 -->
<g id="edge33" class="edge">
<title>17&#45;&gt;16</title>
<path fill="none" stroke="grey" stroke-width="2" d="M746.36,-719.7C741.98,-711.64 736.69,-701.89 731.85,-692.98"/>
<polygon fill="grey" stroke="grey" stroke-width="2" points="734.88,-691.22 727.03,-684.1 728.73,-694.56 734.88,-691.22"/>
</g>
<!-- 18&#45;&gt;3 -->
<g id="edge12" class="edge">
<title>18&#45;&gt;3</title>
<path fill="none" stroke="grey" stroke-width="2" d="M827.03,-503.88C807.25,-494.39 782.48,-482.51 761.42,-472.42"/>
<polygon fill="grey" stroke="grey" stroke-width="2" points="762.88,-469.24 752.35,-468.07 759.85,-475.55 762.88,-469.24"/>
</g>
<!-- 18&#45;&gt;33 -->
<g id="edge58" class="edge">
<title>18&#45;&gt;33</title>
<path fill="none" stroke="grey" stroke-width="2" d="M798.67,-506.01C795.65,-505.33 792.67,-504.65 789.75,-504 736.82,-492.14 677.36,-479.31 630.16,-469.25"/>
<polygon fill="grey" stroke="grey" stroke-width="2" points="630.79,-465.81 620.28,-467.15 629.33,-472.65 630.79,-465.81"/>
</g>
<!-- 19&#45;&gt;18 -->
<g id="edge34" class="edge">
<title>19&#45;&gt;18</title>
<path fill="none" stroke="grey" stroke-width="2" d="M862.75,-647.87C862.75,-623.67 862.75,-579.21 862.75,-550.39"/>
<polygon fill="grey" stroke="grey" stroke-width="2" points="866.25,-550.19 862.75,-540.19 859.25,-550.19 866.25,-550.19"/>
</g>
<!-- 20 -->
<g id="node21" class="node">
<title>20</title>
<path fill="none" stroke="#56d8b9" stroke-width="2" stroke-dasharray="5,2" d="M941.75,-756C941.75,-756 845.75,-756 845.75,-756 839.75,-756 833.75,-750 833.75,-744 833.75,-744 833.75,-732 833.75,-732 833.75,-726 839.75,-720 845.75,-720 845.75,-720 941.75,-720 941.75,-720 947.75,-720 953.75,-726 953.75,-732 953.75,-732 953.75,-744 953.75,-744 953.75,-750 947.75,-756 941.75,-756"/>
<text text-anchor="middle" x="893.75" y="-741" font-family="sans" font-size="10.00">fastqc</text>
<text text-anchor="middle" x="893.75" y="-730" font-family="sans" font-size="10.00">sample: ERR6484001</text>
</g>
<!-- 20&#45;&gt;19 -->
<g id="edge37" class="edge">
<title>20&#45;&gt;19</title>
<path fill="none" stroke="grey" stroke-width="2" d="M886.09,-719.7C882.56,-711.73 878.29,-702.1 874.38,-693.26"/>
<polygon fill="grey" stroke="grey" stroke-width="2" points="877.57,-691.83 870.32,-684.1 871.17,-694.67 877.57,-691.83"/>
</g>
<!-- 21&#45;&gt;3 -->
<g id="edge13" class="edge">
<title>21&#45;&gt;3</title>
<path fill="none" stroke="grey" stroke-width="2" d="M159.13,-505.45C162.04,-504.93 164.92,-504.44 167.75,-504 367.58,-473.11 423.3,-494.81 628.42,-467.93"/>
<polygon fill="grey" stroke="grey" stroke-width="2" points="629.16,-471.36 638.61,-466.57 628.24,-464.42 629.16,-471.36"/>
</g>
<!-- 21&#45;&gt;33 -->
<g id="edge59" class="edge">
<title>21&#45;&gt;33</title>
<path fill="none" stroke="grey" stroke-width="2" d="M158.78,-505.75C161.8,-505.14 164.81,-504.55 167.75,-504 266.36,-485.61 380.59,-470.35 457.03,-461.01"/>
<polygon fill="grey" stroke="grey" stroke-width="2" points="457.59,-464.46 467.09,-459.78 456.74,-457.51 457.59,-464.46"/>
</g>
<!-- 22&#45;&gt;21 -->
<g id="edge38" class="edge">
<title>22&#45;&gt;21</title>
<path fill="none" stroke="grey" stroke-width="2" d="M97.39,-647.87C96.88,-623.67 95.94,-579.21 95.33,-550.39"/>
<polygon fill="grey" stroke="grey" stroke-width="2" points="98.82,-550.11 95.11,-540.19 91.82,-550.26 98.82,-550.11"/>
</g>
<!-- 23 -->
<g id="node24" class="node">
<title>23</title>
<path fill="none" stroke="#56d8b9" stroke-width="2" stroke-dasharray="5,2" d="M145.75,-756C145.75,-756 49.75,-756 49.75,-756 43.75,-756 37.75,-750 37.75,-744 37.75,-744 37.75,-732 37.75,-732 37.75,-726 43.75,-720 49.75,-720 49.75,-720 145.75,-720 145.75,-720 151.75,-720 157.75,-726 157.75,-732 157.75,-732 157.75,-744 157.75,-744 157.75,-750 151.75,-756 145.75,-756"/>
<text text-anchor="middle" x="97.75" y="-741" font-family="sans" font-size="10.00">fastqc</text>
<text text-anchor="middle" x="97.75" y="-730" font-family="sans" font-size="10.00">sample: ERR6483999</text>
</g>
<!-- 23&#45;&gt;22 -->
<g id="edge41" class="edge">
<title>23&#45;&gt;22</title>
<path fill="none" stroke="grey" stroke-width="2" d="M97.75,-719.7C97.75,-711.98 97.75,-702.71 97.75,-694.11"/>
<polygon fill="grey" stroke="grey" stroke-width="2" points="101.25,-694.1 97.75,-684.1 94.25,-694.1 101.25,-694.1"/>
</g>
<!-- 24&#45;&gt;3 -->
<g id="edge14" class="edge">
<title>24&#45;&gt;3</title>
<path fill="none" stroke="grey" stroke-width="2" d="M944.67,-505.64C901.5,-495.29 844.21,-481.55 797.86,-470.44"/>
<polygon fill="grey" stroke="grey" stroke-width="2" points="798.39,-466.97 787.85,-468.04 796.76,-473.78 798.39,-466.97"/>
</g>
<!-- 24&#45;&gt;33 -->
<g id="edge60" class="edge">
<title>24&#45;&gt;33</title>
<path fill="none" stroke="grey" stroke-width="2" d="M944.74,-505.67C941.7,-505.07 938.7,-504.52 935.75,-504 804.02,-480.99 766.76,-488.9 630.57,-468.05"/>
<polygon fill="grey" stroke="grey" stroke-width="2" points="631.01,-464.58 620.59,-466.5 629.93,-471.49 631.01,-464.58"/>
</g>
<!-- 25&#45;&gt;24 -->
<g id="edge42" class="edge">
<title>25&#45;&gt;24</title>
<path fill="none" stroke="grey" stroke-width="2" d="M1008.75,-647.87C1008.75,-623.67 1008.75,-579.21 1008.75,-550.39"/>
<polygon fill="grey" stroke="grey" stroke-width="2" points="1012.25,-550.19 1008.75,-540.19 1005.25,-550.19 1012.25,-550.19"/>
</g>
<!-- 26 -->
<g id="node27" class="node">
<title>26</title>
<path fill="none" stroke="#56d8b9" stroke-width="2" stroke-dasharray="5,2" d="M1079.75,-756C1079.75,-756 983.75,-756 983.75,-756 977.75,-756 971.75,-750 971.75,-744 971.75,-744 971.75,-732 971.75,-732 971.75,-726 977.75,-720 983.75,-720 983.75,-720 1079.75,-720 1079.75,-720 1085.75,-720 1091.75,-726 1091.75,-732 1091.75,-732 1091.75,-744 1091.75,-744 1091.75,-750 1085.75,-756 1079.75,-756"/>
<text text-anchor="middle" x="1031.75" y="-741" font-family="sans" font-size="10.00">fastqc</text>
<text text-anchor="middle" x="1031.75" y="-730" font-family="sans" font-size="10.00">sample: ERR6484007</text>
</g>
<!-- 26&#45;&gt;25 -->
<g id="edge45" class="edge">
<title>26&#45;&gt;25</title>
<path fill="none" stroke="grey" stroke-width="2" d="M1026.06,-719.7C1023.5,-711.9 1020.42,-702.51 1017.56,-693.83"/>
<polygon fill="grey" stroke="grey" stroke-width="2" points="1020.82,-692.51 1014.37,-684.1 1014.17,-694.7 1020.82,-692.51"/>
</g>
<!-- 27&#45;&gt;3 -->
<g id="edge15" class="edge">
<title>27&#45;&gt;3</title>
<path fill="none" stroke="grey" stroke-width="2" d="M1128.56,-506.57C1123.89,-505.66 1119.25,-504.79 1114.75,-504 1008.74,-485.42 885.83,-469.97 804.97,-460.64"/>
<polygon fill="grey" stroke="grey" stroke-width="2" points="805.16,-457.14 794.83,-459.48 804.36,-464.09 805.16,-457.14"/>
</g>
<!-- 27&#45;&gt;33 -->
<g id="edge61" class="edge">
<title>27&#45;&gt;33</title>
<path fill="none" stroke="grey" stroke-width="2" d="M1128.58,-510.36C1113.27,-508.05 1096.95,-505.77 1081.75,-504 884.8,-481.11 831.1,-495.12 630.54,-468.01"/>
<polygon fill="grey" stroke="grey" stroke-width="2" points="630.95,-464.53 620.57,-466.64 630,-471.47 630.95,-464.53"/>
</g>
<!-- 28&#45;&gt;27 -->
<g id="edge46" class="edge">
<title>28&#45;&gt;27</title>
<path fill="none" stroke="grey" stroke-width="2" d="M1183.96,-647.87C1185.66,-623.67 1188.79,-579.21 1190.82,-550.39"/>
<polygon fill="grey" stroke="grey" stroke-width="2" points="1194.33,-550.41 1191.54,-540.19 1187.34,-549.92 1194.33,-550.41"/>
</g>
<!-- 29 -->
<g id="node30" class="node">
<title>29</title>
<path fill="none" stroke="#56d8b9" stroke-width="2" stroke-dasharray="5,2" d="M1230.75,-756C1230.75,-756 1134.75,-756 1134.75,-756 1128.75,-756 1122.75,-750 1122.75,-744 1122.75,-744 1122.75,-732 1122.75,-732 1122.75,-726 1128.75,-720 1134.75,-720 1134.75,-720 1230.75,-720 1230.75,-720 1236.75,-720 1242.75,-726 1242.75,-732 1242.75,-732 1242.75,-744 1242.75,-744 1242.75,-750 1236.75,-756 1230.75,-756"/>
<text text-anchor="middle" x="1182.75" y="-741" font-family="sans" font-size="10.00">fastqc</text>
<text text-anchor="middle" x="1182.75" y="-730" font-family="sans" font-size="10.00">sample: ERR6484008</text>
</g>
<!-- 29&#45;&gt;28 -->
<g id="edge49" class="edge">
<title>29&#45;&gt;28</title>
<path fill="none" stroke="grey" stroke-width="2" d="M1182.75,-719.7C1182.75,-711.98 1182.75,-702.71 1182.75,-694.11"/>
<polygon fill="grey" stroke="grey" stroke-width="2" points="1186.25,-694.1 1182.75,-684.1 1179.25,-694.1 1186.25,-694.1"/>
</g>
<!-- 30 -->
<g id="node31" class="node">
<title>30</title>
<path fill="none" stroke="#d85656" stroke-width="2" d="M489.75,-252C489.75,-252 453.75,-252 453.75,-252 447.75,-252 441.75,-246 441.75,-240 441.75,-240 441.75,-228 441.75,-228 441.75,-222 447.75,-216 453.75,-216 453.75,-216 489.75,-216 489.75,-216 495.75,-216 501.75,-222 501.75,-228 501.75,-228 501.75,-240 501.75,-240 501.75,-246 495.75,-252 489.75,-252"/>
<text text-anchor="middle" x="471.75" y="-231.5" font-family="sans" font-size="10.00">VST_PCA</text>
</g>
<!-- 30&#45;&gt;2 -->
<g id="edge4" class="edge">
<title>30&#45;&gt;2</title>
<path fill="none" stroke="grey" stroke-width="2" d="M486.09,-215.7C493.04,-207.3 501.52,-197.07 509.15,-187.86"/>
<polygon fill="grey" stroke="grey" stroke-width="2" points="511.89,-190.04 515.58,-180.1 506.5,-185.57 511.89,-190.04"/>
</g>
<!-- 31 -->
<g id="node32" class="node">
<title>31</title>
<path fill="none" stroke="#56d8d8" stroke-width="2" d="M432.25,-324C432.25,-324 367.25,-324 367.25,-324 361.25,-324 355.25,-318 355.25,-312 355.25,-312 355.25,-300 355.25,-300 355.25,-294 361.25,-288 367.25,-288 367.25,-288 432.25,-288 432.25,-288 438.25,-288 444.25,-294 444.25,-300 444.25,-300 444.25,-312 444.25,-312 444.25,-318 438.25,-324 432.25,-324"/>
<text text-anchor="middle" x="399.75" y="-309" font-family="sans" font-size="10.00">VST_normalize</text>
<text text-anchor="middle" x="399.75" y="-298" font-family="sans" font-size="10.00">th: 200</text>
</g>
<!-- 31&#45;&gt;30 -->
<g id="edge50" class="edge">
<title>31&#45;&gt;30</title>
<path fill="none" stroke="grey" stroke-width="2" d="M417.55,-287.7C426.35,-279.14 437.13,-268.66 446.75,-259.3"/>
<polygon fill="grey" stroke="grey" stroke-width="2" points="449.43,-261.58 454.16,-252.1 444.55,-256.57 449.43,-261.58"/>
</g>
<!-- 32 -->
<g id="node33" class="node">
<title>32</title>
<path fill="none" stroke="#d8b456" stroke-width="2" d="M583.75,-396C583.75,-396 503.75,-396 503.75,-396 497.75,-396 491.75,-390 491.75,-384 491.75,-384 491.75,-372 491.75,-372 491.75,-366 497.75,-360 503.75,-360 503.75,-360 583.75,-360 583.75,-360 589.75,-360 595.75,-366 595.75,-372 595.75,-372 595.75,-384 595.75,-384 595.75,-390 589.75,-396 583.75,-396"/>
<text text-anchor="middle" x="543.75" y="-375.5" font-family="sans" font-size="10.00">aggregate_counts</text>
</g>
<!-- 32&#45;&gt;2 -->
<g id="edge6" class="edge">
<title>32&#45;&gt;2</title>
<path fill="none" stroke="grey" stroke-width="2" d="M553.7,-359.98C559.02,-349.89 565.02,-336.64 567.75,-324 578.02,-276.43 558.04,-221.28 543.36,-189.44"/>
<polygon fill="grey" stroke="grey" stroke-width="2" points="546.48,-187.86 539.01,-180.34 540.16,-190.87 546.48,-187.86"/>
</g>
<!-- 32&#45;&gt;31 -->
<g id="edge52" class="edge">
<title>32&#45;&gt;31</title>
<path fill="none" stroke="grey" stroke-width="2" d="M508.52,-359.88C489.17,-350.47 464.98,-338.71 444.32,-328.67"/>
<polygon fill="grey" stroke="grey" stroke-width="2" points="445.63,-325.41 435.11,-324.19 442.57,-331.71 445.63,-325.41"/>
</g>
<!-- 33&#45;&gt;32 -->
<g id="edge53" class="edge">
<title>33&#45;&gt;32</title>
<path fill="none" stroke="grey" stroke-width="2" d="M543.75,-431.7C543.75,-423.98 543.75,-414.71 543.75,-406.11"/>
<polygon fill="grey" stroke="grey" stroke-width="2" points="547.25,-406.1 543.75,-396.1 540.25,-406.1 547.25,-406.1"/>
</g>
<!-- 34 -->
<g id="node35" class="node">
<title>34</title>
<path fill="none" stroke="#569ad8" stroke-width="2" stroke-dasharray="5,2" d="M547.25,-324C547.25,-324 474.25,-324 474.25,-324 468.25,-324 462.25,-318 462.25,-312 462.25,-312 462.25,-300 462.25,-300 462.25,-294 468.25,-288 474.25,-288 474.25,-288 547.25,-288 547.25,-288 553.25,-288 559.25,-294 559.25,-300 559.25,-300 559.25,-312 559.25,-312 559.25,-318 553.25,-324 547.25,-324"/>
<text text-anchor="middle" x="510.75" y="-303.5" font-family="sans" font-size="10.00">move_metadata</text>
</g>
<!-- 34&#45;&gt;2 -->
<g id="edge7" class="edge">
<title>34&#45;&gt;2</title>
<path fill="none" stroke="grey" stroke-width="2" d="M513.04,-287.87C516.28,-263.67 522.23,-219.21 526.08,-190.39"/>
<polygon fill="grey" stroke="grey" stroke-width="2" points="529.59,-190.57 527.45,-180.19 522.65,-189.64 529.59,-190.57"/>
</g>
<!-- 34&#45;&gt;30 -->
<g id="edge51" class="edge">
<title>34&#45;&gt;30</title>
<path fill="none" stroke="grey" stroke-width="2" d="M501.11,-287.7C496.62,-279.64 491.19,-269.89 486.22,-260.98"/>
<polygon fill="grey" stroke="grey" stroke-width="2" points="489.2,-259.14 481.28,-252.1 483.09,-262.54 489.2,-259.14"/>
</g>
</g>
</svg>
