<?xml version="1.0" encoding="UTF-8" standalone="no"?>
<!DOCTYPE svg PUBLIC "-//W3C//DTD SVG 1.1//EN"
 "http://www.w3.org/Graphics/SVG/1.1/DTD/svg11.dtd">
<!-- Generated by graphviz version 2.43.0 (0)
 -->
<!-- Title: snakemake_dag Pages: 1 -->
<svg width="956pt" height="908pt"
 viewBox="0.00 0.00 956.00 908.00" xmlns="http://www.w3.org/2000/svg" xmlns:xlink="http://www.w3.org/1999/xlink">
<g id="graph0" class="graph" transform="scale(1 1) rotate(0) translate(4 904)">
<title>snakemake_dag</title>
<polygon fill="white" stroke="transparent" points="-4,4 -4,-904 952,-904 952,4 -4,4"/>
<!-- 0 -->
<g id="node1" class="node">
<title>0</title>
<path fill="none" stroke="#d85656" stroke-width="2" d="M444,-36C444,-36 406,-36 406,-36 400,-36 394,-30 394,-24 394,-24 394,-12 394,-12 394,-6 400,0 406,0 406,0 444,0 444,0 450,0 456,-6 456,-12 456,-12 456,-24 456,-24 456,-30 450,-36 444,-36"/>
<text text-anchor="middle" x="425" y="-15.5" font-family="sans" font-size="10.00">make_art</text>
</g>
<!-- 1 -->
<g id="node2" class="node">
<title>1</title>
<path fill="none" stroke="#56d8d8" stroke-width="2" d="M454.5,-108C454.5,-108 395.5,-108 395.5,-108 389.5,-108 383.5,-102 383.5,-96 383.5,-96 383.5,-84 383.5,-84 383.5,-78 389.5,-72 395.5,-72 395.5,-72 454.5,-72 454.5,-72 460.5,-72 466.5,-78 466.5,-84 466.5,-84 466.5,-96 466.5,-96 466.5,-102 460.5,-108 454.5,-108"/>
<text text-anchor="middle" x="425" y="-87.5" font-family="sans" font-size="10.00">complete_run</text>
</g>
<!-- 1&#45;&gt;0 -->
<g id="edge1" class="edge">
<title>1&#45;&gt;0</title>
<path fill="none" stroke="grey" stroke-width="2" d="M425,-71.7C425,-63.98 425,-54.71 425,-46.11"/>
<polygon fill="grey" stroke="grey" stroke-width="2" points="428.5,-46.1 425,-36.1 421.5,-46.1 428.5,-46.1"/>
</g>
<!-- 2 -->
<g id="node3" class="node">
<title>2</title>
<path fill="none" stroke="#d87556" stroke-width="2" stroke-dasharray="5,2" d="M451,-252C451,-252 399,-252 399,-252 393,-252 387,-246 387,-240 387,-240 387,-228 387,-228 387,-222 393,-216 399,-216 399,-216 451,-216 451,-216 457,-216 463,-222 463,-228 463,-228 463,-240 463,-240 463,-246 457,-252 451,-252"/>
<text text-anchor="middle" x="425" y="-231.5" font-family="sans" font-size="10.00">write_config</text>
</g>
<!-- 2&#45;&gt;1 -->
<g id="edge2" class="edge">
<title>2&#45;&gt;1</title>
<path fill="none" stroke="grey" stroke-width="2" d="M416.69,-215.79C412.26,-205.63 407.26,-192.38 405,-180 402.13,-164.26 402.13,-159.74 405,-144 406.61,-135.2 409.6,-125.95 412.79,-117.7"/>
<polygon fill="grey" stroke="grey" stroke-width="2" points="416.12,-118.79 416.69,-108.21 409.65,-116.12 416.12,-118.79"/>
</g>
<!-- 25 -->
<g id="node26" class="node">
<title>25</title>
<path fill="none" stroke="#56d87b" stroke-width="2" d="M504.5,-180C504.5,-180 425.5,-180 425.5,-180 419.5,-180 413.5,-174 413.5,-168 413.5,-168 413.5,-156 413.5,-156 413.5,-150 419.5,-144 425.5,-144 425.5,-144 504.5,-144 504.5,-144 510.5,-144 516.5,-150 516.5,-156 516.5,-156 516.5,-168 516.5,-168 516.5,-174 510.5,-180 504.5,-180"/>
<text text-anchor="middle" x="465" y="-159.5" font-family="sans" font-size="10.00">tidy_up_tmp_files</text>
</g>
<!-- 2&#45;&gt;25 -->
<g id="edge38" class="edge">
<title>2&#45;&gt;25</title>
<path fill="none" stroke="grey" stroke-width="2" d="M434.89,-215.7C439.49,-207.64 445.06,-197.89 450.15,-188.98"/>
<polygon fill="grey" stroke="grey" stroke-width="2" points="453.3,-190.52 455.23,-180.1 447.23,-187.05 453.3,-190.52"/>
</g>
<!-- 3 -->
<g id="node4" class="node">
<title>3</title>
<path fill="none" stroke="#d89556" stroke-width="2" stroke-dasharray="5,2" d="M461,-324C461,-324 389,-324 389,-324 383,-324 377,-318 377,-312 377,-312 377,-300 377,-300 377,-294 383,-288 389,-288 389,-288 461,-288 461,-288 467,-288 473,-294 473,-300 473,-300 473,-312 473,-312 473,-318 467,-324 461,-324"/>
<text text-anchor="middle" x="425" y="-303.5" font-family="sans" font-size="10.00">move_final_files</text>
</g>
<!-- 3&#45;&gt;2 -->
<g id="edge4" class="edge">
<title>3&#45;&gt;2</title>
<path fill="none" stroke="grey" stroke-width="2" d="M425,-287.7C425,-279.98 425,-270.71 425,-262.11"/>
<polygon fill="grey" stroke="grey" stroke-width="2" points="428.5,-262.1 425,-252.1 421.5,-262.1 428.5,-262.1"/>
</g>
<!-- 4 -->
<g id="node5" class="node">
<title>4</title>
<path fill="none" stroke="#d8b456" stroke-width="2" stroke-dasharray="5,2" d="M385,-468C385,-468 253,-468 253,-468 247,-468 241,-462 241,-456 241,-456 241,-444 241,-444 241,-438 247,-432 253,-432 253,-432 385,-432 385,-432 391,-432 397,-438 397,-444 397,-444 397,-456 397,-456 397,-462 391,-468 385,-468"/>
<text text-anchor="middle" x="319" y="-447.5" font-family="sans" font-size="10.00">alignment_summary_figures</text>
</g>
<!-- 4&#45;&gt;3 -->
<g id="edge5" class="edge">
<title>4&#45;&gt;3</title>
<path fill="none" stroke="grey" stroke-width="2" d="M331.79,-431.87C350.25,-407.14 384.51,-361.24 405.96,-332.51"/>
<polygon fill="grey" stroke="grey" stroke-width="2" points="408.99,-334.3 412.17,-324.19 403.38,-330.11 408.99,-334.3"/>
</g>
<!-- 5 -->
<g id="node6" class="node">
<title>5</title>
<path fill="none" stroke="#569ad8" stroke-width="2" stroke-dasharray="5,2" d="M474,-684C474,-684 370,-684 370,-684 364,-684 358,-678 358,-672 358,-672 358,-660 358,-660 358,-654 364,-648 370,-648 370,-648 474,-648 474,-648 480,-648 486,-654 486,-660 486,-660 486,-672 486,-672 486,-678 480,-684 474,-684"/>
<text text-anchor="middle" x="422" y="-663.5" font-family="sans" font-size="10.00">aggregate_tmp_counts</text>
</g>
<!-- 5&#45;&gt;4 -->
<g id="edge10" class="edge">
<title>5&#45;&gt;4</title>
<path fill="none" stroke="grey" stroke-width="2" d="M379.76,-647.9C364.13,-639.43 347.84,-627.61 338,-612 312.12,-570.97 312.48,-512.21 315.47,-478.2"/>
<polygon fill="grey" stroke="grey" stroke-width="2" points="318.97,-478.38 316.51,-468.07 312.01,-477.67 318.97,-478.38"/>
</g>
<!-- 21 -->
<g id="node22" class="node">
<title>21</title>
<path fill="none" stroke="#d6d856" stroke-width="2" stroke-dasharray="5,2" d="M488.5,-612C488.5,-612 359.5,-612 359.5,-612 353.5,-612 347.5,-606 347.5,-600 347.5,-600 347.5,-588 347.5,-588 347.5,-582 353.5,-576 359.5,-576 359.5,-576 488.5,-576 488.5,-576 494.5,-576 500.5,-582 500.5,-588 500.5,-588 500.5,-600 500.5,-600 500.5,-606 494.5,-612 488.5,-612"/>
<text text-anchor="middle" x="424" y="-591.5" font-family="sans" font-size="10.00">transpose_and_filter_counts</text>
</g>
<!-- 5&#45;&gt;21 -->
<g id="edge34" class="edge">
<title>5&#45;&gt;21</title>
<path fill="none" stroke="grey" stroke-width="2" d="M422.49,-647.7C422.71,-639.98 422.98,-630.71 423.23,-622.11"/>
<polygon fill="grey" stroke="grey" stroke-width="2" points="426.72,-622.2 423.51,-612.1 419.73,-622 426.72,-622.2"/>
</g>
<!-- 6 -->
<g id="node7" class="node">
<title>6</title>
<path fill="none" stroke="#97d856" stroke-width="2" stroke-dasharray="5,2" d="M246.5,-828C246.5,-828 185.5,-828 185.5,-828 179.5,-828 173.5,-822 173.5,-816 173.5,-816 173.5,-804 173.5,-804 173.5,-798 179.5,-792 185.5,-792 185.5,-792 246.5,-792 246.5,-792 252.5,-792 258.5,-798 258.5,-804 258.5,-804 258.5,-816 258.5,-816 258.5,-822 252.5,-828 246.5,-828"/>
<text text-anchor="middle" x="216" y="-807.5" font-family="sans" font-size="10.00">kallisto_quant</text>
</g>
<!-- 6&#45;&gt;5 -->
<g id="edge13" class="edge">
<title>6&#45;&gt;5</title>
<path fill="none" stroke="grey" stroke-width="2" d="M255.34,-791.89C274.96,-782.54 298.59,-770.02 318,-756 336.6,-742.57 337.76,-735.14 355,-720 366.48,-709.92 379.57,-699.37 391.11,-690.37"/>
<polygon fill="grey" stroke="grey" stroke-width="2" points="393.43,-692.99 399.2,-684.11 389.15,-687.46 393.43,-692.99"/>
</g>
<!-- 19 -->
<g id="node20" class="node">
<title>19</title>
<path fill="none" stroke="#78d856" stroke-width="2" stroke-dasharray="5,2" d="M297.5,-756C297.5,-756 148.5,-756 148.5,-756 142.5,-756 136.5,-750 136.5,-744 136.5,-744 136.5,-732 136.5,-732 136.5,-726 142.5,-720 148.5,-720 148.5,-720 297.5,-720 297.5,-720 303.5,-720 309.5,-726 309.5,-732 309.5,-732 309.5,-744 309.5,-744 309.5,-750 303.5,-756 297.5,-756"/>
<text text-anchor="middle" x="223" y="-735.5" font-family="sans" font-size="10.00">create_tmp_and_summary_files</text>
</g>
<!-- 6&#45;&gt;19 -->
<g id="edge32" class="edge">
<title>6&#45;&gt;19</title>
<path fill="none" stroke="grey" stroke-width="2" d="M217.73,-791.7C218.5,-783.98 219.43,-774.71 220.29,-766.11"/>
<polygon fill="grey" stroke="grey" stroke-width="2" points="223.78,-766.4 221.29,-756.1 216.81,-765.71 223.78,-766.4"/>
</g>
<!-- 7 -->
<g id="node8" class="node">
<title>7</title>
<path fill="none" stroke="#59d856" stroke-width="2" stroke-dasharray="5,2" d="M504,-900C504,-900 444,-900 444,-900 438,-900 432,-894 432,-888 432,-888 432,-876 432,-876 432,-870 438,-864 444,-864 444,-864 504,-864 504,-864 510,-864 516,-870 516,-876 516,-876 516,-888 516,-888 516,-894 510,-900 504,-900"/>
<text text-anchor="middle" x="474" y="-879.5" font-family="sans" font-size="10.00">kallisto_index</text>
</g>
<!-- 7&#45;&gt;6 -->
<g id="edge20" class="edge">
<title>7&#45;&gt;6</title>
<path fill="none" stroke="grey" stroke-width="2" d="M431.79,-866.59C428.83,-865.68 425.87,-864.81 423,-864 357.58,-845.59 337.3,-847.09 268.76,-828.36"/>
<polygon fill="grey" stroke="grey" stroke-width="2" points="269.33,-824.89 258.76,-825.58 267.46,-831.63 269.33,-824.89"/>
</g>
<!-- 9 -->
<g id="node10" class="node">
<title>9</title>
<path fill="none" stroke="#97d856" stroke-width="2" stroke-dasharray="5,2" d="M658.5,-828C658.5,-828 597.5,-828 597.5,-828 591.5,-828 585.5,-822 585.5,-816 585.5,-816 585.5,-804 585.5,-804 585.5,-798 591.5,-792 597.5,-792 597.5,-792 658.5,-792 658.5,-792 664.5,-792 670.5,-798 670.5,-804 670.5,-804 670.5,-816 670.5,-816 670.5,-822 664.5,-828 658.5,-828"/>
<text text-anchor="middle" x="628" y="-807.5" font-family="sans" font-size="10.00">kallisto_quant</text>
</g>
<!-- 7&#45;&gt;9 -->
<g id="edge22" class="edge">
<title>7&#45;&gt;9</title>
<path fill="none" stroke="grey" stroke-width="2" d="M511.67,-863.88C532.63,-854.35 558.9,-842.41 581.18,-832.28"/>
<polygon fill="grey" stroke="grey" stroke-width="2" points="582.79,-835.39 590.45,-828.07 579.9,-829.02 582.79,-835.39"/>
</g>
<!-- 11 -->
<g id="node12" class="node">
<title>11</title>
<path fill="none" stroke="#97d856" stroke-width="2" stroke-dasharray="5,2" d="M761.5,-828C761.5,-828 700.5,-828 700.5,-828 694.5,-828 688.5,-822 688.5,-816 688.5,-816 688.5,-804 688.5,-804 688.5,-798 694.5,-792 700.5,-792 700.5,-792 761.5,-792 761.5,-792 767.5,-792 773.5,-798 773.5,-804 773.5,-804 773.5,-816 773.5,-816 773.5,-822 767.5,-828 761.5,-828"/>
<text text-anchor="middle" x="731" y="-807.5" font-family="sans" font-size="10.00">kallisto_quant</text>
</g>
<!-- 7&#45;&gt;11 -->
<g id="edge24" class="edge">
<title>7&#45;&gt;11</title>
<path fill="none" stroke="grey" stroke-width="2" d="M516.21,-866.59C519.17,-865.68 522.13,-864.81 525,-864 590.01,-845.66 610.14,-847.03 678.29,-828.35"/>
<polygon fill="grey" stroke="grey" stroke-width="2" points="679.55,-831.63 688.24,-825.58 677.66,-824.89 679.55,-831.63"/>
</g>
<!-- 13 -->
<g id="node14" class="node">
<title>13</title>
<path fill="none" stroke="#97d856" stroke-width="2" stroke-dasharray="5,2" d="M349.5,-828C349.5,-828 288.5,-828 288.5,-828 282.5,-828 276.5,-822 276.5,-816 276.5,-816 276.5,-804 276.5,-804 276.5,-798 282.5,-792 288.5,-792 288.5,-792 349.5,-792 349.5,-792 355.5,-792 361.5,-798 361.5,-804 361.5,-804 361.5,-816 361.5,-816 361.5,-822 355.5,-828 349.5,-828"/>
<text text-anchor="middle" x="319" y="-807.5" font-family="sans" font-size="10.00">kallisto_quant</text>
</g>
<!-- 7&#45;&gt;13 -->
<g id="edge26" class="edge">
<title>7&#45;&gt;13</title>
<path fill="none" stroke="grey" stroke-width="2" d="M436.08,-863.88C414.99,-854.35 388.54,-842.41 366.13,-832.28"/>
<polygon fill="grey" stroke="grey" stroke-width="2" points="367.35,-828.99 356.79,-828.07 364.47,-835.37 367.35,-828.99"/>
</g>
<!-- 15 -->
<g id="node16" class="node">
<title>15</title>
<path fill="none" stroke="#97d856" stroke-width="2" stroke-dasharray="5,2" d="M452.5,-828C452.5,-828 391.5,-828 391.5,-828 385.5,-828 379.5,-822 379.5,-816 379.5,-816 379.5,-804 379.5,-804 379.5,-798 385.5,-792 391.5,-792 391.5,-792 452.5,-792 452.5,-792 458.5,-792 464.5,-798 464.5,-804 464.5,-804 464.5,-816 464.5,-816 464.5,-822 458.5,-828 452.5,-828"/>
<text text-anchor="middle" x="422" y="-807.5" font-family="sans" font-size="10.00">kallisto_quant</text>
</g>
<!-- 7&#45;&gt;15 -->
<g id="edge28" class="edge">
<title>7&#45;&gt;15</title>
<path fill="none" stroke="grey" stroke-width="2" d="M461.15,-863.7C454.97,-855.39 447.46,-845.28 440.68,-836.14"/>
<polygon fill="grey" stroke="grey" stroke-width="2" points="443.48,-834.04 434.71,-828.1 437.86,-838.22 443.48,-834.04"/>
</g>
<!-- 17 -->
<g id="node18" class="node">
<title>17</title>
<path fill="none" stroke="#97d856" stroke-width="2" stroke-dasharray="5,2" d="M555.5,-828C555.5,-828 494.5,-828 494.5,-828 488.5,-828 482.5,-822 482.5,-816 482.5,-816 482.5,-804 482.5,-804 482.5,-798 488.5,-792 494.5,-792 494.5,-792 555.5,-792 555.5,-792 561.5,-792 567.5,-798 567.5,-804 567.5,-804 567.5,-816 567.5,-816 567.5,-822 561.5,-828 555.5,-828"/>
<text text-anchor="middle" x="525" y="-807.5" font-family="sans" font-size="10.00">kallisto_quant</text>
</g>
<!-- 7&#45;&gt;17 -->
<g id="edge30" class="edge">
<title>7&#45;&gt;17</title>
<path fill="none" stroke="grey" stroke-width="2" d="M486.61,-863.7C492.6,-855.47 499.88,-845.48 506.48,-836.42"/>
<polygon fill="grey" stroke="grey" stroke-width="2" points="509.48,-838.25 512.54,-828.1 503.82,-834.13 509.48,-838.25"/>
</g>
<!-- 8 -->
<g id="node9" class="node">
<title>8</title>
<path fill="none" stroke="#56d89a" stroke-width="2" stroke-dasharray="5,2" d="M114,-900C114,-900 12,-900 12,-900 6,-900 0,-894 0,-888 0,-888 0,-876 0,-876 0,-870 6,-864 12,-864 12,-864 114,-864 114,-864 120,-864 126,-870 126,-876 126,-876 126,-888 126,-888 126,-894 120,-900 114,-900"/>
<text text-anchor="middle" x="63" y="-885" font-family="sans" font-size="10.00">fastqc</text>
<text text-anchor="middle" x="63" y="-874" font-family="sans" font-size="10.00">sample: SRR21401506</text>
</g>
<!-- 8&#45;&gt;6 -->
<g id="edge21" class="edge">
<title>8&#45;&gt;6</title>
<path fill="none" stroke="grey" stroke-width="2" d="M100.43,-863.88C121.25,-854.35 147.35,-842.41 169.48,-832.28"/>
<polygon fill="grey" stroke="grey" stroke-width="2" points="171.06,-835.41 178.69,-828.07 168.14,-829.05 171.06,-835.41"/>
</g>
<!-- 9&#45;&gt;5 -->
<g id="edge14" class="edge">
<title>9&#45;&gt;5</title>
<path fill="none" stroke="grey" stroke-width="2" d="M603.15,-791.87C566.19,-766.39 496.64,-718.45 455.31,-689.96"/>
<polygon fill="grey" stroke="grey" stroke-width="2" points="457.16,-686.98 446.94,-684.19 453.18,-692.75 457.16,-686.98"/>
</g>
<!-- 10 -->
<g id="node11" class="node">
<title>10</title>
<path fill="none" stroke="#56d89a" stroke-width="2" stroke-dasharray="5,2" d="M792,-900C792,-900 690,-900 690,-900 684,-900 678,-894 678,-888 678,-888 678,-876 678,-876 678,-870 684,-864 690,-864 690,-864 792,-864 792,-864 798,-864 804,-870 804,-876 804,-876 804,-888 804,-888 804,-894 798,-900 792,-900"/>
<text text-anchor="middle" x="741" y="-885" font-family="sans" font-size="10.00">fastqc</text>
<text text-anchor="middle" x="741" y="-874" font-family="sans" font-size="10.00">sample: SRR21401510</text>
</g>
<!-- 10&#45;&gt;9 -->
<g id="edge23" class="edge">
<title>10&#45;&gt;9</title>
<path fill="none" stroke="grey" stroke-width="2" d="M713.36,-863.88C698.58,-854.72 680.21,-843.34 664.3,-833.48"/>
<polygon fill="grey" stroke="grey" stroke-width="2" points="666.09,-830.48 655.75,-828.19 662.41,-836.43 666.09,-830.48"/>
</g>
<!-- 11&#45;&gt;5 -->
<g id="edge15" class="edge">
<title>11&#45;&gt;5</title>
<path fill="none" stroke="grey" stroke-width="2" d="M694.24,-791.84C655.62,-773.85 593.11,-744.8 539,-720 516.04,-709.48 490.5,-697.9 469.16,-688.25"/>
<polygon fill="grey" stroke="grey" stroke-width="2" points="470.53,-685.03 459.98,-684.1 467.65,-691.41 470.53,-685.03"/>
</g>
<!-- 12 -->
<g id="node13" class="node">
<title>12</title>
<path fill="none" stroke="#56d89a" stroke-width="2" stroke-dasharray="5,2" d="M936,-900C936,-900 834,-900 834,-900 828,-900 822,-894 822,-888 822,-888 822,-876 822,-876 822,-870 828,-864 834,-864 834,-864 936,-864 936,-864 942,-864 948,-870 948,-876 948,-876 948,-888 948,-888 948,-894 942,-900 936,-900"/>
<text text-anchor="middle" x="885" y="-885" font-family="sans" font-size="10.00">fastqc</text>
<text text-anchor="middle" x="885" y="-874" font-family="sans" font-size="10.00">sample: SRR21401502</text>
</g>
<!-- 12&#45;&gt;11 -->
<g id="edge25" class="edge">
<title>12&#45;&gt;11</title>
<path fill="none" stroke="grey" stroke-width="2" d="M847.33,-863.88C826.37,-854.35 800.1,-842.41 777.82,-832.28"/>
<polygon fill="grey" stroke="grey" stroke-width="2" points="779.1,-829.02 768.55,-828.07 776.21,-835.39 779.1,-829.02"/>
</g>
<!-- 13&#45;&gt;5 -->
<g id="edge16" class="edge">
<title>13&#45;&gt;5</title>
<path fill="none" stroke="grey" stroke-width="2" d="M331.42,-791.87C349.37,-767.14 382.66,-721.24 403.49,-692.51"/>
<polygon fill="grey" stroke="grey" stroke-width="2" points="406.49,-694.34 409.53,-684.19 400.83,-690.23 406.49,-694.34"/>
</g>
<!-- 14 -->
<g id="node15" class="node">
<title>14</title>
<path fill="none" stroke="#56d89a" stroke-width="2" stroke-dasharray="5,2" d="M258,-900C258,-900 156,-900 156,-900 150,-900 144,-894 144,-888 144,-888 144,-876 144,-876 144,-870 150,-864 156,-864 156,-864 258,-864 258,-864 264,-864 270,-870 270,-876 270,-876 270,-888 270,-888 270,-894 264,-900 258,-900"/>
<text text-anchor="middle" x="207" y="-885" font-family="sans" font-size="10.00">fastqc</text>
<text text-anchor="middle" x="207" y="-874" font-family="sans" font-size="10.00">sample: SRR21401495</text>
</g>
<!-- 14&#45;&gt;13 -->
<g id="edge27" class="edge">
<title>14&#45;&gt;13</title>
<path fill="none" stroke="grey" stroke-width="2" d="M234.4,-863.88C248.91,-854.81 266.92,-843.55 282.59,-833.76"/>
<polygon fill="grey" stroke="grey" stroke-width="2" points="284.87,-836.46 291.5,-828.19 281.16,-830.52 284.87,-836.46"/>
</g>
<!-- 15&#45;&gt;5 -->
<g id="edge17" class="edge">
<title>15&#45;&gt;5</title>
<path fill="none" stroke="grey" stroke-width="2" d="M422,-791.87C422,-767.67 422,-723.21 422,-694.39"/>
<polygon fill="grey" stroke="grey" stroke-width="2" points="425.5,-694.19 422,-684.19 418.5,-694.19 425.5,-694.19"/>
</g>
<!-- 16 -->
<g id="node17" class="node">
<title>16</title>
<path fill="none" stroke="#56d89a" stroke-width="2" stroke-dasharray="5,2" d="M402,-900C402,-900 300,-900 300,-900 294,-900 288,-894 288,-888 288,-888 288,-876 288,-876 288,-870 294,-864 300,-864 300,-864 402,-864 402,-864 408,-864 414,-870 414,-876 414,-876 414,-888 414,-888 414,-894 408,-900 402,-900"/>
<text text-anchor="middle" x="351" y="-885" font-family="sans" font-size="10.00">fastqc</text>
<text text-anchor="middle" x="351" y="-874" font-family="sans" font-size="10.00">sample: SRR21401514</text>
</g>
<!-- 16&#45;&gt;15 -->
<g id="edge29" class="edge">
<title>16&#45;&gt;15</title>
<path fill="none" stroke="grey" stroke-width="2" d="M368.55,-863.7C377.23,-855.14 387.86,-844.66 397.35,-835.3"/>
<polygon fill="grey" stroke="grey" stroke-width="2" points="399.99,-837.62 404.65,-828.1 395.07,-832.63 399.99,-837.62"/>
</g>
<!-- 17&#45;&gt;5 -->
<g id="edge18" class="edge">
<title>17&#45;&gt;5</title>
<path fill="none" stroke="grey" stroke-width="2" d="M512.58,-791.87C494.63,-767.14 461.34,-721.24 440.51,-692.51"/>
<polygon fill="grey" stroke="grey" stroke-width="2" points="443.17,-690.23 434.47,-684.19 437.51,-694.34 443.17,-690.23"/>
</g>
<!-- 18 -->
<g id="node19" class="node">
<title>18</title>
<path fill="none" stroke="#56d89a" stroke-width="2" stroke-dasharray="5,2" d="M648,-900C648,-900 546,-900 546,-900 540,-900 534,-894 534,-888 534,-888 534,-876 534,-876 534,-870 540,-864 546,-864 546,-864 648,-864 648,-864 654,-864 660,-870 660,-876 660,-876 660,-888 660,-888 660,-894 654,-900 648,-900"/>
<text text-anchor="middle" x="597" y="-885" font-family="sans" font-size="10.00">fastqc</text>
<text text-anchor="middle" x="597" y="-874" font-family="sans" font-size="10.00">sample: SRR21401494</text>
</g>
<!-- 18&#45;&gt;17 -->
<g id="edge31" class="edge">
<title>18&#45;&gt;17</title>
<path fill="none" stroke="grey" stroke-width="2" d="M579.2,-863.7C570.4,-855.14 559.62,-844.66 550,-835.3"/>
<polygon fill="grey" stroke="grey" stroke-width="2" points="552.2,-832.57 542.59,-828.1 547.32,-837.58 552.2,-832.57"/>
</g>
<!-- 19&#45;&gt;3 -->
<g id="edge7" class="edge">
<title>19&#45;&gt;3</title>
<path fill="none" stroke="grey" stroke-width="2" d="M221.02,-719.98C218.11,-693.36 213,-640.23 213,-595 213,-595 213,-595 213,-449 213,-374.57 304.31,-336.67 367.08,-319.42"/>
<polygon fill="grey" stroke="grey" stroke-width="2" points="368.12,-322.76 376.89,-316.82 366.33,-315.99 368.12,-322.76"/>
</g>
<!-- 19&#45;&gt;4 -->
<g id="edge12" class="edge">
<title>19&#45;&gt;4</title>
<path fill="none" stroke="grey" stroke-width="2" d="M228.72,-719.97C244.79,-672.09 290.45,-536.06 309.97,-477.9"/>
<polygon fill="grey" stroke="grey" stroke-width="2" points="313.33,-478.9 313.19,-468.31 306.69,-476.67 313.33,-478.9"/>
</g>
<!-- 19&#45;&gt;5 -->
<g id="edge19" class="edge">
<title>19&#45;&gt;5</title>
<path fill="none" stroke="grey" stroke-width="2" d="M271.43,-719.97C299.23,-710.19 334.34,-697.84 363.65,-687.52"/>
<polygon fill="grey" stroke="grey" stroke-width="2" points="365.08,-690.73 373.36,-684.11 362.76,-684.13 365.08,-690.73"/>
</g>
<!-- 20 -->
<g id="node21" class="node">
<title>20</title>
<path fill="none" stroke="#56d8b9" stroke-width="2" stroke-dasharray="5,2" d="M464,-540C464,-540 384,-540 384,-540 378,-540 372,-534 372,-528 372,-528 372,-516 372,-516 372,-510 378,-504 384,-504 384,-504 464,-504 464,-504 470,-504 476,-510 476,-516 476,-516 476,-528 476,-528 476,-534 470,-540 464,-540"/>
<text text-anchor="middle" x="424" y="-519.5" font-family="sans" font-size="10.00">aggregate_counts</text>
</g>
<!-- 20&#45;&gt;3 -->
<g id="edge8" class="edge">
<title>20&#45;&gt;3</title>
<path fill="none" stroke="grey" stroke-width="2" d="M424.08,-503.85C424.25,-466.83 424.66,-379.18 424.87,-334.39"/>
<polygon fill="grey" stroke="grey" stroke-width="2" points="428.37,-334.25 424.92,-324.23 421.37,-334.22 428.37,-334.25"/>
</g>
<!-- 20&#45;&gt;4 -->
<g id="edge11" class="edge">
<title>20&#45;&gt;4</title>
<path fill="none" stroke="grey" stroke-width="2" d="M398.31,-503.88C384.71,-494.81 367.83,-483.55 353.14,-473.76"/>
<polygon fill="grey" stroke="grey" stroke-width="2" points="355.05,-470.82 344.78,-468.19 351.16,-476.65 355.05,-470.82"/>
</g>
<!-- 23 -->
<g id="node24" class="node">
<title>23</title>
<path fill="none" stroke="#567bd8" stroke-width="2" stroke-dasharray="5,2" d="M645.5,-468C645.5,-468 580.5,-468 580.5,-468 574.5,-468 568.5,-462 568.5,-456 568.5,-456 568.5,-444 568.5,-444 568.5,-438 574.5,-432 580.5,-432 580.5,-432 645.5,-432 645.5,-432 651.5,-432 657.5,-438 657.5,-444 657.5,-444 657.5,-456 657.5,-456 657.5,-462 651.5,-468 645.5,-468"/>
<text text-anchor="middle" x="613" y="-453" font-family="sans" font-size="10.00">VST_normalize</text>
<text text-anchor="middle" x="613" y="-442" font-family="sans" font-size="10.00">th: 200</text>
</g>
<!-- 20&#45;&gt;23 -->
<g id="edge37" class="edge">
<title>20&#45;&gt;23</title>
<path fill="none" stroke="grey" stroke-width="2" d="M470.23,-503.88C496.92,-493.99 530.63,-481.51 558.59,-471.15"/>
<polygon fill="grey" stroke="grey" stroke-width="2" points="560.06,-474.34 568.22,-467.59 557.63,-467.78 560.06,-474.34"/>
</g>
<!-- 21&#45;&gt;20 -->
<g id="edge33" class="edge">
<title>21&#45;&gt;20</title>
<path fill="none" stroke="grey" stroke-width="2" d="M424,-575.7C424,-567.98 424,-558.71 424,-550.11"/>
<polygon fill="grey" stroke="grey" stroke-width="2" points="427.5,-550.1 424,-540.1 420.5,-550.1 427.5,-550.1"/>
</g>
<!-- 22 -->
<g id="node23" class="node">
<title>22</title>
<path fill="none" stroke="#b6d856" stroke-width="2" stroke-dasharray="5,2" d="M539,-396C539,-396 503,-396 503,-396 497,-396 491,-390 491,-384 491,-384 491,-372 491,-372 491,-366 497,-360 503,-360 503,-360 539,-360 539,-360 545,-360 551,-366 551,-372 551,-372 551,-384 551,-384 551,-390 545,-396 539,-396"/>
<text text-anchor="middle" x="521" y="-375.5" font-family="sans" font-size="10.00">VST_PCA</text>
</g>
<!-- 22&#45;&gt;3 -->
<g id="edge6" class="edge">
<title>22&#45;&gt;3</title>
<path fill="none" stroke="grey" stroke-width="2" d="M497.27,-359.7C485.06,-350.8 470.01,-339.82 456.82,-330.2"/>
<polygon fill="grey" stroke="grey" stroke-width="2" points="458.6,-327.17 448.46,-324.1 454.48,-332.82 458.6,-327.17"/>
</g>
<!-- 23&#45;&gt;22 -->
<g id="edge35" class="edge">
<title>23&#45;&gt;22</title>
<path fill="none" stroke="grey" stroke-width="2" d="M590.26,-431.7C578.56,-422.8 564.14,-411.82 551.49,-402.2"/>
<polygon fill="grey" stroke="grey" stroke-width="2" points="553.56,-399.37 543.48,-396.1 549.32,-404.94 553.56,-399.37"/>
</g>
<!-- 24 -->
<g id="node25" class="node">
<title>24</title>
<path fill="none" stroke="#56b9d8" stroke-width="2" stroke-dasharray="5,2" d="M538.5,-468C538.5,-468 465.5,-468 465.5,-468 459.5,-468 453.5,-462 453.5,-456 453.5,-456 453.5,-444 453.5,-444 453.5,-438 459.5,-432 465.5,-432 465.5,-432 538.5,-432 538.5,-432 544.5,-432 550.5,-438 550.5,-444 550.5,-444 550.5,-456 550.5,-456 550.5,-462 544.5,-468 538.5,-468"/>
<text text-anchor="middle" x="502" y="-447.5" font-family="sans" font-size="10.00">move_metadata</text>
</g>
<!-- 24&#45;&gt;3 -->
<g id="edge9" class="edge">
<title>24&#45;&gt;3</title>
<path fill="none" stroke="grey" stroke-width="2" d="M492.71,-431.87C479.42,-407.35 454.84,-362.03 439.24,-333.26"/>
<polygon fill="grey" stroke="grey" stroke-width="2" points="442.16,-331.31 434.32,-324.19 436.01,-334.65 442.16,-331.31"/>
</g>
<!-- 24&#45;&gt;22 -->
<g id="edge36" class="edge">
<title>24&#45;&gt;22</title>
<path fill="none" stroke="grey" stroke-width="2" d="M506.7,-431.7C508.81,-423.9 511.36,-414.51 513.72,-405.83"/>
<polygon fill="grey" stroke="grey" stroke-width="2" points="517.12,-406.67 516.36,-396.1 510.36,-404.84 517.12,-406.67"/>
</g>
<!-- 25&#45;&gt;1 -->
<g id="edge3" class="edge">
<title>25&#45;&gt;1</title>
<path fill="none" stroke="grey" stroke-width="2" d="M455.11,-143.7C450.51,-135.64 444.94,-125.89 439.85,-116.98"/>
<polygon fill="grey" stroke="grey" stroke-width="2" points="442.77,-115.05 434.77,-108.1 436.7,-118.52 442.77,-115.05"/>
</g>
</g>
</svg>
