<?xml version="1.0" encoding="UTF-8" standalone="no"?>
<!DOCTYPE svg PUBLIC "-//W3C//DTD SVG 1.1//EN"
 "http://www.w3.org/Graphics/SVG/1.1/DTD/svg11.dtd">
<!-- Generated by graphviz version 2.43.0 (0)
 -->
<!-- Title: snakemake_dag Pages: 1 -->
<svg width="492pt" height="908pt"
 viewBox="0.00 0.00 492.00 908.00" xmlns="http://www.w3.org/2000/svg" xmlns:xlink="http://www.w3.org/1999/xlink">
<g id="graph0" class="graph" transform="scale(1 1) rotate(0) translate(4 904)">
<title>snakemake_dag</title>
<polygon fill="white" stroke="transparent" points="-4,4 -4,-904 488,-904 488,4 -4,4"/>
<!-- 0 -->
<g id="node1" class="node">
<title>0</title>
<path fill="none" stroke="#d6d856" stroke-width="2" d="M251.5,-36C251.5,-36 213.5,-36 213.5,-36 207.5,-36 201.5,-30 201.5,-24 201.5,-24 201.5,-12 201.5,-12 201.5,-6 207.5,0 213.5,0 213.5,0 251.5,0 251.5,0 257.5,0 263.5,-6 263.5,-12 263.5,-12 263.5,-24 263.5,-24 263.5,-30 257.5,-36 251.5,-36"/>
<text text-anchor="middle" x="232.5" y="-15.5" font-family="sans" font-size="10.00">make_art</text>
</g>
<!-- 1 -->
<g id="node2" class="node">
<title>1</title>
<path fill="none" stroke="#d85656" stroke-width="2" d="M262,-108C262,-108 203,-108 203,-108 197,-108 191,-102 191,-96 191,-96 191,-84 191,-84 191,-78 197,-72 203,-72 203,-72 262,-72 262,-72 268,-72 274,-78 274,-84 274,-84 274,-96 274,-96 274,-102 268,-108 262,-108"/>
<text text-anchor="middle" x="232.5" y="-87.5" font-family="sans" font-size="10.00">complete_run</text>
</g>
<!-- 1&#45;&gt;0 -->
<g id="edge1" class="edge">
<title>1&#45;&gt;0</title>
<path fill="none" stroke="grey" stroke-width="2" d="M232.5,-71.7C232.5,-63.98 232.5,-54.71 232.5,-46.11"/>
<polygon fill="grey" stroke="grey" stroke-width="2" points="236,-46.1 232.5,-36.1 229,-46.1 236,-46.1"/>
</g>
<!-- 2 -->
<g id="node3" class="node">
<title>2</title>
<path fill="none" stroke="#569ad8" stroke-width="2" d="M258.5,-252C258.5,-252 206.5,-252 206.5,-252 200.5,-252 194.5,-246 194.5,-240 194.5,-240 194.5,-228 194.5,-228 194.5,-222 200.5,-216 206.5,-216 206.5,-216 258.5,-216 258.5,-216 264.5,-216 270.5,-222 270.5,-228 270.5,-228 270.5,-240 270.5,-240 270.5,-246 264.5,-252 258.5,-252"/>
<text text-anchor="middle" x="232.5" y="-231.5" font-family="sans" font-size="10.00">write_config</text>
</g>
<!-- 2&#45;&gt;1 -->
<g id="edge2" class="edge">
<title>2&#45;&gt;1</title>
<path fill="none" stroke="grey" stroke-width="2" d="M223.78,-215.83C219.13,-205.69 213.88,-192.44 211.5,-180 208.5,-164.28 208.5,-159.72 211.5,-144 213.21,-135.06 216.4,-125.7 219.79,-117.37"/>
<polygon fill="grey" stroke="grey" stroke-width="2" points="223.01,-118.73 223.78,-108.17 216.59,-115.95 223.01,-118.73"/>
</g>
<!-- 15 -->
<g id="node16" class="node">
<title>15</title>
<path fill="none" stroke="#567bd8" stroke-width="2" d="M312,-180C312,-180 233,-180 233,-180 227,-180 221,-174 221,-168 221,-168 221,-156 221,-156 221,-150 227,-144 233,-144 233,-144 312,-144 312,-144 318,-144 324,-150 324,-156 324,-156 324,-168 324,-168 324,-174 318,-180 312,-180"/>
<text text-anchor="middle" x="272.5" y="-159.5" font-family="sans" font-size="10.00">tidy_up_tmp_files</text>
</g>
<!-- 2&#45;&gt;15 -->
<g id="edge23" class="edge">
<title>2&#45;&gt;15</title>
<path fill="none" stroke="grey" stroke-width="2" d="M242.39,-215.7C246.99,-207.64 252.56,-197.89 257.65,-188.98"/>
<polygon fill="grey" stroke="grey" stroke-width="2" points="260.8,-190.52 262.73,-180.1 254.73,-187.05 260.8,-190.52"/>
</g>
<!-- 3 -->
<g id="node4" class="node">
<title>3</title>
<path fill="none" stroke="#56d8d8" stroke-width="2" d="M268.5,-324C268.5,-324 196.5,-324 196.5,-324 190.5,-324 184.5,-318 184.5,-312 184.5,-312 184.5,-300 184.5,-300 184.5,-294 190.5,-288 196.5,-288 196.5,-288 268.5,-288 268.5,-288 274.5,-288 280.5,-294 280.5,-300 280.5,-300 280.5,-312 280.5,-312 280.5,-318 274.5,-324 268.5,-324"/>
<text text-anchor="middle" x="232.5" y="-303.5" font-family="sans" font-size="10.00">move_final_files</text>
</g>
<!-- 3&#45;&gt;2 -->
<g id="edge4" class="edge">
<title>3&#45;&gt;2</title>
<path fill="none" stroke="grey" stroke-width="2" d="M232.5,-287.7C232.5,-279.98 232.5,-270.71 232.5,-262.11"/>
<polygon fill="grey" stroke="grey" stroke-width="2" points="236,-262.1 232.5,-252.1 229,-262.1 236,-262.1"/>
</g>
<!-- 4 -->
<g id="node5" class="node">
<title>4</title>
<path fill="none" stroke="#78d856" stroke-width="2" d="M404.5,-468C404.5,-468 272.5,-468 272.5,-468 266.5,-468 260.5,-462 260.5,-456 260.5,-456 260.5,-444 260.5,-444 260.5,-438 266.5,-432 272.5,-432 272.5,-432 404.5,-432 404.5,-432 410.5,-432 416.5,-438 416.5,-444 416.5,-444 416.5,-456 416.5,-456 416.5,-462 410.5,-468 404.5,-468"/>
<text text-anchor="middle" x="338.5" y="-447.5" font-family="sans" font-size="10.00">alignment_summary_figures</text>
</g>
<!-- 4&#45;&gt;3 -->
<g id="edge6" class="edge">
<title>4&#45;&gt;3</title>
<path fill="none" stroke="grey" stroke-width="2" d="M325.71,-431.87C307.25,-407.14 272.99,-361.24 251.54,-332.51"/>
<polygon fill="grey" stroke="grey" stroke-width="2" points="254.12,-330.11 245.33,-324.19 248.51,-334.3 254.12,-330.11"/>
</g>
<!-- 5 -->
<g id="node6" class="node">
<title>5</title>
<path fill="none" stroke="#56d89a" stroke-width="2" d="M345.5,-684C345.5,-684 241.5,-684 241.5,-684 235.5,-684 229.5,-678 229.5,-672 229.5,-672 229.5,-660 229.5,-660 229.5,-654 235.5,-648 241.5,-648 241.5,-648 345.5,-648 345.5,-648 351.5,-648 357.5,-654 357.5,-660 357.5,-660 357.5,-672 357.5,-672 357.5,-678 351.5,-684 345.5,-684"/>
<text text-anchor="middle" x="293.5" y="-663.5" font-family="sans" font-size="10.00">aggregate_tmp_counts</text>
</g>
<!-- 5&#45;&gt;4 -->
<g id="edge10" class="edge">
<title>5&#45;&gt;4</title>
<path fill="none" stroke="grey" stroke-width="2" d="M303.28,-647.88C308.62,-637.76 314.87,-624.51 318.5,-612 331.75,-566.31 336.22,-510.82 337.73,-478.36"/>
<polygon fill="grey" stroke="grey" stroke-width="2" points="341.23,-478.41 338.14,-468.28 334.24,-478.13 341.23,-478.41"/>
</g>
<!-- 11 -->
<g id="node12" class="node">
<title>11</title>
<path fill="none" stroke="#d89556" stroke-width="2" d="M298,-612C298,-612 169,-612 169,-612 163,-612 157,-606 157,-600 157,-600 157,-588 157,-588 157,-582 163,-576 169,-576 169,-576 298,-576 298,-576 304,-576 310,-582 310,-588 310,-588 310,-600 310,-600 310,-606 304,-612 298,-612"/>
<text text-anchor="middle" x="233.5" y="-591.5" font-family="sans" font-size="10.00">transpose_and_filter_counts</text>
</g>
<!-- 5&#45;&gt;11 -->
<g id="edge19" class="edge">
<title>5&#45;&gt;11</title>
<path fill="none" stroke="grey" stroke-width="2" d="M278.67,-647.7C271.48,-639.3 262.7,-629.07 254.81,-619.86"/>
<polygon fill="grey" stroke="grey" stroke-width="2" points="257.33,-617.42 248.16,-612.1 252.01,-621.97 257.33,-617.42"/>
</g>
<!-- 6 -->
<g id="node7" class="node">
<title>6</title>
<path fill="none" stroke="#97d856" stroke-width="2" d="M370,-828C370,-828 309,-828 309,-828 303,-828 297,-822 297,-816 297,-816 297,-804 297,-804 297,-798 303,-792 309,-792 309,-792 370,-792 370,-792 376,-792 382,-798 382,-804 382,-804 382,-816 382,-816 382,-822 376,-828 370,-828"/>
<text text-anchor="middle" x="339.5" y="-807.5" font-family="sans" font-size="10.00">kallisto_quant</text>
</g>
<!-- 6&#45;&gt;5 -->
<g id="edge13" class="edge">
<title>6&#45;&gt;5</title>
<path fill="none" stroke="grey" stroke-width="2" d="M323.51,-791.75C315.46,-782.01 306.39,-769.16 301.5,-756 294.17,-736.28 292.36,-712.47 292.28,-694.45"/>
<polygon fill="grey" stroke="grey" stroke-width="2" points="295.78,-694.36 292.41,-684.32 288.78,-694.27 295.78,-694.36"/>
</g>
<!-- 9 -->
<g id="node10" class="node">
<title>9</title>
<path fill="none" stroke="#59d856" stroke-width="2" d="M472,-756C472,-756 323,-756 323,-756 317,-756 311,-750 311,-744 311,-744 311,-732 311,-732 311,-726 317,-720 323,-720 323,-720 472,-720 472,-720 478,-720 484,-726 484,-732 484,-732 484,-744 484,-744 484,-750 478,-756 472,-756"/>
<text text-anchor="middle" x="397.5" y="-735.5" font-family="sans" font-size="10.00">create_tmp_and_summary_files</text>
</g>
<!-- 6&#45;&gt;9 -->
<g id="edge17" class="edge">
<title>6&#45;&gt;9</title>
<path fill="none" stroke="grey" stroke-width="2" d="M353.84,-791.7C360.79,-783.3 369.27,-773.07 376.9,-763.86"/>
<polygon fill="grey" stroke="grey" stroke-width="2" points="379.64,-766.04 383.33,-756.1 374.25,-761.57 379.64,-766.04"/>
</g>
<!-- 7 -->
<g id="node8" class="node">
<title>7</title>
<path fill="none" stroke="#56d87b" stroke-width="2" d="M326.5,-900C326.5,-900 266.5,-900 266.5,-900 260.5,-900 254.5,-894 254.5,-888 254.5,-888 254.5,-876 254.5,-876 254.5,-870 260.5,-864 266.5,-864 266.5,-864 326.5,-864 326.5,-864 332.5,-864 338.5,-870 338.5,-876 338.5,-876 338.5,-888 338.5,-888 338.5,-894 332.5,-900 326.5,-900"/>
<text text-anchor="middle" x="296.5" y="-879.5" font-family="sans" font-size="10.00">kallisto_index</text>
</g>
<!-- 7&#45;&gt;6 -->
<g id="edge15" class="edge">
<title>7&#45;&gt;6</title>
<path fill="none" stroke="grey" stroke-width="2" d="M307.13,-863.7C312.13,-855.56 318.19,-845.69 323.71,-836.7"/>
<polygon fill="grey" stroke="grey" stroke-width="2" points="326.74,-838.46 328.99,-828.1 320.78,-834.79 326.74,-838.46"/>
</g>
<!-- 8 -->
<g id="node9" class="node">
<title>8</title>
<path fill="none" stroke="#d87556" stroke-width="2" d="M398.5,-900C398.5,-900 368.5,-900 368.5,-900 362.5,-900 356.5,-894 356.5,-888 356.5,-888 356.5,-876 356.5,-876 356.5,-870 362.5,-864 368.5,-864 368.5,-864 398.5,-864 398.5,-864 404.5,-864 410.5,-870 410.5,-876 410.5,-876 410.5,-888 410.5,-888 410.5,-894 404.5,-900 398.5,-900"/>
<text text-anchor="middle" x="383.5" y="-879.5" font-family="sans" font-size="10.00">fastqc</text>
</g>
<!-- 8&#45;&gt;6 -->
<g id="edge16" class="edge">
<title>8&#45;&gt;6</title>
<path fill="none" stroke="grey" stroke-width="2" d="M372.62,-863.7C367.51,-855.56 361.3,-845.69 355.66,-836.7"/>
<polygon fill="grey" stroke="grey" stroke-width="2" points="358.54,-834.71 350.25,-828.1 352.61,-838.43 358.54,-834.71"/>
</g>
<!-- 9&#45;&gt;3 -->
<g id="edge7" class="edge">
<title>9&#45;&gt;3</title>
<path fill="none" stroke="grey" stroke-width="2" d="M407.24,-719.68C421.01,-693.53 444.5,-642 444.5,-595 444.5,-595 444.5,-595 444.5,-449 444.5,-374.57 353.19,-336.67 290.42,-319.42"/>
<polygon fill="grey" stroke="grey" stroke-width="2" points="291.17,-315.99 280.61,-316.82 289.38,-322.76 291.17,-315.99"/>
</g>
<!-- 9&#45;&gt;4 -->
<g id="edge12" class="edge">
<title>9&#45;&gt;4</title>
<path fill="none" stroke="grey" stroke-width="2" d="M393.99,-719.97C384.13,-672.19 356.16,-536.62 344.12,-478.27"/>
<polygon fill="grey" stroke="grey" stroke-width="2" points="347.52,-477.39 342.07,-468.31 340.66,-478.81 347.52,-477.39"/>
</g>
<!-- 9&#45;&gt;5 -->
<g id="edge14" class="edge">
<title>9&#45;&gt;5</title>
<path fill="none" stroke="grey" stroke-width="2" d="M372.06,-719.88C358.71,-710.89 342.18,-699.76 327.72,-690.03"/>
<polygon fill="grey" stroke="grey" stroke-width="2" points="329.29,-686.87 319.04,-684.19 325.38,-692.68 329.29,-686.87"/>
</g>
<!-- 10 -->
<g id="node11" class="node">
<title>10</title>
<path fill="none" stroke="#56d8b9" stroke-width="2" d="M272.5,-540C272.5,-540 192.5,-540 192.5,-540 186.5,-540 180.5,-534 180.5,-528 180.5,-528 180.5,-516 180.5,-516 180.5,-510 186.5,-504 192.5,-504 192.5,-504 272.5,-504 272.5,-504 278.5,-504 284.5,-510 284.5,-516 284.5,-516 284.5,-528 284.5,-528 284.5,-534 278.5,-540 272.5,-540"/>
<text text-anchor="middle" x="232.5" y="-519.5" font-family="sans" font-size="10.00">aggregate_counts</text>
</g>
<!-- 10&#45;&gt;3 -->
<g id="edge8" class="edge">
<title>10&#45;&gt;3</title>
<path fill="none" stroke="grey" stroke-width="2" d="M232.5,-503.85C232.5,-466.83 232.5,-379.18 232.5,-334.39"/>
<polygon fill="grey" stroke="grey" stroke-width="2" points="236,-334.23 232.5,-324.23 229,-334.23 236,-334.23"/>
</g>
<!-- 10&#45;&gt;4 -->
<g id="edge11" class="edge">
<title>10&#45;&gt;4</title>
<path fill="none" stroke="grey" stroke-width="2" d="M258.43,-503.88C272.16,-494.81 289.21,-483.55 304.04,-473.76"/>
<polygon fill="grey" stroke="grey" stroke-width="2" points="306.05,-476.62 312.47,-468.19 302.2,-470.78 306.05,-476.62"/>
</g>
<!-- 13 -->
<g id="node14" class="node">
<title>13</title>
<path fill="none" stroke="#b6d856" stroke-width="2" d="M192,-468C192,-468 127,-468 127,-468 121,-468 115,-462 115,-456 115,-456 115,-444 115,-444 115,-438 121,-432 127,-432 127,-432 192,-432 192,-432 198,-432 204,-438 204,-444 204,-444 204,-456 204,-456 204,-462 198,-468 192,-468"/>
<text text-anchor="middle" x="159.5" y="-447.5" font-family="sans" font-size="10.00">VST_normalize</text>
</g>
<!-- 10&#45;&gt;13 -->
<g id="edge22" class="edge">
<title>10&#45;&gt;13</title>
<path fill="none" stroke="grey" stroke-width="2" d="M214.46,-503.7C205.44,-495.05 194.38,-484.45 184.56,-475.03"/>
<polygon fill="grey" stroke="grey" stroke-width="2" points="186.98,-472.5 177.34,-468.1 182.13,-477.55 186.98,-472.5"/>
</g>
<!-- 11&#45;&gt;10 -->
<g id="edge18" class="edge">
<title>11&#45;&gt;10</title>
<path fill="none" stroke="grey" stroke-width="2" d="M233.25,-575.7C233.14,-567.98 233.01,-558.71 232.89,-550.11"/>
<polygon fill="grey" stroke="grey" stroke-width="2" points="236.39,-550.05 232.74,-540.1 229.39,-550.15 236.39,-550.05"/>
</g>
<!-- 12 -->
<g id="node13" class="node">
<title>12</title>
<path fill="none" stroke="#56b9d8" stroke-width="2" d="M177.5,-396C177.5,-396 141.5,-396 141.5,-396 135.5,-396 129.5,-390 129.5,-384 129.5,-384 129.5,-372 129.5,-372 129.5,-366 135.5,-360 141.5,-360 141.5,-360 177.5,-360 177.5,-360 183.5,-360 189.5,-366 189.5,-372 189.5,-372 189.5,-384 189.5,-384 189.5,-390 183.5,-396 177.5,-396"/>
<text text-anchor="middle" x="159.5" y="-375.5" font-family="sans" font-size="10.00">VST_PCA</text>
</g>
<!-- 12&#45;&gt;3 -->
<g id="edge9" class="edge">
<title>12&#45;&gt;3</title>
<path fill="none" stroke="grey" stroke-width="2" d="M177.54,-359.7C186.56,-351.05 197.62,-340.45 207.44,-331.03"/>
<polygon fill="grey" stroke="grey" stroke-width="2" points="209.87,-333.55 214.66,-324.1 205.02,-328.5 209.87,-333.55"/>
</g>
<!-- 13&#45;&gt;12 -->
<g id="edge20" class="edge">
<title>13&#45;&gt;12</title>
<path fill="none" stroke="grey" stroke-width="2" d="M159.5,-431.7C159.5,-423.98 159.5,-414.71 159.5,-406.11"/>
<polygon fill="grey" stroke="grey" stroke-width="2" points="163,-406.1 159.5,-396.1 156,-406.1 163,-406.1"/>
</g>
<!-- 14 -->
<g id="node15" class="node">
<title>14</title>
<path fill="none" stroke="#d8b456" stroke-width="2" d="M85,-468C85,-468 12,-468 12,-468 6,-468 0,-462 0,-456 0,-456 0,-444 0,-444 0,-438 6,-432 12,-432 12,-432 85,-432 85,-432 91,-432 97,-438 97,-444 97,-444 97,-456 97,-456 97,-462 91,-468 85,-468"/>
<text text-anchor="middle" x="48.5" y="-447.5" font-family="sans" font-size="10.00">move_metadata</text>
</g>
<!-- 14&#45;&gt;3 -->
<g id="edge5" class="edge">
<title>14&#45;&gt;3</title>
<path fill="none" stroke="grey" stroke-width="2" d="M58.87,-432C71.45,-412.52 94.25,-380.64 120.5,-360 136.85,-347.15 156.82,-336.44 175.35,-328.1"/>
<polygon fill="grey" stroke="grey" stroke-width="2" points="176.82,-331.28 184.59,-324.07 174.02,-324.86 176.82,-331.28"/>
</g>
<!-- 14&#45;&gt;12 -->
<g id="edge21" class="edge">
<title>14&#45;&gt;12</title>
<path fill="none" stroke="grey" stroke-width="2" d="M75.65,-431.88C90.03,-422.81 107.88,-411.55 123.41,-401.76"/>
<polygon fill="grey" stroke="grey" stroke-width="2" points="125.65,-404.48 132.24,-396.19 121.92,-398.56 125.65,-404.48"/>
</g>
<!-- 15&#45;&gt;1 -->
<g id="edge3" class="edge">
<title>15&#45;&gt;1</title>
<path fill="none" stroke="grey" stroke-width="2" d="M262.61,-143.7C258.01,-135.64 252.44,-125.89 247.35,-116.98"/>
<polygon fill="grey" stroke="grey" stroke-width="2" points="250.27,-115.05 242.27,-108.1 244.2,-118.52 250.27,-115.05"/>
</g>
</g>
</svg>
